<?xml version="1.0" encoding="utf-8"?>
<!DOCTYPE svg PUBLIC "-//W3C//DTD SVG 1.0//EN" "http://www.w3.org/TR/2001/REC-SVG-20010904/DTD/svg10.dtd">
<svg aria-labelledby="title desc" fill-rule="evenodd" height="0.96in" preserveAspectRatio="none" stroke-linecap="round" viewBox="0 0 1016 960" width="1.016in" xmlns="http://www.w3.org/2000/svg" xmlns:xlink="http://www.w3.org/1999/xlink"><title>art supplies,arts,brushes,cartoons,Cybart,paintbrushes,painting,palettes</title><desc>Original keywords: art supplies,arts,brushes,cartoons,Cybart,paintbrushes,painting,palettes. This clipart was ripped from the Microsoft website, then uploaded to https://archive.org/details/MS_Clipart_Collection. (The original WMF file can be found within that item, under the folder MC900338622). From there, it was then converted by Trumad to svg using https://github.com/hidekatsu-izuno/wmf2svg in a bulk operation. All the converted files can be found at https://archive.org/details/MS_Clipart_Collection_SVG</desc>
<style type="text/css">
.brush0 { fill: rgb(255,255,255); }
.pen0 { stroke: rgb(0,0,0); stroke-width: 1; stroke-linejoin: round; }
.brush1 { fill: none; }
.pen1 { stroke: none; }
.brush2 { fill: rgb(193,252,193); }
.brush3 { fill: rgb(0,242,0); }
.brush4 { fill: rgb(255,232,198); }
.brush5 { fill: rgb(232,216,255); }
</style>
<g>
<polygon class="pen1 brush2" points="141,380 291,878 967,810 911,162 141,380"/>
<polygon class="pen1 brush3" points="633,114 613,25 608,0 585,11 498,51 492,54 487,57 482,61 477,66 473,70 470,76 467,81 464,87 462,93 461,99 460,106 460,112 450,114 438,117 425,120 411,125 396,130 381,135 366,141 350,148 334,154 318,161 303,167 288,174 274,180 261,186 249,191 238,196 196,216 160,234 129,250 102,264 80,277 62,288 47,298 36,306 28,314 22,321 18,326 16,331 15,335 16,339 17,342 18,345 19,348 21,351 24,354 27,356 33,358 39,359 48,358 59,357 73,354 90,349 111,342 135,333 163,322 195,309 232,292 274,273 298,262 319,252 339,242 358,233 375,224 391,216 405,208 418,201 430,194 440,188 450,182 458,176 465,171 472,166 477,161 482,157 489,163 497,167 506,171 515,173 524,174 533,173 543,171 552,168 555,167 562,163 573,158 586,152 599,147 610,142 618,138 621,137 636,130 633,114"/>
<polygon class="pen1 brush2" points="535,131 530,132 526,133 521,133 517,131 513,129 509,127 506,123 503,119 501,115 501,110 501,106 502,101 504,97 507,93 511,90 515,88 517,87 521,85 529,82 538,77 548,73 558,68 569,63 579,58 589,106 581,110 572,114 563,118 555,122 547,126 541,128 537,130 535,131"/>
<polygon class="pen1 brush3" points="1016,523 1015,499 1011,476 1005,453 996,430 985,408 972,387 956,367 938,347 924,334 909,321 893,309 876,298 858,287 840,278 821,269 802,261 782,254 761,248 740,243 719,239 697,235 675,233 652,231 629,231 590,233 551,237 514,244 479,254 445,266 414,281 384,298 357,317 332,337 310,360 290,384 274,409 261,436 252,464 246,493 244,523 245,539 246,556 249,572 253,588 255,594 260,603 268,614 280,623 288,626 296,628 305,629 315,629 325,627 335,625 346,621 358,616 383,608 406,603 428,601 448,602 466,604 480,609 490,616 496,624 498,632 497,641 493,650 487,660 479,670 469,680 457,690 444,699 444,700 443,700 438,704 430,713 424,727 422,744 423,750 425,755 428,761 431,766 436,770 442,775 448,779 455,783 456,784 457,784 470,789 484,793 497,797 511,800 525,804 539,806 553,809 568,811 508,900 492,923 519,931 610,958 610,958 618,958 626,956 632,951 636,944 637,936 634,929 629,923 622,919 557,900 615,814 619,814 622,814 625,815 629,815 637,815 644,815 652,814 659,814 667,813 674,812 682,812 689,811 733,936 740,958 761,947 846,903 846,903 852,898 856,891 857,884 855,876 850,870 843,866 835,865 827,867 763,900 730,805 745,802 760,798 775,793 790,789 804,784 818,778 832,772 845,765 858,759 871,751 883,744 895,736 906,727 917,718 928,709 938,699 956,679 972,659 985,638 996,616 1005,593 1011,570 1015,547 1016,523"/>
<polygon class="pen1 brush0" points="629,774 608,774 588,772 568,770 548,767 529,763 509,758 491,753 472,746 468,744 465,742 463,740 462,739 463,738 464,736 466,735 468,733 487,719 504,704 517,688 527,672 534,656 538,640 538,625 534,610 530,601 524,592 517,585 508,578 499,573 488,568 477,565 464,562 451,561 437,560 422,560 407,562 391,564 375,568 359,572 343,578 342,579 342,579 333,583 324,586 318,588 312,589 307,589 304,588 301,588 299,587 296,585 295,583 293,580 293,579 293,578 293,578 293,578 293,577 293,577 289,564 287,550 285,537 285,523 286,503 289,484 294,465 301,446 311,427 322,410 335,392 350,376 362,364 376,353 390,342 405,332 421,323 437,315 455,307 472,300 491,293 509,288 528,283 548,279 568,276 588,274 608,272 629,272 650,272 670,274 690,276 710,279 730,283 749,288 768,293 786,300 804,307 821,315 838,323 853,332 869,342 883,353 896,364 909,376 924,392 937,410 949,427 958,446 965,465 971,484 974,503 975,523 975,524 975,525 975,527 975,528 969,531 963,533 956,535 950,537 943,539 936,541 928,543 921,544 917,545 913,545 909,546 905,546 901,547 897,547 893,547 889,547 879,547 870,546 860,546 851,545 842,543 834,542 826,539 818,537 816,537 815,537 813,537 811,537 803,539 796,543 791,550 789,559 790,566 794,572 799,577 805,580 806,581 815,583 824,586 833,588 843,589 854,590 864,591 875,592 886,592 891,592 897,591 903,591 909,590 915,590 920,589 926,588 932,587 936,586 941,585 945,584 950,583 954,582 958,581 962,580 966,579 958,599 948,619 936,638 922,656 905,673 887,689 867,704 846,718 823,731 798,742 773,751 746,759 718,766 689,770 659,773 629,774"/>
<polygon class="pen1 brush3" points="623,537 607,538 592,542 578,548 567,556 557,566 549,577 545,590 543,603 544,614 548,625 553,635 561,645 567,650 574,655 581,659 589,663 597,665 605,667 614,669 623,669 632,669 641,667 650,665 658,663 666,659 673,655 680,650 686,645 693,635 699,625 703,614 704,603 703,591 699,580 693,570 686,561 680,555 673,550 666,546 658,543 650,540 641,538 632,537 623,537"/>
<polygon class="pen1 brush2" points="663,603 662,608 660,612 657,616 652,620 646,623 639,626 632,627 623,628 618,628 613,627 609,626 605,625 601,623 597,621 593,619 590,616 588,613 586,610 585,607 584,603 585,599 586,595 588,592 590,590 593,587 597,585 601,582 605,580 609,579 613,578 618,577 623,577 628,577 633,578 638,579 642,580 646,582 650,585 654,587 657,590 659,592 661,595 662,599 663,603"/>
<polygon class="pen1 brush3" points="216,265 208,278 202,292 197,306 193,321 191,336 191,351 191,366 194,381 198,396 203,411 209,424 217,437 226,449 236,460 247,470 260,479 260,479 267,482 275,482 282,480 288,474 291,466 291,458 288,451 282,446 282,446 273,439 265,432 257,423 250,414 245,405 240,395 236,384 233,373 231,351 233,328 239,307 250,287 250,287 253,280 254,272 251,265 245,259 237,256 229,256 222,259 216,265 216,265"/>
<polygon class="pen1 brush3" points="288,191 276,185 263,181 250,180 237,181 224,185 212,191 202,199 193,210 187,222 183,235 182,249 183,262 187,274 193,286 201,296 212,305 224,312 237,315 251,317 264,315 276,312 288,305 298,297 307,286 313,274 317,262 319,248 317,235 313,222 307,210 298,200 288,191"/>
<polygon class="pen1 brush0" points="273,264 270,268 266,271 261,274 256,275 251,276 245,275 240,274 235,271 227,264 223,254 223,243 227,233 231,229 235,225 240,223 245,221 250,221 256,221 261,223 266,225 270,229 273,233 276,238 277,243 278,248 277,254 276,259 273,264"/>
<polygon class="pen1 brush4" points="400,402 389,406 379,411 370,417 361,425 354,434 348,444 345,455 345,467 347,476 352,484 358,489 366,492 374,493 383,493 392,492 400,489 411,486 421,487 431,489 439,494 447,500 455,507 461,515 468,523 473,526 479,526 486,524 493,519 499,513 505,506 509,499 511,492 510,481 507,472 502,464 496,456 488,449 481,442 474,435 468,427 465,420 465,413 466,406 465,399 461,391 456,385 450,381 442,378 434,376 426,375 417,375 409,376 400,402"/>
<polygon class="pen1 brush5" points="578,353 570,359 562,367 553,376 546,386 541,396 539,406 540,415 547,424 554,427 560,429 568,430 576,430 584,436 590,445 596,454 604,461 608,463 613,465 617,466 621,466 625,465 629,464 632,462 635,458 638,441 637,425 635,408 638,393 642,385 648,376 655,366 661,356 662,349 660,344 656,339 651,336 645,333 639,331 633,329 627,328 621,328 615,328 610,328 604,328 598,328 592,328 586,328 581,328 579,329 578,330 578,332 578,334 578,353"/>
<polygon class="pen1 brush3" points="777,460 771,461 767,464 763,469 762,475 763,481 767,486 771,489 777,490 783,489 788,486 791,481 792,475 791,469 788,464 783,461 777,460"/>
<polygon class="pen1 brush3" points="904,517 911,517 917,516 924,514 930,512 937,509 942,506 948,502 953,497 961,487 967,475 971,464 972,451 971,438 967,426 961,414 953,404 948,399 942,395 937,392 930,389 924,387 917,385 911,384 904,384 890,385 877,389 866,395 856,404 847,414 841,425 837,437 836,451 837,464 841,475 847,487 855,497 860,502 865,506 871,509 877,512 884,514 890,516 897,517 904,517"/>
<polygon class="pen1 brush0" points="863,451 864,443 866,436 869,429 874,423 877,420 881,418 884,416 888,414 892,413 896,412 900,411 904,411 908,411 912,412 916,413 920,414 924,416 927,418 931,420 934,423 939,429 942,436 944,443 945,451 944,459 942,466 938,473 933,478 927,483 920,487 912,489 904,490 900,490 896,489 892,488 888,487 884,485 881,483 877,481 874,478 869,472 866,465 864,458 863,451"/>
<polygon class="pen1 brush3" points="904,436 898,437 894,440 890,445 889,451 890,457 894,461 898,465 904,466 910,465 915,461 918,457 919,451 918,445 915,440 910,437 904,436"/>
</g>
</svg>