<?xml version="1.0" encoding="utf-8"?>
<!DOCTYPE svg PUBLIC "-//W3C//DTD SVG 1.0//EN" "http://www.w3.org/TR/2001/REC-SVG-20010904/DTD/svg10.dtd">
<svg aria-labelledby="title desc" fill-rule="evenodd" height="1.994in" preserveAspectRatio="none" stroke-linecap="round" viewBox="0 0 1902 1994" width="1.902in" xmlns="http://www.w3.org/2000/svg" xmlns:xlink="http://www.w3.org/1999/xlink"><title>cameras,entertainment,films,leisure,movies,photography,rolls of film</title><desc>Original keywords: cameras,entertainment,films,leisure,movies,photography,rolls of film. This clipart was ripped from the Microsoft website, then uploaded to https://archive.org/details/MS_Clipart_Collection. (The original WMF file can be found within that item, under the folder MC900319320). From there, it was then converted by Trumad to svg using https://github.com/hidekatsu-izuno/wmf2svg in a bulk operation. All the converted files can be found at https://archive.org/details/MS_Clipart_Collection_SVG</desc>
<style type="text/css">
.brush0 { fill: rgb(255,255,255); }
.pen0 { stroke: rgb(0,0,0); stroke-width: 1; stroke-linejoin: round; }
.brush1 { fill: none; }
.pen1 { stroke: none; }
.brush2 { fill: rgb(63,255,255); }
</style>
<g>
<polygon class="pen1 brush2" points="1018,338 1019,337 1020,333 1023,328 1028,322 1035,317 1043,312 1054,309 1067,309 1047,411 1047,411 1048,413 1049,415 1052,418 1055,421 1060,426 1066,430 1074,435 1084,441 1095,447 1109,453 1125,459 1143,465 1164,471 1188,477 1215,483 1217,483 1221,484 1229,485 1239,487 1250,489 1264,490 1278,492 1293,493 1309,495 1324,495 1339,495 1353,494 1366,492 1378,489 1387,485 1394,480 1420,374 1422,375 1426,377 1432,381 1439,386 1446,392 1452,399 1455,407 1455,415 1438,499 1349,540 1363,545 1376,550 1390,555 1403,561 1416,567 1429,573 1442,579 1455,585 1492,398 1492,397 1490,395 1487,390 1483,385 1477,378 1470,371 1460,363 1449,353 1435,344 1418,334 1399,324 1377,314 1352,305 1323,296 1291,287 1256,279 1254,278 1246,277 1235,275 1221,272 1203,270 1184,267 1162,265 1140,264 1117,263 1094,263 1072,265 1051,268 1032,274 1015,281 1001,291 991,303 960,466 964,466 968,466 973,466 977,467 981,467 985,467 989,468 993,468 1018,338"/>
<polygon class="pen1 brush2" points="597,863 565,858 535,856 509,856 484,858 462,862 442,868 425,875 409,884 395,895 383,906 373,918 364,930 357,943 351,957 346,970 342,983 215,1621 214,1625 214,1636 216,1652 221,1672 232,1693 251,1714 280,1733 320,1748 1482,1974 1483,1974 1487,1975 1494,1976 1502,1977 1512,1978 1524,1980 1537,1982 1550,1983 1564,1985 1578,1986 1592,1987 1605,1988 1618,1989 1629,1989 1640,1989 1648,1988 1663,1984 1679,1977 1695,1968 1710,1956 1723,1942 1735,1926 1744,1908 1750,1888 1758,1846 1773,1770 1792,1673 1814,1566 1834,1462 1852,1373 1864,1311 1869,1287 1869,1285 1870,1281 1871,1273 1871,1264 1871,1252 1870,1239 1867,1224 1862,1208 1855,1192 1846,1176 1834,1159 1818,1143 1799,1127 1776,1113 1748,1099 1716,1088 1713,1087 1703,1085 1687,1082 1667,1078 1643,1073 1616,1068 1587,1062 1556,1056 1526,1050 1495,1044 1466,1038 1439,1033 1415,1028 1395,1024 1379,1021 1369,1019 1455,585 1442,579 1429,573 1416,567 1403,561 1390,555 1376,550 1363,545 1349,540 1338,546 1335,549 1327,557 1314,570 1296,586 1275,606 1250,629 1222,653 1192,678 1160,703 1127,728 1093,752 1058,775 1023,794 989,811 956,824 925,832 993,468 989,468 985,467 981,467 977,467 973,466 968,466 964,466 960,466 870,919 867,918 858,917 845,914 828,910 808,906 785,902 761,897 735,891 710,886 686,881 663,876 642,872 624,869 610,866 601,864 597,863"/>
<polygon class="pen1 brush0" points="1455,415 1455,407 1452,399 1446,392 1439,386 1432,381 1426,377 1422,375 1420,374 1394,480 1387,485 1378,489 1366,492 1353,494 1339,495 1324,495 1309,495 1293,493 1278,492 1264,490 1250,489 1239,487 1229,485 1221,484 1217,483 1215,483 1188,477 1164,471 1143,465 1125,459 1109,453 1095,447 1084,441 1074,435 1066,430 1060,426 1055,421 1052,418 1049,415 1048,413 1047,411 1047,411 1067,309 1054,309 1043,312 1035,317 1028,322 1023,328 1020,333 1019,337 1018,338 993,468 1017,470 1040,471 1063,474 1086,477 1109,480 1132,483 1155,487 1177,492 1199,496 1221,501 1243,507 1265,513 1286,519 1307,526 1328,533 1349,540 1438,499 1455,415"/>
<polygon class="pen1 brush0" points="925,832 956,824 989,811 1023,794 1058,775 1093,752 1127,728 1160,703 1192,678 1222,653 1250,629 1275,606 1296,586 1314,570 1327,557 1335,549 1338,546 1349,540 1328,533 1307,526 1286,519 1265,513 1243,507 1221,501 1199,496 1177,492 1155,487 1132,483 1109,480 1086,477 1063,474 1040,471 1017,470 993,468 925,832"/>
<polygon class="pen1 brush2" points="128,737 105,701 420,502 450,549 461,545 473,541 484,537 496,533 507,529 519,525 530,521 542,518 478,416 438,441 395,374 372,388 288,256 120,362 121,366 125,379 128,397 129,419 127,445 120,471 105,497 82,521 69,533 58,545 49,556 42,568 37,578 32,589 29,598 27,606 0,624 53,708 2,740 48,811 57,802 67,792 77,783 87,774 97,764 107,755 118,746 128,737"/>
<polygon class="pen1 brush2" points="117,809 170,893 565,643 523,576 563,550 542,518 530,521 519,525 507,529 496,533 484,537 473,541 461,545 450,549 463,569 147,769 128,737 118,746 107,755 97,764 87,774 77,783 67,792 57,802 48,811 66,841 117,809"/>
<polygon class="pen1 brush0" points="105,701 128,737 146,723 164,709 182,695 201,682 220,669 239,656 259,644 279,632 299,620 320,609 341,598 362,587 384,577 406,567 428,558 450,549 420,502 105,701"/>
<polygon class="pen1 brush0" points="147,769 463,569 450,549 428,558 406,567 384,577 362,587 341,598 320,609 299,620 279,632 259,644 239,656 220,669 201,682 182,695 164,709 146,723 128,737 147,769"/>
<polygon class="pen1 brush0" points="932,1841 1094,1868 1095,1868 1100,1869 1106,1870 1115,1871 1125,1871 1137,1871 1149,1871 1163,1869 1177,1867 1190,1863 1204,1858 1217,1850 1229,1841 1240,1830 1250,1816 1257,1799 1276,1745 1295,1695 1312,1651 1326,1613 1339,1582 1348,1559 1354,1545 1356,1540 1357,1539 1358,1535 1361,1530 1366,1524 1372,1516 1379,1507 1388,1498 1399,1489 1412,1481 1426,1472 1443,1465 1462,1459 1483,1455 1507,1453 1532,1453 1561,1456 1563,1456 1569,1458 1578,1460 1591,1462 1605,1465 1622,1467 1640,1470 1659,1473 1679,1475 1699,1477 1718,1478 1737,1478 1754,1478 1770,1476 1783,1473 1794,1468 1828,1303 1829,1299 1829,1287 1829,1269 1826,1247 1819,1223 1807,1198 1788,1173 1762,1150 1748,1142 1729,1134 1706,1127 1679,1119 1650,1111 1619,1104 1587,1097 1556,1091 1524,1085 1495,1079 1467,1074 1443,1070 1423,1067 1407,1064 1397,1063 1394,1062 1369,1187 1337,1181 1342,1153 1340,1152 1333,1150 1322,1146 1307,1141 1287,1135 1264,1128 1237,1121 1207,1113 1173,1105 1136,1096 1096,1088 1053,1079 1007,1071 958,1064 907,1057 853,1051 843,1078 815,1072 840,947 838,947 834,946 827,945 818,943 806,941 794,939 779,936 764,934 748,931 732,928 716,925 700,922 685,919 670,917 657,914 645,912 628,909 612,906 597,904 583,902 569,900 557,898 545,897 534,897 523,896 513,897 503,897 493,899 483,900 473,903 463,906 453,909 426,923 405,944 388,970 375,997 366,1025 360,1051 356,1072 355,1087 355,1087 354,1088 354,1090 354,1093 355,1096 358,1100 362,1104 368,1109 377,1114 388,1120 403,1126 421,1132 444,1139 470,1146 502,1153 538,1161 569,1169 594,1180 616,1194 634,1211 648,1230 658,1251 666,1275 672,1300 676,1326 677,1354 678,1383 678,1414 677,1444 675,1476 674,1507 674,1539 673,1581 672,1623 673,1663 677,1701 686,1735 701,1763 726,1786 761,1802 932,1841"/>
<polygon class="pen1 brush2" points="1259,1454 1259,1453 1257,1450 1254,1446 1250,1440 1245,1432 1238,1424 1229,1415 1218,1405 1206,1396 1191,1385 1174,1375 1155,1365 1133,1356 1108,1347 1081,1340 1051,1333 1049,1333 1043,1331 1033,1330 1021,1328 1006,1326 989,1324 970,1323 951,1322 930,1323 910,1325 889,1328 870,1333 851,1340 834,1349 819,1361 807,1376 762,1599 762,1600 762,1604 763,1609 764,1616 766,1624 771,1634 777,1645 785,1656 796,1668 810,1680 827,1692 848,1704 873,1716 902,1727 936,1737 975,1746 977,1746 982,1747 991,1749 1002,1750 1016,1751 1032,1752 1049,1753 1068,1752 1087,1751 1106,1748 1126,1744 1145,1739 1164,1731 1181,1722 1197,1710 1211,1695 1259,1454"/>
<polygon class="pen1 brush0" points="1221,1470 1221,1469 1220,1467 1218,1463 1216,1458 1212,1453 1207,1446 1200,1438 1192,1430 1182,1422 1169,1414 1155,1405 1138,1397 1119,1388 1097,1381 1072,1373 1044,1367 1042,1367 1036,1366 1028,1364 1016,1362 1003,1360 987,1359 970,1358 953,1357 935,1358 917,1359 899,1362 883,1366 868,1372 855,1380 844,1390 836,1403 799,1588 799,1589 798,1592 798,1596 798,1601 799,1608 802,1616 806,1624 812,1634 821,1644 832,1654 847,1664 865,1674 888,1684 914,1694 946,1703 982,1711 984,1711 989,1712 997,1713 1007,1715 1020,1716 1034,1717 1049,1717 1066,1717 1082,1716 1099,1714 1116,1711 1132,1706 1147,1700 1161,1692 1173,1682 1182,1669 1221,1470"/>
<polygon class="pen1 brush2" points="971,1449 969,1450 964,1451 958,1455 949,1460 941,1468 933,1478 926,1490 921,1506 920,1509 918,1516 917,1528 916,1542 918,1557 924,1573 934,1589 950,1603 1037,1621 1039,1621 1045,1621 1054,1621 1064,1617 1075,1611 1086,1600 1095,1584 1102,1562 1103,1559 1104,1551 1105,1539 1105,1524 1103,1509 1097,1494 1087,1480 1072,1469 971,1449"/>
<polygon class="pen1 brush0" points="269,1641 625,1712 624,1717 623,1729 626,1747 638,1768 634,1767 622,1765 603,1761 579,1757 550,1751 518,1744 484,1736 449,1727 414,1718 380,1708 349,1697 322,1686 299,1675 281,1664 271,1652 269,1641"/>
<polygon class="pen1 brush0" points="1289,1854 1288,1855 1285,1859 1281,1865 1275,1872 1268,1880 1260,1887 1251,1893 1242,1898 1246,1899 1256,1902 1273,1905 1294,1910 1320,1916 1350,1922 1382,1928 1417,1933 1452,1938 1488,1942 1523,1945 1557,1947 1589,1946 1618,1943 1643,1937 1664,1929 1289,1854"/>
<polygon class="pen1 brush0" points="1181,1068 1191,1017 1034,986 1023,1037 1181,1068"/>
<polygon class="pen1 brush0" points="1325,1097 1335,1046 1265,1032 1255,1083 1325,1097"/>
<polygon class="pen1 brush0" points="946,1021 956,970 886,956 876,1007 946,1021"/>
<polygon class="pen1 brush0" points="900,911 906,883 1340,970 1335,997 900,911"/>
<polygon class="pen1 brush0" points="1327,452 1347,355 1152,316 1133,413 1327,452"/>
<polygon class="pen1 brush2" points="1315,392 1319,373 1180,346 1176,364 1315,392"/>
<polygon class="pen1 brush2" points="1308,429 1311,415 1172,387 1169,401 1308,429"/>
<polygon class="pen1 brush2" points="1400,1299 1409,1300 1418,1299 1427,1296 1435,1292 1442,1286 1448,1279 1452,1271 1455,1262 1456,1253 1455,1244 1452,1235 1448,1227 1442,1220 1435,1214 1427,1210 1418,1207 1409,1206 1400,1207 1391,1210 1383,1214 1376,1220 1370,1227 1366,1235 1363,1244 1362,1253 1363,1262 1366,1271 1370,1279 1376,1286 1383,1292 1391,1296 1400,1299"/>
<polygon class="pen1 brush2" points="1534,1411 1540,1412 1546,1411 1551,1409 1556,1406 1561,1403 1565,1398 1567,1393 1569,1387 1569,1375 1565,1365 1557,1356 1546,1352 1540,1351 1534,1352 1528,1354 1523,1356 1518,1360 1515,1365 1512,1370 1510,1376 1510,1388 1515,1398 1523,1407 1534,1411"/>
<polygon class="pen1 brush2" points="1427,1381 1435,1339 1352,1323 1343,1364 1427,1381"/>
<polygon class="pen1 brush0" points="986,1540 994,1540 1001,1537 1006,1531 1009,1524 1009,1516 1007,1509 1001,1503 994,1500 986,1500 980,1503 974,1509 971,1516 971,1524 974,1531 979,1537 986,1540"/>
<polygon class="pen1 brush2" points="850,1262 870,1160 1277,1241 1256,1342 850,1262"/>
<polygon class="pen1 brush0" points="927,1250 935,1251 944,1251 951,1251 958,1250 964,1248 968,1245 971,1242 973,1238 973,1234 971,1230 968,1226 963,1222 958,1218 951,1215 943,1212 935,1210 926,1209 918,1209 910,1209 903,1210 897,1212 893,1214 890,1217 888,1221 888,1225 890,1229 893,1234 898,1238 904,1242 911,1245 918,1248 927,1250"/>
<polygon class="pen1 brush0" points="1237,1296 1244,1259 1045,1219 1038,1256 1237,1296"/>
<polygon class="pen1 brush2" points="452,1013 457,1013 462,1013 467,1011 472,1008 476,1005 479,1001 481,997 483,992 483,981 479,971 472,964 462,960 456,959 451,960 446,962 442,964 438,967 435,971 432,976 431,981 431,992 435,1001 442,1009 452,1013"/>
<polygon class="pen1 brush2" points="785,1032 790,1005 522,951 516,979 785,1032"/>
<polygon class="pen1 brush2" points="1690,1217 1696,1190 1427,1136 1422,1164 1690,1217"/>
<polygon class="pen1 brush0" points="1675,1873 1741,1544 1685,1533 1620,1862 1675,1873"/>
<polygon class="pen1 brush2" points="583,931 595,933 606,934 616,934 626,932 634,930 640,927 644,923 646,918 646,913 643,907 639,902 633,897 625,892 615,888 605,885 593,882 581,880 570,879 560,879 551,881 543,883 537,886 532,890 530,895 530,900 533,906 537,911 543,916 551,921 561,925 571,928 583,931"/>
<polygon class="pen1 brush0" points="383,443 68,643 85,670 400,471 383,443"/>
<polygon class="pen1 brush2" points="481,449 454,466 464,483 492,466 481,449"/>
<polygon class="pen1 brush2" points="56,735 28,753 39,770 66,752 56,735"/>
<polygon class="pen1 brush0" points="281,287 258,301 273,324 296,310 281,287"/>
<polygon class="pen1 brush0" points="309,331 286,346 301,369 324,354 309,331"/>
<polygon class="pen1 brush0" points="337,375 314,390 329,413 352,398 337,375"/>
<polygon class="pen1 brush2" points="1098,188 879,0 939,167 558,54 845,274 598,335 919,368 920,364 922,352 926,335 931,314 937,293 944,272 951,254 959,241 978,222 1000,208 1023,198 1046,192 1066,189 1083,188 1094,188 1098,188"/>
</g>
</svg>