<?xml version="1.0" encoding="utf-8"?>
<!DOCTYPE svg PUBLIC "-//W3C//DTD SVG 1.0//EN" "http://www.w3.org/TR/2001/REC-SVG-20010904/DTD/svg10.dtd">
<svg aria-labelledby="title desc" fill-rule="evenodd" height="1.636in" preserveAspectRatio="none" stroke-linecap="round" viewBox="0 0 1983 1636" width="1.983in" xmlns="http://www.w3.org/2000/svg" xmlns:xlink="http://www.w3.org/1999/xlink"><title>cameras,households,Photographs,photography</title><desc>Original keywords: cameras,households,Photographs,photography. This clipart was ripped from the Microsoft website, then uploaded to https://archive.org/details/MS_Clipart_Collection. (The original WMF file can be found within that item, under the folder MC900089800). From there, it was then converted by Trumad to svg using https://github.com/hidekatsu-izuno/wmf2svg in a bulk operation. All the converted files can be found at https://archive.org/details/MS_Clipart_Collection_SVG</desc>
<style type="text/css">
.brush0 { fill: rgb(255,255,255); }
.pen0 { stroke: rgb(0,0,0); stroke-width: 1; stroke-linejoin: round; }
.brush1 { fill: none; }
.pen1 { stroke: none; }
.brush2 { fill: rgb(5,81,201); }
.brush3 { fill: rgb(25,211,255); }
.brush4 { fill: rgb(0,181,255); }
.brush5 { fill: rgb(209,209,209); }
.brush6 { fill: rgb(84,140,158); }
.brush7 { fill: rgb(94,145,232); }
.brush8 { fill: rgb(51,51,51); }
.brush9 { fill: rgb(0,35,122); }
.brush10 { fill: rgb(206,206,206); }
.brush11 { fill: rgb(178,178,178); }
.brush12 { fill: rgb(76,76,76); }
.brush13 { fill: rgb(91,91,91); }
.brush14 { fill: rgb(119,119,119); }
.brush15 { fill: rgb(81,158,216); }
.brush16 { fill: rgb(163,196,234); }
.brush17 { fill: rgb(206,224,244); }
.brush18 { fill: rgb(22,58,175); }
.brush19 { fill: rgb(0,0,147); }
.brush20 { fill: rgb(0,58,132); }
.brush21 { fill: rgb(0,107,163); }
.brush22 { fill: rgb(0,86,178); }
.brush23 { fill: rgb(0,48,112); }
.brush24 { fill: rgb(0,2,81); }
.brush25 { fill: rgb(0,76,178); }
.brush26 { fill: rgb(0,104,150); }
</style>
<g>
<polygon class="pen1 brush2" points="992,172 941,173 891,176 841,180 792,187 744,195 697,205 651,217 606,230 562,244 520,261 478,278 438,297 399,318 361,340 325,363 291,387 258,412 227,439 197,467 170,495 144,525 120,556 98,587 78,620 60,653 45,687 31,721 20,757 11,793 5,829 1,866 0,904 1,933 3,963 7,992 12,1020 19,1049 28,1077 38,1105 49,1133 62,1160 77,1187 92,1213 110,1239 128,1265 149,1290 170,1314 193,1338 211,1355 229,1372 248,1388 268,1404 288,1420 309,1435 331,1449 353,1463 375,1477 398,1490 421,1502 445,1514 469,1526 494,1536 519,1547 545,1557 571,1566 597,1575 624,1583 651,1591 678,1598 705,1604 733,1610 761,1616 789,1620 818,1624 846,1628 875,1631 904,1633 933,1635 963,1636 992,1636 1021,1636 1050,1635 1080,1633 1108,1631 1137,1628 1166,1624 1194,1620 1222,1616 1250,1610 1278,1604 1306,1598 1333,1591 1360,1583 1386,1575 1412,1566 1438,1557 1464,1547 1489,1536 1514,1526 1538,1514 1562,1502 1585,1490 1608,1477 1630,1463 1652,1449 1674,1435 1695,1420 1715,1404 1735,1388 1754,1372 1772,1355 1790,1338 1813,1314 1834,1290 1855,1265 1873,1239 1891,1213 1906,1187 1921,1160 1934,1133 1945,1105 1955,1077 1964,1049 1971,1020 1976,992 1980,963 1982,933 1983,904 1982,874 1980,845 1976,816 1971,787 1964,759 1955,730 1945,703 1934,675 1921,648 1906,621 1891,595 1873,569 1855,543 1834,518 1813,494 1790,470 1772,453 1754,436 1735,419 1715,404 1695,388 1674,373 1652,359 1630,345 1608,331 1585,318 1562,306 1538,294 1514,282 1489,271 1464,261 1438,251 1412,242 1386,233 1360,225 1333,217 1306,210 1278,203 1250,198 1222,192 1194,188 1166,183 1137,180 1108,177 1080,175 1050,173 1021,172 992,172"/>
<polygon class="pen1 brush0" points="1760,499 1743,482 1725,466 1707,451 1688,435 1669,421 1649,406 1628,392 1607,379 1586,366 1564,354 1541,342 1518,330 1495,319 1471,309 1447,299 1423,289 1398,280 1372,272 1347,264 1321,257 1295,250 1268,244 1241,238 1214,233 1187,229 1160,225 1132,222 1104,219 1076,217 1048,215 1020,214 992,214 964,214 935,215 907,217 879,219 851,222 824,225 796,229 769,233 742,238 715,244 689,250 662,257 637,264 611,272 586,280 561,289 536,299 512,309 488,319 465,330 442,342 419,354 397,366 376,379 355,392 334,406 314,421 295,435 276,451 258,466 240,482 223,499 201,522 181,545 162,568 145,592 128,616 113,641 100,666 88,691 77,717 68,743 60,769 54,796 49,823 45,850 43,877 42,904 1941,904 1940,877 1938,850 1934,823 1929,796 1923,769 1915,743 1906,717 1895,691 1883,666 1870,641 1855,616 1838,592 1821,568 1802,545 1782,522 1760,499"/>
<polygon class="pen1 brush0" points="992,238 945,239 898,241 852,246 807,252 763,259 719,268 676,279 635,290 594,304 554,319 516,335 478,352 442,371 408,390 374,411 342,433 312,457 283,481 256,506 230,532 206,559 184,587 164,616 145,645 129,675 114,706 102,738 92,770 84,803 78,836 74,870 73,904 74,930 76,957 79,983 84,1008 90,1034 98,1059 107,1084 117,1109 129,1134 142,1158 156,1181 172,1205 189,1228 207,1250 226,1272 247,1294 264,1310 281,1325 298,1341 317,1355 335,1369 355,1383 375,1397 395,1410 416,1422 437,1434 459,1446 481,1457 504,1467 527,1477 550,1487 574,1496 598,1505 623,1513 648,1520 673,1527 698,1534 724,1540 750,1545 776,1550 802,1555 829,1558 856,1562 883,1564 910,1566 937,1568 964,1569 992,1569 1019,1569 1047,1568 1074,1566 1101,1564 1128,1562 1155,1558 1181,1555 1208,1550 1234,1545 1260,1540 1285,1534 1310,1527 1336,1520 1360,1513 1385,1505 1409,1496 1433,1487 1456,1477 1479,1467 1502,1457 1524,1446 1545,1434 1567,1422 1588,1410 1608,1397 1628,1383 1647,1369 1666,1355 1684,1341 1702,1325 1719,1310 1735,1294 1756,1272 1775,1250 1793,1228 1810,1205 1826,1181 1840,1158 1854,1134 1865,1109 1876,1084 1885,1059 1892,1034 1899,1008 1904,983 1907,957 1909,930 1910,904 1909,878 1907,851 1904,825 1899,800 1892,774 1885,749 1876,724 1865,699 1854,674 1840,650 1826,627 1810,603 1793,580 1775,558 1756,536 1735,514 1719,498 1702,482 1684,467 1666,452 1647,438 1628,424 1608,411 1588,398 1567,385 1545,373 1524,362 1502,351 1479,340 1456,330 1433,320 1409,311 1385,302 1360,294 1336,287 1310,280 1285,273 1260,267 1234,262 1208,257 1181,252 1155,249 1128,245 1101,243 1074,241 1047,239 1019,238 992,238"/>
<polygon class="pen1 brush2" points="257,1284 273,1300 290,1315 308,1330 325,1344 344,1359 363,1372 383,1385 403,1398 423,1410 444,1422 466,1434 488,1444 510,1455 533,1465 556,1474 580,1483 603,1492 628,1500 652,1507 677,1514 702,1520 727,1526 753,1532 779,1537 805,1541 831,1545 858,1548 884,1550 911,1552 938,1554 965,1555 992,1555 1038,1554 1084,1552 1129,1547 1174,1542 1218,1534 1260,1526 1302,1515 1343,1504 1383,1491 1422,1476 1460,1461 1497,1444 1532,1426 1567,1406 1599,1386 1631,1364 1661,1342 1689,1318 1716,1293 1741,1268 1765,1241 1787,1214 1807,1186 1825,1157 1841,1128 1855,1097 1867,1067 1878,1035 1886,1003 1891,970 1895,937 1896,904 87,904 88,930 90,955 93,980 98,1006 104,1030 112,1055 120,1080 130,1104 142,1128 154,1151 168,1174 184,1197 200,1219 218,1241 237,1263 257,1284"/>
<polygon class="pen1 brush2" points="1735,514 1719,498 1702,482 1684,467 1666,452 1647,438 1628,424 1608,411 1588,398 1567,385 1545,373 1524,362 1502,351 1479,340 1456,330 1433,320 1409,311 1385,302 1360,294 1336,287 1310,280 1285,273 1260,267 1234,262 1208,257 1181,252 1155,249 1128,245 1101,243 1074,241 1047,239 1019,238 992,238 945,239 898,241 852,246 807,252 763,259 719,268 676,279 635,290 594,304 554,319 516,335 478,352 442,371 408,390 374,411 342,433 312,457 283,481 256,506 230,532 206,559 184,587 164,616 145,645 129,675 114,706 102,738 92,770 84,803 78,836 74,870 73,904 1910,904 1909,878 1907,851 1904,825 1899,800 1892,774 1885,749 1876,724 1865,699 1854,674 1840,650 1826,627 1810,603 1793,580 1775,558 1756,536 1735,514"/>
<polygon class="pen1 brush0" points="992,264 947,265 902,267 857,271 814,277 771,284 729,293 688,303 648,314 609,327 570,341 533,357 498,373 463,391 429,410 397,430 367,452 337,474 309,497 283,521 258,546 235,572 214,599 194,627 177,655 161,684 147,714 135,744 125,775 117,807 112,839 108,871 107,904 108,929 110,954 113,979 118,1004 124,1029 131,1053 140,1077 150,1101 161,1124 173,1147 187,1170 202,1193 218,1215 236,1236 254,1257 274,1278 290,1293 306,1309 323,1323 341,1337 359,1351 378,1365 397,1378 416,1390 437,1402 457,1414 478,1425 500,1436 521,1446 544,1456 566,1465 589,1474 612,1482 636,1490 660,1497 684,1504 709,1510 734,1516 759,1521 784,1526 809,1530 835,1534 861,1537 887,1539 913,1541 939,1543 966,1544 992,1544 1018,1544 1045,1543 1071,1541 1097,1539 1123,1537 1149,1534 1174,1530 1200,1526 1225,1521 1250,1516 1275,1510 1299,1504 1323,1497 1347,1490 1371,1482 1394,1474 1417,1465 1440,1456 1462,1446 1484,1436 1505,1425 1526,1414 1546,1402 1567,1390 1586,1378 1605,1365 1624,1351 1642,1337 1660,1323 1677,1309 1693,1293 1709,1278 1729,1257 1747,1236 1765,1215 1781,1193 1796,1170 1810,1147 1822,1124 1833,1101 1843,1077 1852,1053 1859,1029 1865,1004 1870,979 1873,954 1875,929 1876,904 1875,879 1873,854 1870,829 1865,804 1859,779 1852,755 1843,731 1833,707 1822,684 1810,660 1796,638 1781,615 1765,593 1747,571 1729,550 1709,529 1693,514 1677,499 1660,484 1642,470 1624,456 1605,443 1586,430 1567,418 1546,406 1526,394 1505,383 1484,372 1462,362 1440,352 1417,343 1394,334 1371,326 1347,318 1323,311 1299,304 1275,298 1250,292 1225,287 1200,282 1174,278 1149,274 1123,271 1097,269 1071,267 1045,265 1018,264 992,264"/>
<polygon class="pen1 brush3" points="1852,904 1851,936 1848,967 1842,998 1834,1028 1825,1058 1813,1087 1800,1115 1784,1143 1767,1171 1748,1197 1727,1223 1705,1248 1681,1272 1655,1295 1628,1318 1600,1339 1570,1360 1539,1379 1506,1397 1472,1414 1438,1431 1401,1445 1364,1459 1326,1471 1287,1482 1247,1492 1207,1501 1165,1507 1123,1513 1080,1517 1036,1519 992,1520 966,1520 940,1519 915,1517 889,1516 864,1513 838,1510 813,1507 788,1502 764,1498 739,1493 715,1487 691,1481 668,1474 644,1467 621,1460 598,1452 576,1443 554,1434 532,1425 511,1415 490,1404 470,1394 450,1382 430,1371 411,1359 392,1346 374,1333 356,1320 339,1306 323,1292 306,1277 291,1262 272,1242 254,1222 237,1201 222,1180 207,1158 194,1137 182,1114 171,1092 162,1069 153,1046 146,1023 140,1000 136,976 133,952 131,928 130,904 131,880 133,856 136,832 140,808 146,785 153,762 162,739 171,716 182,694 194,671 207,650 222,628 237,607 254,586 272,566 291,546 306,531 323,516 339,502 356,488 374,475 392,462 411,449 430,437 450,426 470,414 490,404 511,393 532,383 554,374 576,365 598,356 621,348 644,341 668,334 691,327 715,321 739,315 764,310 788,306 813,301 838,298 864,295 889,292 915,291 940,289 966,288 992,288 1018,288 1044,289 1069,291 1095,292 1120,295 1145,298 1170,301 1195,306 1220,310 1244,315 1268,321 1292,327 1316,334 1339,341 1362,348 1385,356 1407,365 1429,374 1451,383 1472,393 1493,404 1513,414 1533,426 1553,437 1572,449 1591,462 1609,475 1627,488 1644,502 1660,516 1677,531 1692,546 1711,566 1729,586 1746,607 1761,628 1776,650 1789,671 1801,694 1811,716 1821,739 1829,762 1836,785 1842,808 1846,832 1849,856 1851,880 1852,904"/>
<polygon class="pen1 brush4" points="1771,788 1441,734 1401,726 1364,717 1328,706 1294,695 1263,682 1234,669 1208,656 1184,643 1162,631 1143,619 1127,608 1113,599 1103,591 1095,585 1091,581 1089,580 1087,581 1080,585 1069,590 1055,597 1038,605 1020,614 1000,624 980,634 959,644 939,654 921,663 904,671 890,678 879,683 872,687 870,688 761,602 758,604 749,610 735,620 717,632 695,647 669,664 641,682 611,700 579,719 546,738 513,756 481,772 449,786 419,798 391,807 366,813 343,816 322,819 303,821 286,823 271,825 257,827 245,828 234,829 225,829 217,830 211,830 206,831 202,831 199,831 198,831 197,831 199,833 206,839 216,849 230,862 246,877 264,894 283,912 304,931 215,954 216,955 218,958 223,963 230,971 239,983 252,999 268,1020 287,1045 302,1062 322,1084 348,1111 377,1140 410,1171 445,1205 481,1238 517,1272 553,1305 587,1336 618,1365 646,1390 669,1411 687,1427 698,1437 702,1441 704,1441 711,1441 722,1440 737,1440 755,1439 778,1437 803,1435 832,1432 864,1428 898,1423 935,1418 974,1411 1015,1403 1059,1394 1104,1383 1150,1371 1197,1357 1242,1341 1285,1324 1325,1305 1364,1286 1400,1267 1433,1247 1463,1228 1491,1210 1515,1193 1536,1177 1554,1164 1568,1153 1578,1144 1584,1139 1586,1137 1583,1137 1577,1136 1566,1135 1554,1133 1539,1131 1525,1128 1511,1125 1498,1122 1487,1118 1473,1113 1458,1107 1443,1100 1427,1093 1413,1086 1401,1080 1391,1075 1402,1068 1412,1062 1421,1055 1429,1050 1436,1045 1441,1041 1445,1039 1446,1038 1375,1017 1771,788"/>
<polygon class="pen1 brush5" points="1813,720 1484,666 1444,658 1406,649 1371,638 1337,627 1306,614 1277,601 1250,588 1226,575 1205,563 1186,551 1170,540 1156,531 1146,523 1138,517 1134,513 1132,512 1130,513 1123,517 1112,522 1098,529 1081,537 1063,546 1043,556 1023,566 1002,576 982,586 964,595 947,603 933,610 922,615 915,619 913,620 804,535 801,537 792,543 778,553 760,565 738,580 712,597 684,615 654,633 622,652 589,671 556,688 524,705 492,719 462,731 434,740 409,745 386,748 365,751 346,753 329,755 314,757 300,759 288,760 277,761 268,761 260,762 254,762 249,763 245,763 242,763 241,763 240,763 242,765 249,771 259,781 272,794 288,809 306,826 326,845 347,864 257,887 258,888 260,891 265,896 272,904 282,916 295,932 310,952 330,977 345,994 365,1016 391,1043 420,1072 453,1103 488,1137 524,1170 560,1204 596,1237 630,1268 661,1297 689,1322 712,1343 730,1359 741,1369 745,1373 747,1373 754,1373 765,1372 780,1372 798,1371 820,1369 846,1367 875,1364 906,1360 941,1356 977,1350 1017,1343 1058,1336 1101,1326 1146,1316 1193,1304 1240,1290 1284,1274 1327,1256 1368,1238 1406,1218 1442,1199 1475,1179 1505,1160 1533,1142 1557,1125 1578,1109 1596,1096 1610,1085 1620,1076 1626,1071 1628,1069 1626,1069 1619,1068 1609,1067 1596,1065 1582,1063 1567,1060 1553,1057 1540,1054 1529,1050 1516,1045 1501,1039 1486,1032 1470,1025 1456,1018 1444,1012 1434,1007 1445,1000 1455,994 1464,987 1472,982 1479,977 1484,973 1488,971 1489,970 1418,949 1813,720"/>
<polygon class="pen1 brush6" points="1536,1067 1544,1069 1552,1071 1560,1073 1568,1075 1576,1076 1583,1078 1590,1079 1596,1080 1587,1087 1575,1096 1561,1107 1545,1119 1526,1132 1505,1146 1482,1161 1457,1176 1429,1191 1400,1207 1369,1222 1337,1237 1302,1252 1266,1266 1228,1278 1189,1290 1146,1301 1104,1311 1064,1320 1025,1328 989,1334 954,1340 921,1345 891,1348 863,1352 838,1354 816,1356 796,1357 779,1358 766,1359 756,1359 750,1359 742,1351 727,1338 707,1320 683,1298 655,1273 624,1245 591,1214 557,1183 522,1151 488,1119 456,1087 425,1058 398,1030 374,1006 355,985 341,969 329,954 319,940 310,929 302,919 296,911 291,905 286,899 283,895 359,875 372,886 385,898 398,910 412,923 427,935 441,948 456,961 472,974 487,988 503,1001 519,1014 535,1028 551,1041 567,1054 584,1067 600,1080 631,1104 659,1125 686,1144 710,1161 732,1176 752,1189 770,1200 786,1209 800,1217 812,1224 823,1229 831,1233 838,1235 842,1237 846,1239 847,1239 849,1239 851,1239 855,1238 864,1236 878,1233 897,1228 920,1223 947,1216 976,1209 1008,1200 1041,1191 1075,1181 1109,1170 1144,1158 1178,1145 1210,1132 1241,1118 1269,1104 1293,1090 1316,1078 1337,1065 1356,1054 1374,1043 1391,1033 1406,1024 1420,1016 1425,1018 1435,1024 1450,1031 1468,1039 1486,1047 1505,1056 1522,1062 1536,1067"/>
<polygon class="pen1 brush7" points="1203,1058 1196,1058 1185,1057 1170,1055 1151,1054 1129,1051 1104,1048 1077,1044 1048,1039 1017,1034 986,1028 954,1020 922,1012 890,1002 859,992 830,980 802,967 779,955 757,942 736,929 717,916 699,903 682,890 667,878 653,866 641,854 629,843 619,833 610,823 603,815 596,807 591,801 587,796 1130,528 1135,532 1143,538 1153,546 1166,555 1181,564 1198,575 1217,586 1238,598 1262,610 1287,622 1315,633 1344,644 1376,655 1409,664 1445,673 1482,680 1773,728 1203,1058"/>
<polygon class="pen1 brush8" points="735,927 743,932 750,937 758,942 767,947 775,952 784,957 793,962 802,967 830,980 859,992 890,1002 922,1012 954,1020 986,1028 1017,1034 1048,1039 1077,1044 1104,1048 1129,1051 1151,1054 1170,1055 1185,1057 1196,1058 1203,1058 1284,1011 1283,1010 1283,1009 1282,1009 1281,1008 1281,1003 1283,999 1287,996 1291,994 1298,990 1306,986 1314,981 1320,975 1326,969 1329,963 1330,955 1328,947 1323,944 1316,944 1309,945 1305,945 1304,931 1309,918 1316,903 1321,888 1306,890 1293,894 1279,900 1266,907 1254,915 1241,923 1228,930 1214,936 1214,933 1214,930 1214,928 1214,927 1200,926 1186,926 1172,926 1159,926 1145,926 1131,927 1117,927 1103,927 1109,921 1117,919 1125,916 1131,911 1137,897 1138,881 1133,867 1122,858 1132,846 1143,834 1154,824 1166,815 1178,805 1190,796 1202,786 1214,775 1220,770 1225,765 1229,759 1231,752 1217,752 1204,753 1190,755 1176,757 1162,761 1148,765 1135,771 1123,777 1111,784 1100,793 1089,802 1080,811 1072,822 1065,834 1059,847 1055,860 1046,859 1037,859 1029,859 1020,860 1012,861 1004,863 996,865 988,867 985,862 981,858 977,854 972,851 966,850 960,849 954,850 949,853 944,857 940,862 937,868 934,873 930,878 927,883 922,887 917,890 914,890 911,891 907,891 905,890 899,886 893,883 886,880 880,876 874,873 868,870 862,867 857,863 861,859 866,856 872,854 878,852 883,851 888,849 892,846 894,842 890,835 881,829 875,821 877,812 882,808 888,806 894,804 901,803 907,802 913,801 919,799 924,796 939,787 954,777 968,767 981,755 992,743 1002,729 1008,713 1011,696 1004,696 997,695 991,695 984,694 977,693 970,693 963,693 956,694 949,696 942,699 936,704 930,709 924,714 919,720 913,726 907,731 903,733 899,735 894,737 889,740 883,745 879,751 876,757 875,765 868,765 861,764 853,764 846,763 838,763 831,764 825,765 819,768 811,774 803,781 795,788 787,796 779,802 770,807 761,809 750,809 745,799 739,793 731,789 722,788 712,790 703,792 693,796 685,800 681,792 675,787 666,785 657,786 650,789 643,792 636,795 629,798 623,802 616,807 610,812 604,817 608,822 613,827 618,832 623,837 629,843 635,849 641,855 648,861 655,861 661,861 668,862 674,863 680,865 686,867 692,870 697,874 705,872 712,869 718,865 725,862 731,858 738,855 745,852 752,851 758,851 764,852 769,854 774,856 779,858 784,861 789,863 794,865 789,875 782,883 775,891 767,899 759,906 751,913 742,920 735,927"/>
<polygon class="pen1 brush9" points="405,865 413,860 422,857 431,857 441,858 451,860 461,863 472,866 482,867 489,869 496,871 502,873 509,875 516,878 523,881 529,883 536,886 531,879 528,874 526,871 525,870 547,861 543,846 536,832 528,819 519,807 523,805 527,804 531,803 535,804 539,804 542,805 547,806 551,807 558,809 565,811 570,815 576,820 581,825 586,831 591,837 596,842 606,838 606,838 606,838 606,838 606,838 597,828 589,819 582,811 576,804 572,798 569,794 567,792 566,791 899,627 896,627 803,552 794,558 781,567 764,579 744,592 721,607 695,624 668,641 639,658 609,675 579,692 549,708 519,722 489,735 461,745 435,753 411,758 383,762 358,766 337,768 319,771 304,773 291,774 281,775 273,776 278,781 284,786 290,792 298,799 306,807 314,815 324,824 334,833 345,843 356,854 368,865 380,876 393,887 406,899 420,912 434,924 431,920 428,915 424,911 421,907 413,896 406,884 402,873 405,865"/>
<polygon class="pen1 brush9" points="756,957 758,958 761,960 763,961 765,962 763,961 761,960 758,958 756,957"/>
<polygon class="pen1 brush9" points="1148,1141 1143,1143 1139,1145 1134,1146 1129,1148 1134,1146 1139,1145 1143,1143 1148,1141"/>
<polygon class="pen1 brush9" points="838,1112 831,1115 823,1116 815,1116 807,1114 799,1112 790,1110 782,1108 773,1107 778,1110 783,1114 788,1118 792,1123 795,1127 797,1132 798,1137 796,1142 788,1151 778,1155 767,1156 756,1153 744,1148 734,1141 725,1133 718,1123 713,1111 709,1100 705,1088 701,1076 696,1065 690,1055 683,1047 674,1040 666,1036 658,1034 650,1034 643,1033 635,1033 627,1032 619,1031 611,1028 607,1027 602,1025 596,1024 591,1024 586,1024 581,1024 577,1026 574,1028 572,1030 570,1032 567,1033 565,1034 552,1024 540,1013 527,1003 514,992 502,982 489,971 477,961 465,950 482,965 500,980 518,995 536,1010 554,1025 572,1040 590,1055 608,1069 636,1091 663,1111 687,1128 710,1144 731,1158 750,1171 768,1182 783,1191 797,1199 810,1206 820,1212 829,1216 837,1220 843,1222 847,1224 850,1225 854,1224 861,1223 870,1221 880,1218 893,1215 908,1212 924,1208 941,1204 959,1199 979,1194 999,1188 1021,1182 1042,1176 1064,1169 1087,1162 1109,1155 1096,1155 1083,1154 1069,1153 1055,1152 1040,1151 1024,1149 1008,1147 991,1144 974,1141 957,1138 939,1134 920,1130 901,1125 882,1119 863,1113 843,1106 842,1107 841,1109 840,1110 838,1112"/>
<polygon class="pen1 brush9" points="1189,1126 1185,1128 1181,1129 1176,1131 1172,1133 1176,1131 1181,1129 1185,1128 1189,1126"/>
<polygon class="pen1 brush9" points="1208,1118 1204,1120 1199,1121 1195,1123 1190,1125 1195,1123 1199,1121 1204,1120 1208,1118"/>
<polygon class="pen1 brush9" points="1262,1092 1258,1094 1255,1096 1251,1098 1247,1100 1251,1098 1255,1096 1258,1094 1262,1092"/>
<polygon class="pen1 brush9" points="464,950 460,947 457,943 453,940 449,937 445,933 442,930 438,927 434,924 438,927 442,930 445,933 449,936 453,939 457,943 460,946 464,950"/>
<polygon class="pen1 brush9" points="1167,1134 1163,1135 1160,1137 1156,1138 1152,1140 1156,1138 1160,1137 1163,1135 1167,1134"/>
<polygon class="pen1 brush9" points="1225,1110 1222,1111 1219,1113 1216,1114 1212,1116 1216,1114 1219,1113 1222,1111 1225,1110"/>
<polygon class="pen1 brush9" points="679,904 681,905 683,907 685,908 687,910 685,908 683,907 681,905 679,904"/>
<polygon class="pen1 brush9" points="1242,1102 1239,1103 1236,1105 1233,1106 1230,1108 1233,1106 1236,1105 1239,1103 1242,1102"/>
<polygon class="pen1 brush9" points="1109,1155 1114,1153 1119,1152 1124,1150 1129,1148 1124,1150 1119,1152 1114,1153 1109,1155"/>
<polygon class="pen1 brush9" points="702,922 704,923 707,925 709,926 711,928 709,926 707,925 704,923 702,922"/>
<polygon class="pen1 brush9" points="658,887 659,888 661,889 662,890 663,891 662,890 661,889 659,888 658,887"/>
<polygon class="pen1 brush9" points="727,938 729,940 732,942 735,943 737,945 735,943 732,942 729,940 727,938"/>
<polygon class="pen1 brush10" points="862,1007 866,1008 870,1010 874,1011 879,1013 883,1014 887,1016 892,1017 896,1018 892,1017 887,1016 883,1014 879,1013 874,1011 870,1010 866,1008 862,1007"/>
<polygon class="pen1 brush10" points="828,994 832,996 836,998 840,999 844,1001 848,1002 852,1004 856,1005 860,1007 856,1005 852,1004 848,1002 844,1001 840,999 836,998 832,996 828,994"/>
<polygon class="pen1 brush10" points="795,979 799,981 803,983 807,985 811,986 815,988 819,990 823,992 827,994 823,992 819,990 815,988 811,986 807,985 803,983 799,981 795,979"/>
<polygon class="pen1 brush10" points="434,924 434,924 434,924 434,924 434,924 434,924 434,924 434,924 434,924 434,924"/>
<polygon class="pen1 brush10" points="897,1019 901,1020 905,1021 910,1023 914,1024 919,1025 923,1027 928,1028 932,1029 928,1028 923,1027 919,1025 914,1024 910,1023 905,1021 901,1020 897,1019"/>
<polygon class="pen1 brush11" points="551,807 547,806 542,805 539,804 535,804 531,803 527,804 523,805 519,807 528,819 536,832 543,846 547,861 596,842 591,837 586,831 581,825 576,820 570,815 565,811 558,809 551,807"/>
<polygon class="pen1 brush11" points="574,1028 577,1026 581,1024 586,1024 591,1024 596,1024 602,1025 607,1027 611,1028 619,1031 627,1032 635,1033 643,1033 650,1034 658,1034 666,1036 674,1040 683,1047 690,1055 696,1065 701,1076 705,1088 709,1100 713,1111 718,1123 725,1133 734,1141 744,1148 756,1153 767,1156 778,1155 788,1151 796,1142 798,1137 797,1132 795,1127 792,1123 788,1118 783,1114 778,1110 773,1107 782,1108 790,1110 799,1112 807,1114 815,1116 823,1116 831,1115 838,1112 840,1110 841,1109 842,1107 843,1106 839,1104 835,1103 831,1101 827,1100 822,1098 818,1097 814,1095 810,1093 780,1080 752,1066 726,1052 701,1037 679,1023 658,1008 639,993 621,979 605,964 591,951 578,938 567,925 557,914 549,903 542,894 536,886 529,883 523,881 516,878 509,875 502,873 496,871 489,869 482,867 472,866 461,863 451,860 441,858 431,857 422,857 413,860 405,865 402,873 406,884 413,896 421,907 424,911 428,915 431,920 434,924 434,924 434,924 434,924 434,924 441,930 447,935 453,940 457,943 460,946 463,948 464,950 465,950 477,961 489,971 502,982 514,992 527,1003 540,1013 552,1024 565,1034 567,1033 570,1032 572,1030 574,1028"/>
<polygon class="pen1 brush12" points="1212,1116 1211,1117 1210,1117 1209,1117 1208,1118 1209,1117 1210,1117 1211,1117 1212,1116"/>
<polygon class="pen1 brush12" points="658,887 650,880 643,874 636,868 629,861 623,855 617,849 611,844 606,838 611,844 617,849 623,855 629,861 636,868 643,874 650,880 658,887"/>
<polygon class="pen1 brush12" points="1190,1125 1190,1125 1190,1125 1189,1126 1189,1126 1189,1126 1190,1125 1190,1125 1190,1125"/>
<polygon class="pen1 brush12" points="711,928 715,930 719,933 723,936 727,938 723,936 719,933 715,930 711,928"/>
<polygon class="pen1 brush12" points="687,910 690,913 694,916 698,919 702,922 698,919 694,916 690,913 687,910"/>
<polygon class="pen1 brush12" points="780,971 784,973 788,975 791,977 795,979 783,972 776,969 775,968 780,971 780,971"/>
<polygon class="pen1 brush12" points="1230,1108 1229,1108 1228,1109 1226,1109 1225,1110 1226,1109 1228,1109 1229,1108 1230,1108"/>
<polygon class="pen1 brush12" points="663,891 667,895 671,898 675,901 679,904 675,901 671,898 667,895 663,891"/>
<polygon class="pen1 brush12" points="1247,1100 1246,1100 1244,1101 1243,1101 1242,1102 1243,1101 1244,1101 1246,1100 1247,1100"/>
<polygon class="pen1 brush12" points="1109,1155 1109,1155 1109,1155 1109,1155 1109,1155 1109,1155 1109,1155 1109,1155 1109,1155 1109,1155"/>
<polygon class="pen1 brush12" points="1152,1140 1151,1140 1150,1140 1149,1141 1148,1141 1149,1141 1150,1140 1151,1140 1152,1140"/>
<polygon class="pen1 brush12" points="1172,1133 1171,1133 1170,1133 1168,1134 1167,1134 1168,1134 1170,1133 1171,1133 1172,1133"/>
<polygon class="pen1 brush12" points="737,945 742,948 746,951 751,954 756,957 751,954 747,951 742,948 737,945"/>
<polygon class="pen1 brush12" points="1129,1148 1129,1148 1129,1148 1129,1148 1129,1148 1129,1148 1129,1148 1129,1148 1129,1148"/>
<polygon class="pen1 brush13" points="596,842 596,843 597,843 597,844 597,844 604,854 611,864 617,874 623,885 628,895 634,905 641,915 648,925 654,929 660,931 667,932 674,933 681,933 688,934 695,935 701,938 712,944 722,950 732,958 741,966 749,974 757,983 765,992 773,1001 777,993 777,986 777,978 780,971 765,963 751,954 737,946 724,937 711,928 699,919 687,911 676,902 665,893 655,885 646,876 637,868 628,860 620,853 613,845 606,838 606,838 606,838 606,838 606,838 596,842"/>
<polygon class="pen1 brush13" points="896,1018 896,1019 896,1019 896,1019 897,1019 896,1019 896,1019 896,1019 896,1018"/>
<polygon class="pen1 brush13" points="860,1007 861,1007 861,1007 861,1007 862,1007 861,1007 861,1007 861,1007 860,1007"/>
<polygon class="pen1 brush13" points="1129,1148 1139,1145 1147,1142 1154,1139 1160,1137 1164,1136 1168,1134 1170,1134 1172,1133 1178,1131 1183,1128 1188,1126 1192,1125 1196,1123 1200,1121 1204,1120 1208,1118 1215,1115 1221,1112 1227,1109 1230,1108 1235,1105 1240,1103 1244,1101 1247,1100 1251,1098 1255,1096 1258,1094 1262,1092 1282,1081 1300,1071 1318,1061 1334,1051 1350,1042 1364,1034 1378,1025 1391,1018 1402,1011 1413,1004 1423,998 1432,992 1440,987 1447,982 1453,978 1458,975 1402,959 1207,1072 1205,1072 1201,1072 1193,1071 1183,1070 1170,1069 1155,1068 1138,1066 1120,1064 1100,1061 1078,1058 1055,1054 1032,1050 1007,1046 982,1041 957,1035 932,1029 932,1029 932,1029 932,1029 932,1029 932,1029 933,1030 933,1030 933,1031 938,1040 944,1048 951,1054 961,1058 945,1061 930,1064 914,1067 898,1068 882,1070 867,1070 851,1070 836,1070 834,1071 833,1073 833,1075 833,1077 837,1084 840,1092 843,1099 843,1106 863,1113 882,1119 901,1125 920,1130 939,1134 957,1138 974,1141 991,1144 1008,1147 1024,1149 1040,1151 1055,1152 1069,1153 1083,1154 1096,1155 1109,1155 1109,1155 1109,1155 1109,1155 1109,1155 1114,1153 1119,1152 1124,1150 1129,1148 1129,1148 1129,1148 1129,1148 1129,1148"/>
<polygon class="pen1 brush13" points="827,994 827,994 828,994 828,994 828,994 828,994 828,994 827,994 827,994"/>
<polygon class="pen1 brush13" points="547,861 525,870 526,871 528,874 531,879 536,886 539,887 542,888 545,889 549,890 549,883 549,875 548,868 547,861"/>
<polygon class="pen1 brush14" points="780,971 784,973 788,975 791,977 795,979 791,977 788,975 784,973 780,971 780,971"/>
<polygon class="pen1 brush14" points="773,1001 765,992 757,983 749,974 741,966 732,958 722,950 712,944 701,938 695,935 688,934 681,933 674,933 667,932 660,931 654,929 648,925 641,915 634,905 628,895 623,885 617,874 611,864 604,854 597,844 597,844 597,843 596,843 596,842 547,861 548,868 549,875 549,883 549,890 545,889 542,888 539,887 536,886 542,894 549,903 557,914 567,925 578,938 591,951 605,964 621,979 639,993 658,1008 679,1023 701,1037 726,1052 752,1066 780,1080 810,1093 814,1095 818,1097 822,1098 827,1100 831,1101 835,1103 839,1104 843,1106 843,1099 840,1092 837,1084 833,1077 833,1075 833,1073 834,1071 836,1070 851,1070 867,1070 882,1070 898,1068 914,1067 930,1064 945,1061 961,1058 951,1054 944,1048 938,1040 933,1031 933,1030 933,1030 932,1029 932,1029 932,1029 932,1029 932,1029 932,1029 928,1028 923,1027 919,1025 914,1024 910,1023 905,1021 901,1020 897,1019 896,1019 896,1019 896,1019 896,1018 883,1014 869,1009 856,1005 844,1000 831,995 819,990 807,985 795,979 791,977 788,975 784,973 780,971 777,978 777,986 777,993 773,1001"/>
<polygon class="pen1 brush15" points="1279,263 1271,254 1263,246 1254,239 1245,233 1235,228 1225,224 1215,222 1205,220 1069,206 1077,127 482,44 481,42 480,40 479,39 478,37 472,31 465,26 456,21 445,16 434,13 421,9 407,7 393,5 376,4 359,4 343,5 328,8 315,12 305,17 298,24 294,33 205,33 186,48 180,71 179,71 179,72 125,599 336,650 336,651 343,652 1020,676 1024,640 1160,654 1170,655 1181,654 1191,652 1202,649 1212,646 1222,640 1231,634 1241,627 1257,612 1271,595 1284,575 1296,554 1306,530 1314,505 1320,479 1324,452 1326,424 1325,397 1323,371 1318,346 1311,323 1302,301 1292,281 1279,263"/>
<polygon class="pen1 brush16" points="436,76 433,108 406,106 412,48 1062,139 1057,185 605,131 608,100 436,76"/>
<polygon class="pen1 brush17" points="448,92 593,112 586,182 441,167 448,92"/>
<polygon class="pen1 brush18" points="189,113 391,119 338,636 140,589 189,113"/>
<polygon class="pen1 brush17" points="312,30 317,27 323,24 331,21 340,19 351,18 363,17 377,17 391,18 404,20 415,22 426,25 436,28 444,31 452,34 458,38 463,41 400,33 400,33 309,33 309,32 310,31 311,31 312,30"/>
<polygon class="pen1 brush17" points="210,47 398,47 392,105 385,105 376,104 365,104 352,104 338,103 323,103 308,102 292,102 276,102 260,101 245,101 231,100 218,100 207,100 198,99 191,99 193,74 198,56 210,47"/>
<polygon class="pen1 brush19" points="1008,661 351,638 405,120 411,120 418,121 425,122 431,122 425,180 598,198 604,145 1055,198 1055,205 975,196 965,196 956,196 946,198 937,200 928,204 919,208 910,213 901,219 901,214 794,203 787,198 781,193 774,189 767,186 759,183 752,181 744,179 736,178 721,177 706,179 691,183 677,189 663,197 649,206 637,218 625,230 614,245 603,261 594,278 586,296 579,315 573,336 569,357 566,379 564,405 564,430 567,455 571,478 578,501 586,521 597,540 609,557 618,567 627,576 636,583 646,590 657,595 667,599 679,602 690,604 698,605 707,605 717,605 727,603 737,601 748,598 758,594 768,588 867,599 874,605 881,611 889,616 897,620 905,624 913,627 921,629 930,630 1010,639 1008,661"/>
<polygon class="pen1 brush20" points="705,570 697,568 689,566 682,563 674,559 667,555 661,549 654,543 648,536 638,521 629,504 621,486 616,466 611,445 609,424 609,401 610,378 613,355 619,333 625,312 633,292 643,274 654,258 666,243 679,231 687,225 694,221 702,217 710,214 718,212 726,210 734,210 742,210 892,225 877,240 863,257 850,276 839,297 829,320 821,345 815,371 811,399 809,426 810,452 813,478 817,502 824,526 832,547 843,567 855,585 705,570"/>
<polygon class="pen1 brush17" points="747,586 741,588 735,590 729,591 722,592 715,592 707,592 699,592 691,591 681,590 671,587 662,583 652,579 643,573 635,566 627,559 619,550 607,534 598,516 590,496 584,475 579,452 577,429 576,405 578,380 582,355 587,330 595,307 604,285 615,265 627,246 641,230 656,216 665,209 675,203 685,198 695,194 704,192 714,190 724,189 734,190 738,191 743,191 747,192 751,193 756,195 760,196 764,198 768,200 743,198 717,199 693,208 670,224 649,245 631,272 616,303 605,339 598,377 596,401 597,425 599,448 603,470 609,491 617,511 627,528 638,544 645,552 652,559 660,565 668,570 677,574 685,578 694,580 703,582 747,586"/>
<polygon class="pen1 brush20" points="1025,626 1025,626 1012,624 1011,625 931,617 922,615 913,613 905,609 897,605 889,600 881,594 874,587 867,579 855,562 845,543 837,522 831,500 826,476 824,452 823,426 825,400 829,374 834,349 842,326 851,303 862,283 874,264 888,248 903,234 911,228 920,222 928,218 937,214 946,212 955,210 964,210 973,210 1154,229 1133,241 1114,257 1096,277 1080,300 1066,327 1055,357 1046,389 1041,423 1039,450 1040,477 1043,503 1048,528 1055,551 1064,573 1074,593 1087,611 1093,618 1099,624 1105,630 1112,635 1025,626"/>
<polygon class="pen1 brush21" points="1162,640 1153,639 1144,636 1136,633 1128,629 1120,624 1112,617 1105,610 1098,602 1086,585 1076,567 1068,546 1061,524 1057,500 1054,476 1053,450 1055,424 1059,398 1064,373 1072,350 1081,327 1092,307 1105,288 1118,272 1133,258 1141,252 1150,246 1159,242 1168,238 1177,236 1186,234 1195,234 1204,234 1213,236 1221,238 1230,242 1238,246 1246,251 1254,257 1261,264 1268,272 1280,289 1290,307 1298,328 1304,350 1309,374 1311,398 1312,424 1310,450 1303,491 1292,528 1277,561 1258,590 1237,613 1213,629 1188,639 1162,640"/>
<polygon class="pen1 brush22" points="1259,280 1253,273 1246,267 1239,261 1232,257 1225,253 1218,250 1210,248 1202,247 1198,246 1194,246 1190,246 1187,247 1183,247 1179,248 1175,249 1171,250 1170,250 1170,249 1169,249 1168,248 1166,252 1148,262 1131,276 1116,294 1102,315 1090,339 1080,365 1072,394 1068,425 1066,450 1067,475 1069,498 1073,521 1079,542 1086,562 1095,579 1106,595 1112,602 1119,608 1126,613 1133,618 1140,622 1147,625 1155,627 1163,628 1171,628 1179,628 1187,626 1195,624 1203,621 1210,617 1218,613 1225,607 1239,594 1252,579 1263,561 1274,542 1282,521 1289,498 1294,474 1298,449 1300,424 1299,399 1297,376 1293,353 1287,332 1279,313 1270,295 1259,280"/>
<polygon class="pen1 brush23" points="1082,427 1085,404 1090,381 1097,360 1105,340 1114,321 1125,305 1136,290 1149,278 1154,274 1160,271 1165,268 1170,266 1186,279 1201,295 1214,314 1226,336 1235,361 1241,387 1244,415 1243,443 1238,473 1229,500 1216,525 1201,547 1185,566 1168,582 1151,594 1135,602 1131,599 1126,595 1122,591 1117,586 1107,572 1099,555 1092,537 1086,517 1083,496 1081,473 1080,450 1082,427"/>
<polygon class="pen1 brush24" points="1164,614 1161,614 1157,613 1154,612 1150,611 1168,599 1186,585 1203,567 1219,546 1233,524 1244,499 1252,473 1257,445 1258,416 1255,389 1249,362 1241,337 1229,314 1216,293 1202,276 1186,261 1195,260 1203,261 1211,263 1219,266 1227,270 1234,275 1241,281 1248,289 1258,303 1267,320 1274,338 1279,358 1283,379 1285,401 1285,425 1284,448 1278,483 1269,516 1256,545 1241,570 1224,590 1205,604 1185,613 1164,614"/>
<polygon class="pen1 brush24" points="458,100 452,164 570,176 577,116 458,100"/>
<polygon class="pen1 brush25" points="558,161 467,151 471,116 561,128 558,161"/>
<polygon class="pen1 brush26" points="1163,281 1159,284 1156,287 1152,290 1148,294 1146,296 1144,299 1141,302 1139,305 1153,314 1164,327 1175,343 1183,362 1189,383 1193,407 1194,431 1193,457 1191,473 1188,489 1184,504 1179,518 1173,531 1167,543 1160,554 1152,564 1164,555 1176,544 1187,530 1196,514 1204,496 1211,477 1216,456 1219,434 1220,408 1219,383 1215,359 1208,338 1200,319 1189,303 1177,290 1163,281"/>
<polygon class="pen1 brush21" points="646,534 838,560 827,535 819,507 813,478 810,447 609,418 610,435 613,451 616,467 620,482 625,497 631,510 638,523 646,534"/>
<polygon class="pen1 brush21" points="867,579 869,582 872,584 875,587 877,590 1094,619 1092,617 1091,615 1089,613 1087,611 1076,595 1066,578 1058,559 1051,539 1046,517 1042,495 1040,472 1040,448 823,426 823,448 825,470 829,491 834,511 840,530 848,548 857,564 867,579"/>
<polygon class="pen1 brush21" points="703,582 694,580 685,578 677,574 668,570 660,565 652,559 645,552 638,544 627,528 617,511 609,491 603,470 599,448 597,425 596,401 598,377 601,359 604,342 609,325 614,309 581,357 580,362 580,368 579,374 578,380 576,405 577,429 579,452 584,475 590,496 598,516 607,534 619,550 627,559 635,566 643,573 652,579 662,583 671,587 681,590 691,591 699,592 706,593 713,593 719,592 727,584 703,582"/>
</g>
</svg>