<?xml version="1.0" encoding="utf-8"?>
<!DOCTYPE svg PUBLIC "-//W3C//DTD SVG 1.0//EN" "http://www.w3.org/TR/2001/REC-SVG-20010904/DTD/svg10.dtd">
<svg aria-labelledby="title desc" fill-rule="evenodd" height="1.82in" preserveAspectRatio="none" stroke-linecap="round" viewBox="0 0 1998 1820" width="1.998in" xmlns="http://www.w3.org/2000/svg" xmlns:xlink="http://www.w3.org/1999/xlink"><title>cameras,digital cameras,photography,technologies,visual arts</title><desc>Original keywords: cameras,digital cameras,photography,technologies,visual arts. This clipart was ripped from the Microsoft website, then uploaded to https://archive.org/details/MS_Clipart_Collection. (The original WMF file can be found within that item, under the folder MC900241589). From there, it was then converted by Trumad to svg using https://github.com/hidekatsu-izuno/wmf2svg in a bulk operation. All the converted files can be found at https://archive.org/details/MS_Clipart_Collection_SVG</desc>
<style type="text/css">
.brush0 { fill: rgb(255,255,255); }
.pen0 { stroke: rgb(0,0,0); stroke-width: 1; stroke-linejoin: round; }
.brush1 { fill: none; }
.pen1 { stroke: none; }
.brush2 { fill: rgb(127,158,255); }
.brush3 { fill: rgb(0,0,0); }
</style>
<g>
<polygon class="pen1 brush2" points="552,0 551,4 550,7 549,11 548,14 585,55 621,92 657,127 692,159 727,189 761,217 795,242 829,265 862,286 894,306 927,324 959,341 990,356 1022,370 1054,383 1085,396 1051,389 1017,381 983,372 948,362 914,350 879,338 844,324 809,309 773,292 737,274 701,254 664,233 627,209 590,184 552,157 513,128 512,131 511,134 510,137 509,141 545,176 581,209 616,240 651,269 685,295 719,320 752,343 785,364 817,384 849,402 881,419 913,435 944,451 975,465 1006,478 1037,491 1004,484 970,476 936,467 902,457 868,447 834,435 799,422 765,408 729,393 694,377 658,360 622,341 585,320 548,298 510,275 472,250 471,253 470,256 469,259 468,262 504,293 539,323 574,350 608,376 642,400 675,423 708,444 741,464 773,482 805,500 836,516 868,532 899,547 930,561 960,575 991,588 958,580 924,572 891,563 858,554 824,544 790,533 756,521 721,508 686,495 651,480 616,464 580,448 543,430 506,410 469,390 431,368 430,371 429,374 428,377 427,380 463,408 497,435 532,460 566,483 599,505 632,526 665,546 697,565 729,583 761,599 792,615 823,631 854,645 885,659 916,673 946,686 913,678 880,670 847,662 814,653 780,643 746,633 712,622 678,610 643,597 608,584 573,569 537,554 501,538 464,520 427,502 389,482 388,485 387,488 386,491 385,494 420,520 455,544 489,567 523,589 557,610 590,630 622,649 655,666 686,684 718,700 749,715 780,730 811,745 842,758 873,772 903,785 870,778 837,770 804,762 771,753 738,744 704,734 670,724 636,713 601,701 566,688 530,675 494,660 458,645 421,629 383,611 345,593 344,596 343,599 341,602 340,605 376,629 411,652 446,674 480,695 513,715 547,734 579,753 612,770 644,786 676,802 707,817 739,832 770,846 801,860 831,873 862,886 829,879 796,871 763,864 729,855 696,846 662,837 628,827 593,816 558,805 522,793 486,780 450,766 413,752 376,736 338,720 299,702 298,705 296,708 295,711 294,714 330,738 366,760 401,782 435,802 469,821 503,840 536,858 569,875 602,891 634,907 666,922 697,936 728,950 760,964 790,977 821,990 788,983 755,976 722,968 688,960 654,952 620,943 586,933 551,923 515,912 479,900 442,887 405,874 368,860 329,844 290,828 250,810 249,813 247,815 246,818 245,821 282,845 319,867 355,889 390,909 425,929 459,947 493,965 527,982 560,998 592,1014 625,1029 657,1043 688,1057 720,1071 751,1083 782,1096 749,1090 716,1083 682,1076 648,1068 614,1060 579,1051 544,1042 508,1032 472,1021 435,1009 397,996 359,982 320,967 280,951 240,934 198,915 197,918 196,920 194,923 193,926 232,951 270,974 307,997 344,1018 380,1038 415,1057 450,1076 484,1093 518,1109 551,1125 584,1140 617,1154 649,1168 681,1181 713,1193 744,1205 711,1199 677,1193 643,1186 608,1179 573,1172 538,1163 502,1154 465,1144 428,1133 390,1121 351,1107 312,1093 271,1077 230,1060 188,1041 144,1021 143,1024 141,1026 140,1029 138,1032 179,1058 218,1083 257,1107 296,1129 333,1150 370,1170 406,1189 441,1206 476,1223 511,1238 545,1253 578,1267 611,1280 644,1293 676,1305 708,1316 674,1311 639,1306 605,1300 569,1293 533,1286 497,1278 460,1269 422,1259 384,1247 344,1235 304,1221 262,1206 220,1189 177,1170 132,1150 86,1128 85,1130 83,1133 82,1136 80,1139 123,1168 165,1194 206,1220 246,1243 285,1265 323,1286 361,1305 398,1323 434,1340 470,1356 505,1370 539,1384 573,1397 607,1408 640,1420 673,1430 638,1426 603,1422 567,1417 531,1411 494,1405 456,1397 418,1388 379,1378 338,1366 297,1353 255,1338 212,1322 167,1303 121,1283 74,1260 25,1235 23,1239 21,1242 18,1245 16,1249 84,1290 149,1326 213,1358 274,1387 333,1412 390,1434 445,1452 499,1469 551,1483 601,1495 650,1505 698,1513 744,1521 790,1527 834,1533 878,1539 921,1545 963,1550 1005,1557 1046,1564 1087,1572 1127,1582 1168,1594 1209,1607 1249,1623 1290,1641 1331,1662 1373,1686 1415,1714 1457,1745 1501,1780 1545,1820 1553,1742 1564,1665 1578,1590 1594,1516 1613,1444 1634,1374 1659,1306 1686,1239 1715,1174 1748,1111 1783,1050 1820,990 1861,933 1904,877 1949,824 1998,772 1957,721 1916,676 1875,636 1834,600 1793,569 1752,541 1711,517 1670,497 1629,478 1587,463 1545,449 1503,437 1461,427 1419,417 1376,409 1332,400 1289,391 1244,382 1199,372 1154,361 1108,348 1062,333 1014,316 966,296 917,274 868,248 818,218 766,184 714,145 661,102 607,54 552,0"/>
<polygon class="pen1 brush3" points="1913,1359 1908,1339 1895,1287 1877,1212 1855,1122 1832,1029 1810,940 1792,866 1780,816 1812,808 1829,804 1825,786 1769,569 1764,552 1747,557 1715,565 1681,433 1676,419 1669,407 1659,397 1648,389 1635,383 1622,380 1608,379 1593,381 1504,403 1494,392 1480,382 1464,374 1445,369 1425,366 1402,365 1379,367 1355,372 1332,379 1311,388 1291,399 1275,411 1261,425 1250,439 1243,454 1239,469 412,676 398,681 386,688 375,698 367,709 361,722 358,735 357,749 359,764 428,1044 430,1053 436,1078 445,1113 455,1153 466,1196 476,1235 483,1266 488,1284 457,1295 442,1300 446,1316 505,1552 510,1571 528,1565 556,1555 590,1690 595,1704 602,1716 611,1726 623,1734 635,1740 649,1743 663,1744 677,1742 680,1741 690,1739 706,1735 728,1729 755,1723 786,1715 822,1706 862,1696 905,1685 951,1674 1000,1661 1051,1649 1104,1635 1158,1622 1213,1608 1269,1594 1324,1581 1379,1567 1433,1554 1486,1540 1537,1528 1586,1515 1632,1504 1675,1493 1715,1483 1751,1474 1782,1466 1809,1460 1831,1454 1847,1450 1857,1448 1860,1447 1867,1445 1873,1442 1880,1439 1885,1435 1891,1430 1896,1425 1900,1420 1904,1414 1910,1401 1914,1387 1915,1373 1913,1359"/>
<polygon class="pen1 brush0" points="1874,1396 1870,1402 1864,1406 1858,1410 1851,1412 669,1708 662,1709 654,1709 647,1707 641,1704 635,1700 630,1694 627,1688 624,1681 622,1674 618,1657 612,1633 605,1604 598,1576 592,1552 588,1535 586,1528 581,1509 563,1515 535,1525 484,1323 515,1312 531,1307 527,1291 476,1089 1306,874 1315,883 1325,892 1335,900 1346,908 1357,914 1369,920 1381,925 1393,930 1406,933 1419,936 1432,938 1445,939 1458,939 1472,938 1485,936 1499,933 1518,927 1536,920 1553,910 1569,900 1584,888 1597,874 1609,860 1620,844 1629,828 1636,810 1642,792 1645,774 1647,755 1648,735 1646,716 1642,696 1636,677 1629,659 1619,642 1609,626 1596,611 1583,598 1568,586 1553,576 1536,567 1519,560 1500,554 1482,550 1463,548 1443,548 1424,550 1404,554 1385,560 1367,567 1350,577 1334,587 1320,599 1307,613 1295,627 1284,643 1275,659 1268,677 1262,695 1259,713 1257,732 1256,752 1258,771 1262,791 1266,805 1271,819 1277,832 1284,844 467,1055 463,1036 393,755 392,748 392,741 394,734 398,727 402,721 407,716 413,713 420,710 1602,415 1609,414 1616,414 1623,416 1630,419 1636,423 1641,429 1644,435 1647,442 1649,448 1653,465 1659,489 1666,516 1673,544 1679,568 1683,585 1685,591 1689,608 1706,603 1739,595 1786,778 1754,786 1737,790 1741,807 1878,1367 1879,1374 1879,1382 1877,1389 1874,1396"/>
<polygon class="pen1 brush0" points="1413,588 1429,585 1445,583 1461,584 1477,585 1492,589 1507,593 1521,599 1535,606 1547,615 1559,625 1570,636 1580,647 1589,660 1597,674 1603,689 1608,705 1613,737 1611,768 1603,798 1590,826 1571,850 1549,871 1522,887 1491,898 1475,901 1459,903 1443,903 1427,901 1412,898 1397,894 1383,888 1370,881 1357,872 1345,863 1334,852 1324,840 1315,827 1307,813 1301,799 1296,783 1291,751 1293,719 1301,689 1314,661 1333,637 1355,616 1382,599 1413,588"/>
<polygon class="pen1 brush3" points="774,676 460,758 469,792 783,710 774,676"/>
<polygon class="pen1 brush3" points="792,742 477,824 486,858 801,776 792,742"/>
<polygon class="pen1 brush3" points="495,889 504,923 819,843 810,808 495,889"/>
<polygon class="pen1 brush3" points="571,592 728,422 731,416 732,409 731,402 727,397 721,393 714,392 707,394 702,398 545,568 541,574 540,580 542,587 546,593 552,596 559,597 565,596 571,592"/>
<polygon class="pen1 brush3" points="428,546 435,544 441,540 444,534 445,527 436,297 435,290 431,284 425,281 419,280 412,281 407,285 403,291 402,298 411,529 413,536 417,541 422,545 428,546"/>
<polygon class="pen1 brush3" points="288,597 294,600 301,601 308,600 313,596 317,590 318,583 316,576 312,571 312,571 143,414 137,410 130,409 123,411 118,415 114,421 113,427 114,434 119,440 288,597"/>
<polygon class="pen1 brush3" points="266,713 265,707 261,701 255,697 248,696 17,705 10,707 5,711 1,717 0,724 2,731 6,736 12,740 19,741 249,732 256,730 262,726 265,720 266,713"/>
<polygon class="pen1 brush3" points="291,830 135,999 131,1005 130,1012 132,1019 136,1024 142,1028 149,1029 155,1027 161,1023 317,855 321,849 322,842 321,835 316,829 310,826 304,825 297,826 291,830"/>
<polygon class="pen1 brush3" points="1477,843 1497,836 1514,825 1528,812 1540,796 1548,778 1554,759 1555,739 1552,718 1545,698 1534,681 1521,666 1505,655 1487,646 1468,641 1448,640 1427,643 1407,650 1390,661 1375,674 1363,690 1355,708 1350,727 1349,747 1352,768 1359,788 1369,805 1382,820 1398,831 1416,840 1436,845 1456,846 1477,843"/>
<polygon class="pen1 brush3" points="1255,1470 1265,1466 1274,1461 1282,1454 1289,1445 1293,1436 1296,1426 1296,1415 1295,1404 1208,1057 1204,1047 1199,1038 1192,1030 1183,1024 1174,1019 1164,1017 1153,1016 1142,1018 678,1134 667,1138 658,1143 650,1150 644,1159 639,1168 637,1178 636,1189 638,1200 724,1546 728,1557 734,1566 741,1574 749,1580 759,1584 769,1587 780,1588 791,1586 1255,1470"/>
<polygon class="pen1 brush3" points="1650,1094 1659,1090 1666,1083 1669,1073 1669,1063 1669,1063 1667,1058 1664,1054 1661,1051 1657,1048 1653,1046 1648,1045 1643,1044 1638,1045 1540,1070 1531,1074 1524,1081 1521,1090 1521,1100 1521,1100 1523,1105 1526,1109 1529,1113 1533,1116 1537,1118 1542,1119 1547,1120 1552,1119 1650,1094"/>
<polygon class="pen1 brush3" points="1675,1193 1684,1188 1691,1181 1694,1172 1693,1162 1693,1162 1691,1157 1689,1153 1686,1149 1682,1146 1677,1144 1673,1143 1668,1142 1663,1143 1564,1168 1555,1172 1549,1179 1546,1189 1546,1199 1546,1199 1548,1204 1550,1208 1553,1211 1557,1214 1562,1216 1567,1218 1572,1218 1577,1217 1675,1193"/>
<polygon class="pen1 brush3" points="1700,1291 1709,1287 1715,1280 1718,1270 1718,1260 1718,1260 1716,1255 1714,1251 1711,1248 1707,1245 1702,1243 1697,1241 1692,1241 1687,1242 1589,1266 1580,1271 1573,1278 1570,1287 1570,1297 1570,1297 1572,1302 1575,1306 1578,1310 1582,1313 1587,1315 1591,1316 1596,1317 1601,1316 1700,1291"/>
<polygon class="pen1 brush0" points="1021,1338 1035,1317 1041,1289 1043,1260 1040,1233 1034,1216 1026,1204 1018,1197 1015,1194 1076,1152 939,1121 827,1210 862,1216 893,1320 905,1321 875,1218 907,1223 907,1228 908,1240 910,1258 914,1277 917,1284 921,1290 926,1297 932,1304 938,1310 944,1316 950,1321 956,1325 962,1329 970,1333 979,1336 988,1340 998,1342 1007,1343 1015,1342 1021,1338"/>
<polygon class="pen1 brush0" points="976,1381 971,1376 966,1371 961,1366 957,1361 953,1355 950,1350 947,1345 944,1341 940,1346 935,1352 930,1358 924,1364 917,1371 910,1377 904,1382 897,1387 889,1392 881,1398 873,1404 864,1412 855,1422 847,1434 840,1449 833,1467 826,1511 826,1554 828,1587 830,1600 1107,1531 1101,1518 1095,1503 1087,1487 1080,1473 1069,1456 1056,1441 1042,1428 1027,1416 1012,1406 999,1396 986,1388 976,1381"/>
<polygon class="pen1 brush0" points="1113,1364 1107,1361 1099,1359 1090,1356 1080,1354 1070,1352 1061,1350 1052,1348 1044,1346 1046,1349 1049,1353 1052,1357 1055,1361 1058,1366 1062,1372 1066,1379 1071,1386 1076,1395 1081,1405 1087,1417 1094,1431 1099,1442 1104,1454 1109,1467 1113,1481 1117,1494 1121,1506 1124,1517 1127,1526 1230,1500 1227,1495 1218,1482 1206,1464 1190,1441 1171,1418 1152,1396 1132,1377 1113,1364"/>
<polygon class="pen1 brush0" points="1383,501 1391,500 1399,498 1405,494 1411,489 1416,483 1420,477 1422,469 1423,461 1422,453 1420,445 1416,439 1411,433 1405,428 1399,424 1391,422 1383,421 1375,422 1367,424 1361,428 1355,433 1350,439 1346,445 1344,453 1343,461 1344,469 1346,477 1350,483 1355,489 1361,494 1367,498 1375,500 1383,501"/>
</g>
</svg>