<?xml version="1.0" encoding="utf-8"?>
<!DOCTYPE svg PUBLIC "-//W3C//DTD SVG 1.0//EN" "http://www.w3.org/TR/2001/REC-SVG-20010904/DTD/svg10.dtd">
<svg aria-labelledby="title desc" fill-rule="evenodd" height="1.6006944444444444in" preserveAspectRatio="none" stroke-linecap="round" viewBox="0 0 582 461" width="2.0208333333333335in" xmlns="http://www.w3.org/2000/svg" xmlns:xlink="http://www.w3.org/1999/xlink"><title>automobiles,cars,icons,motor vehicles,red car,red cars,sports cars,transportation,vehicles</title><desc>Original keywords: automobiles,cars,icons,motor vehicles,red car,red cars,sports cars,transportation,vehicles. This clipart was ripped from the Microsoft website, then uploaded to https://archive.org/details/MS_Clipart_Collection. (The original WMF file can be found within that item, under the folder MC900426056). From there, it was then converted by Trumad to svg using https://github.com/hidekatsu-izuno/wmf2svg in a bulk operation. All the converted files can be found at https://archive.org/details/MS_Clipart_Collection_SVG</desc>
<style type="text/css">
.brush0 { fill: rgb(255,255,255); }
.pen0 { stroke: rgb(0,0,0); stroke-width: 1; stroke-linejoin: round; }
.brush1 { fill: rgb(141,212,229); }
.pen1 { stroke: none; }
.brush2 { fill: rgb(77,77,77); }
.brush3 { fill: rgb(191,191,191); }
.brush4 { fill: rgb(255,0,0); }
.brush5 { fill: rgb(179,179,179); }
.brush6 { fill: rgb(102,102,102); }
.brush7 { fill: rgb(166,166,166); }
.brush8 { fill: rgb(217,217,217); }
.brush9 { fill: rgb(179,0,0); }
.brush10 { fill: rgb(127,127,127); }
.brush11 { fill: rgb(115,115,115); }
.brush12 { fill: rgb(230,230,230); }
.brush13 { fill: rgb(251,154,122); }
.brush14 { fill: rgb(0,0,0); }
</style>
<g>
<path class="pen1 brush1" d="M 240,457  L 240,457 239,458 240,457 240,457 240,457 240,457 z M 336,443  L 336,443 335,444 336,443 336,443 336,443 336,443 z M 547,42  L 547,42 548,43 547,42 547,42 547,42 547,42 z M 367,2  L 367,2 366,3 366,3 345,4 325,8 305,12 287,18 269,26 253,34 237,43 222,53 207,64 193,76 180,88 167,100 143,125 119,151 119,151 95,178 95,178 78,191 78,191 65,201 52,211 39,223 28,236 22,243 17,250 13,258 9,266 6,275 4,284 3,294 2,304 2,304 2,308 2,308 2,310 2,310 3,327 5,346 8,362 12,376 12,377 13,379 13,379 17,385 21,391 31,402 42,411 56,420 70,428 86,435 103,441 120,446 137,451 154,454 171,457 187,458 202,459 216,459 229,459 240,457 240,457 251,456 261,453 277,448 277,448 286,449 295,449 311,449 325,446 336,443 336,443 345,439 354,433 363,424 371,415 378,403 383,391 387,377 389,362 389,362 506,259 506,259 516,260 524,259 533,258 533,257 534,257 534,257 539,255 544,253 549,249 553,246 560,237 565,227 570,215 573,203 574,191 575,178 575,178 577,172 579,166 580,159 580,151 580,151 580,142 579,135 579,135 579,120 579,120 578,102 577,91 575,80 571,69 569,63 566,58 562,54 558,49 553,46 547,42 547,42 533,35 515,28 494,21 470,15 446,10 420,6 393,3 367,2 367,2 z" fill-rule="nonzero"/>
<path class="pen1 brush0" d="M 367,14  L 367,14 347,16 327,19 309,24 291,29 274,36 258,44 243,53 229,63 215,73 201,84 189,96 176,108 152,133 128,159 128,159 103,187 103,187 85,200 85,200 73,210 60,220 48,231 37,243 28,256 24,263 21,270 18,278 16,286 15,295 14,304 14,308 14,308 14,310 14,310 15,327 17,345 20,360 23,372 23,372 24,373 24,373 24,373 30,383 39,393 50,402 62,410 75,417 90,424 105,430 121,435 137,439 154,442 170,445 185,446 200,447 214,448 227,447 238,446 238,446 250,444 260,441 276,435 276,435 284,437 292,437 308,437 322,435 331,432 331,432 340,428 348,422 356,415 363,406 369,395 373,384 376,372 377,358 377,358 377,357 377,357 502,247 502,247 512,247 521,247 530,246 530,246 534,244 538,242 542,239 546,236 551,228 556,218 559,208 562,197 563,186 563,175 563,175 566,169 567,163 568,151 568,151 568,142 567,136 567,136 567,120 567,120 566,100 565,90 563,81 560,72 555,64 549,58 546,55 542,53 542,53 542,53 528,46 511,39 491,33 468,27 444,22 418,18 393,15 367,14 367,14 z" fill-rule="nonzero"/>
<path class="pen1 brush2" d="M 364,351  L 364,351 362,344 361,339 357,333 353,328 346,323 342,321 337,320 332,319 326,319 325,320 325,320 325,320 315,331 315,331 310,339 305,347 307,349 307,349 312,345 317,342 323,340 328,339 333,339 338,339 342,341 346,343 346,343 350,346 352,350 354,355 355,360 355,360 355,368 353,377 350,386 344,394 344,394 338,402 330,408 322,412 314,414 314,414 309,414 304,413 299,412 296,410 296,410 292,406 289,402 288,400 288,403 288,403 283,414 281,418 278,421 277,423 279,423 279,423 286,424 293,424 307,424 319,422 327,420 327,420 327,420 327,420 327,420 327,420 334,417 340,412 347,405 352,398 357,389 361,380 363,369 364,358 364,358 364,353 364,351 z" fill-rule="nonzero"/>
<path class="pen1 brush3" d="M 170,364  L 169,365 171,365 171,365 199,366 220,366 236,364 244,363 244,363 245,363 245,363 248,353 252,344 257,334 263,325 265,323 262,323 240,328 240,328 218,332 208,335 198,339 189,343 181,349 174,355 172,359 170,364 170,364 z" fill-rule="nonzero"/>
<path class="pen1 brush4" d="M 165,386  L 165,386 165,385 165,385 166,385 166,385 194,386 218,386 230,385 241,384 241,384 242,385 242,385 242,386 242,386 241,394 241,411 241,411 240,412 240,412 240,412 224,414 208,414 188,413 188,413 186,412 184,411 181,409 177,406 173,402 169,395 165,386 165,386 z M 159,354  L 159,354 156,358 153,363 149,366 147,366 145,366 145,366 134,364 112,358 98,353 84,347 71,340 59,332 59,332 58,330 57,328 57,322 57,322 58,309 58,309 58,307 58,307 59,308 59,308 96,321 130,333 163,345 163,345 164,346 164,346 159,354 159,354 z M 138,397  L 138,397 137,397 137,397 120,392 105,387 81,376 66,369 60,366 60,365 60,365 59,355 60,346 60,346 60,345 60,345 61,345 61,345 66,348 80,355 104,364 119,369 136,374 136,374 137,375 137,375 137,386 138,392 138,396 138,396 138,397 138,397 z M 251,419  L 251,419 260,417 270,413 284,407 284,407 284,407 284,407 289,389 289,389 293,373 299,356 299,356 306,342 314,330 314,330 322,320 329,313 336,309 342,307 347,306 352,307 355,308 357,309 357,309 361,312 364,316 366,322 367,327 367,329 376,322 376,321 376,321 376,288 374,261 372,241 370,229 370,228 350,244 346,247 346,247 328,262 328,262 303,284 291,295 279,308 269,320 259,334 252,349 249,357 246,364 246,364 246,365 246,365 245,365 245,365 240,366 224,367 200,368 185,368 168,367 168,367 167,367 167,367 167,366 167,366 169,361 171,356 174,352 177,349 185,343 194,338 205,334 216,331 240,326 240,326 253,323 266,320 266,320 266,320 266,320 280,304 295,288 311,274 327,261 327,261 330,258 322,241 321,241 321,241 316,242 308,242 286,239 258,234 228,228 198,220 170,211 159,206 149,202 142,197 137,192 137,192 135,191 134,189 134,188 133,188 113,194 112,196 112,196 93,211 93,211 71,228 60,238 50,248 50,248 50,249 50,249 51,254 51,261 51,261 51,274 50,287 50,287 49,301 48,313 48,313 48,317 48,317 49,319 49,319 47,317 47,317 41,310 36,303 33,295 31,287 29,287 29,287 28,296 27,304 27,308 27,308 27,310 27,311 28,312 28,312 36,326 42,334 48,341 48,341 48,342 41,354 41,354 40,354 40,354 39,354 39,354 37,350 32,343 30,344 33,359 33,359 33,359 45,369 58,379 71,387 85,395 99,401 114,407 129,412 144,415 159,418 174,421 188,422 202,423 216,423 228,422 240,421 251,419 251,419 z" fill-rule="nonzero"/>
<path class="pen1 brush2" d="M 238,411  L 239,411 239,410 239,410 239,396 240,388 240,387 239,387 239,387 220,388 199,388 169,387 167,387 168,389 168,389 172,396 176,401 179,405 182,407 186,410 188,411 188,411 205,412 219,412 238,411 238,411 z" fill-rule="nonzero"/>
<path class="pen1 brush2" d="M 61,311  L 59,310 59,311 59,322 59,322 59,328 60,331 60,331 71,338 84,345 97,350 110,355 133,362 145,364 145,364 149,364 152,361 155,357 157,353 157,353 161,347 160,346 160,346 101,325 61,311 61,311 z" fill-rule="nonzero"/>
<path class="pen1 brush4" d="M 134,185  L 135,183 135,183 147,168 173,139 189,123 205,108 220,94 234,85 234,85 235,84 235,84 246,75 264,63 275,57 287,50 300,44 315,38 314,36 314,36 300,40 287,45 274,51 262,57 250,64 238,72 216,89 195,107 176,127 157,147 138,167 138,167 116,191 134,185 134,185 z" fill-rule="nonzero"/>
<path class="pen1 brush4" d="M 237,85  L 239,86 239,86 258,91 290,99 331,108 355,112 380,115 380,116 381,115 381,115 387,105 395,94 407,83 420,72 436,63 444,59 453,55 463,52 472,50 482,49 492,49 492,47 492,47 477,42 461,39 429,32 397,29 382,28 367,27 350,29 350,29 330,34 311,41 294,49 279,57 266,65 254,72 238,84 237,85 z" fill-rule="nonzero"/>
<path class="pen1 brush5" d="M 135,377  L 135,376 134,376 134,376 108,368 87,360 72,353 63,349 62,348 62,349 61,357 62,364 62,365 62,365 68,368 83,375 105,384 119,389 135,394 136,395 136,393 136,393 135,384 135,377 135,377 z" fill-rule="nonzero"/>
<path class="pen1 brush2" d="M 40,351  L 46,342 45,341 45,341 41,336 37,330 30,319 28,320 29,333 29,333 34,343 39,350 40,351 z" fill-rule="nonzero"/>
<path class="pen1 brush3" d="M 45,312  L 46,314 48,287 48,287 49,274 49,261 49,250 47,252 47,252 42,259 38,265 35,272 32,279 32,279 32,279 32,279 33,285 35,294 39,303 42,308 45,312 45,312 z" fill-rule="nonzero"/>
<path class="pen1 brush6" d="M 235,87  L 235,87 235,87 221,97 206,110 190,125 174,141 148,170 137,184 137,184 136,187 136,187 136,189 138,191 138,191 143,195 151,200 160,205 172,209 199,218 229,226 259,232 287,237 308,239 316,240 321,239 321,239 323,239 325,238 328,233 333,226 338,216 349,190 363,157 363,157 379,117 378,117 378,117 351,113 326,109 302,104 282,99 250,91 235,87 235,87 z" fill-rule="nonzero"/>
<path class="pen1 brush5" d="M 497,219  L 494,221 494,221 480,236 462,252 422,287 367,332 367,332 366,332 366,332 366,337 364,341 364,342 366,349 367,348 491,239 491,239 491,239 495,230 496,222 497,219 z" fill-rule="nonzero"/>
<path class="pen1 brush6" d="M 283,410  L 281,411 281,411 269,416 260,419 251,421 251,421 241,423 230,424 217,425 204,425 191,424 176,423 162,421 147,418 132,414 117,410 103,405 88,399 74,392 61,384 48,375 36,364 34,362 35,366 35,367 35,367 41,376 49,384 58,392 69,399 82,406 95,412 109,417 124,422 139,426 154,429 169,432 184,434 198,435 212,435 224,434 236,433 236,433 250,430 262,427 273,422 273,422 274,422 274,422 275,422 275,422 279,418 282,412 283,410 z" fill-rule="nonzero"/>
<path class="pen1 brush2" d="M 543,148  L 543,148 541,148 539,148 535,151 531,155 527,161 528,163 528,163 531,161 534,161 534,161 536,162 539,164 539,164 540,168 542,172 543,182 543,182 542,194 542,194 539,203 536,211 533,217 529,221 529,221 526,223 523,223 523,223 520,221 518,218 516,213 515,207 513,207 513,207 508,222 505,227 501,232 500,233 502,234 502,234 511,235 518,234 527,233 527,233 532,230 537,226 541,219 545,212 547,203 549,194 550,185 550,175 550,172 550,172 550,160 548,153 545,149 543,148 543,148 z" fill-rule="nonzero"/>
<path class="pen1 brush7" d="M 524,221  L 524,221 526,221 528,220 528,220 531,216 535,210 538,202 540,194 540,194 540,185 540,177 539,170 537,166 537,166 535,164 534,163 534,163 532,163 530,164 530,164 526,168 523,173 520,181 518,190 518,190 517,201 518,211 519,215 520,218 522,220 524,221 524,221 z" fill-rule="nonzero"/>
<path class="pen1 brush8" d="M 522,214  L 522,214 524,214 525,214 525,214 528,211 531,206 533,200 534,193 534,193 535,187 535,181 534,175 532,172 532,172 531,170 530,170 530,170 528,170 527,171 527,171 524,173 522,177 519,183 518,191 518,191 517,199 517,207 519,212 521,214 522,214 522,214 z" fill-rule="nonzero"/>
<path class="pen1 brush4" d="M 554,137  L 554,137 554,129 554,120 554,120 553,103 552,95 551,87 549,80 546,73 541,68 536,65 536,65 525,59 511,53 511,53 499,51 488,51 477,52 466,54 455,57 445,60 436,65 427,70 419,76 411,82 398,95 388,107 382,117 382,117 365,158 365,158 352,188 342,213 332,230 328,236 325,240 324,240 332,256 349,242 351,232 351,232 361,202 374,164 382,145 389,128 397,115 401,109 404,105 404,105 412,97 422,89 432,82 443,75 455,70 466,66 477,63 486,63 486,63 495,64 508,67 515,70 521,73 525,78 527,80 527,83 527,83 527,86 526,90 522,99 516,107 510,113 510,113 494,127 460,155 460,155 460,156 460,156 462,161 465,176 467,187 468,202 468,220 468,241 468,244 470,242 470,242 485,227 497,216 497,216 498,216 498,216 499,217 499,217 498,221 496,232 495,235 499,232 499,232 502,228 504,224 509,213 513,201 516,189 516,189 520,172 523,166 525,160 525,160 529,154 534,149 539,146 541,146 544,146 544,146 547,148 549,151 551,156 552,163 554,163 554,163 555,151 555,151 555,142 554,137 554,137 z" fill-rule="nonzero"/>
<path class="pen1 brush9" d="M 415,216  L 416,216 416,214 416,214 415,208 414,200 413,199 413,199 413,199 409,198 401,197 391,197 380,198 379,198 379,198 379,198 378,204 377,215 377,220 378,220 378,220 383,220 391,220 402,219 415,216 415,216 z" fill-rule="nonzero"/>
<path class="pen1 brush4" d="M 437,81  L 436,82 428,87 429,88 429,88 432,94 438,108 445,129 453,156 454,158 463,150 463,149 463,149 456,126 448,106 442,91 437,82 437,81 z" fill-rule="nonzero"/>
<path class="pen1 brush4" d="M 378,320  L 380,319 380,319 419,286 466,246 466,246 466,245 466,245 466,225 466,208 465,193 464,182 461,166 459,158 458,157 457,157 409,196 415,197 415,197 415,198 415,198 417,204 417,210 418,217 418,217 417,218 417,218 403,221 391,222 382,222 377,222 377,222 372,226 372,227 372,227 373,236 376,255 378,283 378,299 378,318 378,320 z" fill-rule="nonzero"/>
<path class="pen1 brush2" d="M 465,149  L 466,148 466,148 495,124 508,112 508,112 511,109 518,101 521,97 523,92 525,87 525,83 525,83 525,81 523,79 519,75 514,72 507,69 494,66 486,65 486,65 476,65 465,68 452,73 439,80 438,80 439,81 439,81 443,89 449,103 457,123 464,147 465,149 z" fill-rule="nonzero"/>
<path class="pen1 brush2" d="M 356,311  L 356,311 353,309 350,308 344,309 337,311 330,316 328,317 330,317 330,317 337,318 342,319 347,322 351,324 355,327 358,330 362,337 363,339 364,336 364,336 365,329 364,321 361,315 359,313 356,311 356,311 z" fill-rule="nonzero"/>
<path class="pen1 brush2" d="M 427,88  L 426,89 426,89 415,98 406,107 406,107 402,111 399,116 391,130 383,146 376,165 363,203 353,233 351,240 375,221 375,220 375,220 375,211 376,203 378,196 378,196 379,196 379,196 386,195 393,194 406,196 406,196 452,159 452,158 452,158 444,132 437,111 431,96 427,89 427,88 z" fill-rule="nonzero"/>
<path class="pen1 brush7" d="M 289,397  L 289,397 289,397 292,403 297,408 297,408 300,410 304,412 309,412 313,412 313,412 321,410 329,406 336,400 343,393 343,393 347,386 351,379 353,373 354,366 353,359 352,354 349,349 345,345 345,345 341,342 335,341 330,341 324,342 318,344 312,347 306,352 301,357 301,357 295,375 291,389 289,397 z" fill-rule="nonzero"/>
<path class="pen1 brush10" d="M 362,342  L 362,342 358,334 355,330 352,327 347,324 341,321 334,320 326,319 325,320 325,320 325,320 319,326 319,326 329,325 337,326 344,328 350,331 354,334 358,337 362,342 362,342 z" fill-rule="nonzero"/>
<path class="pen1 brush10" d="M 509,218  L 509,218 505,226 501,232 500,233 502,234 502,234 509,234 515,235 524,234 524,234 519,232 516,230 513,228 511,225 510,221 509,218 509,218 z" fill-rule="nonzero"/>
<path class="pen1 brush0" d="M 131,378  L 130,378 130,378 106,371 86,364 71,357 61,353 61,357 62,364 62,365 62,365 68,368 82,375 103,384 132,394 132,394 131,379 131,378 z" fill-rule="nonzero"/>
<path class="pen1 brush11" d="M 66,329  L 66,329 76,336 87,342 99,347 112,351 133,357 144,360 144,360 147,359 150,357 153,353 155,349 155,349 157,345 157,345 105,326 65,312 64,321 64,321 64,326 66,329 66,329 z" fill-rule="nonzero"/>
<path class="pen1 brush10" d="M 493,228  L 493,228 478,242 460,259 420,293 366,339 365,339 365,339 365,339 364,343 366,349 367,348 491,239 491,239 491,239 493,234 495,229 495,226 493,228 z" fill-rule="nonzero"/>
<path class="pen1 brush6" d="M 240,387  L 239,387 239,387 224,388 207,388 178,388 178,388 182,393 185,398 191,403 195,406 197,406 197,406 209,407 221,408 239,407 239,407 240,388 240,387 z" fill-rule="nonzero"/>
<path class="pen1 brush4" d="M 408,214  L 409,214 409,212 409,212 409,206 408,198 408,198 395,197 388,197 380,198 379,198 379,198 379,198 378,204 377,215 377,217 377,217 390,217 399,216 408,214 408,214 z" fill-rule="nonzero"/>
<path class="pen1 brush12" d="M 204,336  L 204,336 198,340 192,346 188,352 185,359 184,360 186,360 186,360 206,360 206,360 204,357 202,354 201,351 201,347 201,347 202,341 204,336 204,336 z" fill-rule="nonzero"/>
<path class="pen1 brush12" d="M 262,323  L 240,328 240,328 231,330 231,330 235,333 238,337 240,342 241,347 241,347 240,353 237,359 237,359 246,358 246,358 249,349 253,341 258,333 263,325 265,323 262,323 z" fill-rule="nonzero"/>
<path class="pen1 brush12" d="M 232,347  L 232,347 231,342 229,338 224,335 219,334 219,334 214,335 210,338 207,342 206,347 206,347 207,352 210,357 214,359 219,360 219,360 224,359 229,357 231,352 232,347 232,347 z" fill-rule="nonzero"/>
<path class="pen1 brush12" d="M 49,261  L 49,260 49,260 42,271 37,282 37,282 37,282 37,282 40,294 42,302 46,310 48,287 48,287 49,274 49,261 49,261 z" fill-rule="nonzero"/>
<path class="pen1 brush9" d="M 496,232  L 495,235 499,232 499,232 502,228 504,224 509,213 513,201 516,189 516,189 520,172 523,166 525,160 525,160 529,154 534,149 539,146 541,146 544,146 544,146 547,148 549,151 551,156 552,163 554,163 554,163 555,151 555,151 555,142 554,137 554,137 554,137 554,137 552,134 550,132 546,129 541,129 536,129 536,129 530,132 526,135 522,139 518,144 516,149 513,155 510,167 506,193 503,205 499,216 499,216 499,217 499,217 498,221 496,232 496,232 z" fill-rule="nonzero"/>
<path class="pen1 brush8" d="M 337,396  L 337,396 341,390 344,383 346,376 347,370 347,364 345,358 343,353 339,349 339,349 335,347 332,346 327,345 323,345 319,346 314,348 310,350 305,353 305,353 301,357 301,357 295,375 291,389 289,397 289,397 289,397 292,403 297,408 297,408 300,410 304,412 309,412 313,412 313,412 321,410 321,410 329,404 337,396 337,396 z" fill-rule="nonzero"/>
<path class="pen1 brush9" d="M 284,407  L 284,407 284,407 289,389 289,389 293,373 299,356 299,356 306,342 314,330 314,330 322,320 329,313 336,309 342,307 347,306 352,307 355,308 357,309 357,309 361,312 364,316 366,322 367,327 367,329 373,325 373,325 372,314 370,305 367,297 362,290 356,285 350,282 343,281 335,282 335,282 324,287 315,293 308,300 301,309 296,319 292,329 288,339 285,350 279,371 274,391 271,399 267,407 263,413 258,417 258,417 269,413 284,407 284,407 z" fill-rule="nonzero"/>
<path class="pen1 brush9" d="M 28,312  L 28,312 29,313 29,313 27,310 27,311 28,312 z" fill-rule="nonzero"/>
<path class="pen1 brush9" d="M 188,413  L 188,413 186,412 184,411 181,409 177,406 173,402 169,395 165,386 165,386 165,385 165,385 166,385 166,385 194,386 218,386 230,385 241,384 241,384 211,386 183,385 159,384 137,380 137,380 137,390 138,396 138,396 138,397 138,397 137,397 137,397 120,392 105,387 81,376 66,369 60,366 60,365 60,365 59,358 59,350 59,350 51,343 44,337 44,337 48,341 48,341 48,342 41,354 41,354 40,354 40,354 39,354 39,354 37,350 32,343 30,344 33,359 33,359 33,359 44,369 56,378 68,386 81,393 94,399 108,405 122,410 136,414 150,417 164,419 178,421 191,422 216,423 239,421 240,412 240,412 224,414 207,414 188,413 188,413 z" fill-rule="nonzero"/>
<path class="pen1 brush13" d="M 370,228  L 350,244 346,247 346,247 328,262 328,262 303,284 291,295 279,307 269,320 260,334 252,348 249,356 246,364 247,365 247,365 252,355 257,346 269,328 282,312 297,296 314,281 332,266 371,235 371,235 370,229 370,228 z" fill-rule="nonzero"/>
<path class="pen1 brush13" d="M 527,81  L 527,81 527,81 527,83 527,83 527,86 526,90 522,99 516,107 510,113 510,113 494,127 460,155 460,155 460,156 460,156 462,162 462,162 493,137 505,125 516,115 523,105 528,96 529,92 529,88 529,84 527,81 527,81 z" fill-rule="nonzero"/>
<path class="pen1 brush13" d="M 377,222  L 377,222 372,226 372,227 372,227 373,233 373,233 386,222 386,222 377,222 377,222 z" fill-rule="nonzero"/>
<path class="pen1 brush13" d="M 458,157  L 457,157 409,196 415,197 415,197 415,198 415,198 416,199 416,199 461,164 461,164 459,158 458,157 z" fill-rule="nonzero"/>
<path class="pen1 brush9" d="M 492,49  L 492,47 492,47 477,42 461,39 429,32 397,29 382,28 367,27 350,29 350,29 334,33 319,38 305,44 293,50 293,50 312,51 332,50 371,48 389,49 398,49 406,51 414,52 421,55 429,59 435,63 435,63 448,57 462,52 477,49 492,49 492,49 z" fill-rule="nonzero"/>
<path class="pen1 brush2" d="M 363,157  L 363,157 349,190 338,216 333,226 328,233 325,238 323,239 321,239 321,239 316,240 308,239 287,237 259,232 229,226 199,218 172,209 160,205 151,200 143,195 138,191 138,191 136,189 136,187 136,187 137,184 137,184 145,174 163,154 163,154 175,159 188,163 201,166 213,167 226,167 239,166 264,163 289,158 314,155 326,154 339,154 351,155 363,157 363,157 z" fill-rule="nonzero"/>
<path class="pen1 brush13" d="M 322,242  L 322,242 312,251 301,259 291,267 280,273 259,285 238,294 219,303 201,312 192,317 185,322 177,328 171,335 171,335 174,329 178,324 184,318 190,313 207,302 226,292 246,281 267,269 287,256 296,248 305,241 322,242 z" fill-rule="nonzero"/>
<path class="pen1 brush13" d="M 57,292  L 57,292 60,282 64,273 68,264 73,256 79,248 85,241 98,228 121,207 129,198 132,193 133,189 133,189 136,193 139,195 143,197 143,197 139,202 135,207 125,216 102,236 89,247 77,260 72,267 67,275 62,283 57,292 57,292 z" fill-rule="nonzero"/>
<path class="pen1 brush14" d="M 63,364  L 63,364 62,357 62,357 63,350 63,350 71,354 86,361 107,368 134,377 134,377 134,384 135,393 135,393 106,384 84,375 69,367 63,364 63,364 z M 138,375  L 138,375 138,374 136,373 136,373 119,368 104,363 81,354 67,347 62,344 62,344 60,344 60,344 59,346 59,346 58,355 59,365 59,365 60,367 60,367 65,370 80,377 104,387 119,393 137,398 137,398 138,398 139,398 139,398 139,397 139,396 139,396 138,387 138,375 138,375 z M 169,388  L 169,388 200,389 220,389 239,388 239,388 238,397 238,410 238,410 219,411 205,411 188,410 188,410 187,409 182,407 180,404 176,400 173,395 169,388 169,388 z M 240,413  L 240,413 241,413 242,411 242,411 242,393 243,386 243,386 243,384 243,384 241,383 241,383 230,385 218,385 194,385 166,384 166,384 164,385 164,385 164,387 164,387 168,396 173,402 177,407 180,410 183,412 186,413 188,414 188,414 208,415 224,415 240,413 240,413 z M 156,352  L 156,352 151,360 148,363 145,364 145,364 136,361 113,355 100,350 86,345 73,338 61,330 61,330 60,327 60,322 60,322 60,311 60,311 101,326 159,347 159,347 156,352 156,352 z M 163,344  L 163,344 130,332 97,320 59,307 57,306 57,309 57,309 56,322 56,328 57,331 58,333 58,333 70,341 83,348 97,354 111,359 134,365 145,367 145,367 147,367 150,366 154,363 157,359 160,354 165,345 163,344 z M 134,182  L 134,182 135,182 135,182 135,182 134,182 z M 553,163  L 553,163 552,156 550,150 547,147 544,145 544,145 541,145 538,145 533,149 528,154 524,160 524,160 522,165 519,172 515,188 515,188 512,201 508,213 503,223 501,228 498,232 498,232 497,232 497,232 499,221 500,217 500,217 499,215 498,215 498,215 497,215 496,215 496,215 484,227 469,241 469,241 469,220 469,202 468,188 466,176 463,161 461,156 461,156 493,129 510,114 510,114 514,110 521,102 524,97 527,92 528,87 528,83 528,83 528,80 526,77 522,73 516,69 509,66 502,64 495,63 486,62 486,62 477,62 466,65 455,69 443,74 432,81 421,88 412,96 404,105 404,105 400,109 396,114 389,128 381,145 373,164 360,202 351,232 348,241 332,255 326,241 326,241 329,237 333,231 342,214 353,189 366,158 383,117 383,117 389,107 399,95 412,83 419,77 428,71 436,66 446,61 456,57 466,54 477,52 488,52 499,52 511,54 511,54 524,60 536,65 536,65 541,69 545,74 548,81 550,88 552,96 552,104 553,120 553,120 553,129 553,137 553,138 553,138 553,142 554,151 554,151 553,163 553,163 z M 519,190  L 519,190 522,179 525,171 530,166 532,164 533,164 533,164 535,165 536,166 536,166 538,171 539,177 539,185 539,194 539,194 539,194 537,202 534,209 531,215 527,219 527,219 525,220 524,220 524,220 522,219 521,217 519,211 518,202 519,190 519,190 z M 549,175  L 549,175 549,185 548,194 546,203 544,212 540,219 536,225 532,230 527,232 527,232 519,233 511,234 502,233 502,233 506,227 509,221 514,207 514,207 515,213 517,219 520,222 523,224 523,224 526,224 529,222 529,222 534,218 537,212 540,204 542,194 542,194 544,182 544,182 543,171 541,167 539,164 539,164 537,161 534,160 534,160 531,160 528,162 528,162 528,162 528,162 531,156 535,152 539,149 543,149 543,149 545,150 547,153 549,160 549,172 549,172 549,175 549,175 z M 490,238  L 366,348 366,348 365,342 365,342 367,337 367,333 367,333 421,288 462,253 480,237 495,222 495,222 494,229 490,238 490,238 z M 363,336  L 363,336 358,329 355,326 351,323 347,320 342,318 336,317 330,316 330,316 338,312 345,309 351,310 355,311 355,311 358,313 360,316 363,322 364,329 363,336 363,336 z M 326,419  L 326,419 318,421 307,423 293,423 279,422 279,422 282,418 285,414 289,403 289,403 291,407 295,410 295,410 299,413 304,414 309,415 314,415 314,415 322,413 331,408 338,402 345,395 345,395 350,388 353,380 356,373 357,365 356,359 354,352 351,347 347,342 347,342 343,340 338,338 333,338 328,338 322,339 317,341 312,344 306,348 306,348 311,340 316,331 316,331 321,325 326,320 326,320 331,320 337,321 341,322 345,324 352,328 356,334 360,339 361,344 363,351 363,351 363,353 363,353 363,364 361,376 358,386 353,395 347,403 341,410 334,416 326,419 326,419 z M 274,421  L 274,421 273,421 273,421 261,426 249,429 236,432 236,432 224,433 212,434 198,434 184,433 169,431 154,428 139,425 124,421 109,416 95,411 82,405 70,399 59,392 50,384 42,376 36,367 36,367 36,365 36,365 48,375 60,384 74,392 88,400 102,406 117,411 132,415 147,419 161,422 176,424 190,425 204,426 217,426 229,425 241,424 252,422 252,422 260,420 269,417 281,412 281,412 278,417 274,421 274,421 z M 345,346  L 345,346 348,349 351,354 352,360 353,366 352,373 350,379 346,386 342,392 342,392 336,399 329,405 321,409 313,411 313,411 309,411 305,411 301,409 297,407 297,407 293,403 290,397 290,397 292,390 292,390 296,374 302,358 302,358 307,352 313,348 318,345 324,343 330,342 335,342 340,343 345,346 345,346 z M 451,159  L 451,159 406,195 406,195 393,193 386,194 378,195 378,195 377,196 377,196 375,203 374,210 374,220 374,220 353,237 353,237 354,233 354,233 364,204 377,166 384,147 392,130 399,116 403,111 407,107 407,107 416,98 426,89 426,89 430,97 436,112 443,132 451,159 451,159 z M 378,215  L 378,215 379,205 380,199 380,199 391,198 400,198 408,199 413,200 413,200 414,208 415,214 415,214 415,215 415,215 402,218 391,219 383,219 378,219 378,219 378,215 378,215 z M 373,227  L 377,223 377,223 382,223 391,223 403,222 417,219 417,219 418,218 419,217 419,217 418,210 418,204 416,198 416,198 415,196 415,196 411,196 411,196 458,158 458,158 460,166 463,181 464,193 465,207 465,225 465,245 465,245 419,285 379,318 379,318 379,299 379,283 377,255 374,235 373,227 373,227 z M 440,81  L 440,81 452,74 464,69 476,66 481,66 486,66 486,66 494,67 507,70 513,72 519,75 523,79 524,81 524,83 524,83 524,87 523,90 518,98 513,106 508,111 508,111 493,124 465,147 465,147 458,123 451,103 444,89 440,81 440,81 z M 462,150  L 462,150 454,156 454,156 446,129 439,108 433,94 430,87 430,87 436,83 436,83 441,91 447,106 455,126 462,150 462,150 z M 262,324  L 262,324 257,333 251,343 247,352 244,362 244,362 235,363 220,365 198,365 171,364 171,364 173,360 175,356 181,349 189,344 198,340 208,336 218,333 240,329 240,329 262,324 262,324 z M 34,358  L 34,358 31,344 31,344 36,351 39,354 39,354 40,355 40,355 42,354 49,342 49,342 49,341 49,340 49,340 42,333 37,325 28,311 28,311 28,310 28,310 28,308 28,308 28,304 28,304 29,296 30,288 30,288 32,295 35,303 40,311 46,318 50,321 49,317 49,317 50,303 51,288 51,288 52,265 52,256 51,249 51,249 61,238 71,229 94,212 113,197 113,197 114,195 133,189 133,189 134,191 136,193 136,193 141,198 148,202 158,207 170,212 197,221 227,229 258,235 286,240 308,243 316,243 322,242 322,242 322,242 329,257 326,260 326,260 310,273 294,288 279,303 266,319 266,319 239,325 239,325 216,330 204,333 194,337 184,342 176,348 173,352 170,356 168,360 166,365 165,368 168,368 168,368 185,369 200,369 224,368 240,367 245,366 247,366 247,365 247,365 249,357 253,349 260,335 269,321 280,308 292,296 304,284 329,263 346,248 351,244 369,229 369,229 371,241 373,261 375,288 375,321 375,321 368,327 368,327 367,321 365,316 362,312 358,308 358,308 355,307 352,306 347,305 342,306 336,308 329,312 321,319 313,329 313,329 305,342 298,356 298,356 298,356 298,356 298,356 292,373 288,389 288,389 283,406 283,406 270,412 260,416 251,418 251,418 240,420 228,421 216,422 202,422 189,421 174,420 159,418 144,415 129,411 114,406 100,401 85,394 71,387 58,378 46,369 34,358 34,358 z M 29,320  L 29,320 36,331 45,342 45,342 40,349 40,349 35,342 30,333 30,333 29,320 29,320 z M 48,253  L 48,253 48,261 48,261 48,273 47,287 47,287 45,311 45,311 42,307 40,303 36,293 34,285 33,279 33,279 36,272 39,265 48,253 48,253 z M 139,168  L 139,168 157,148 176,127 196,108 217,90 239,73 250,65 262,58 274,52 287,46 301,41 315,37 315,37 300,43 287,49 275,55 264,62 246,74 234,83 234,84 234,84 220,94 205,107 189,122 173,138 147,167 138,177 135,182 135,182 133,185 119,189 139,168 z M 378,118  L 378,118 362,157 362,157 351,184 339,211 334,222 329,231 325,236 323,238 321,238 321,238 316,239 308,238 287,236 259,231 229,225 199,217 172,208 161,204 151,199 144,195 139,190 139,190 138,189 137,187 137,187 138,184 138,184 138,184 138,184 149,170 175,142 190,126 206,111 221,98 235,88 235,88 251,92 282,100 303,105 326,110 351,114 378,118 378,118 z M 367,28  L 367,28 383,29 399,30 416,32 432,34 463,40 492,48 492,48 482,48 472,49 462,51 453,54 444,58 435,62 427,67 420,72 406,83 394,94 386,105 380,114 380,114 355,111 331,107 289,98 257,90 239,85 239,85 256,72 267,65 280,57 295,49 312,42 330,35 350,30 350,30 367,28 367,28 z M 562,151  L 562,151 562,141 561,136 561,136 561,129 561,129 561,120 561,120 560,102 559,93 557,84 555,76 551,69 546,63 543,60 539,58 539,58 526,51 509,45 489,38 466,32 443,28 418,24 392,21 367,20 367,20 347,22 328,25 310,30 293,35 276,42 261,50 246,58 232,68 218,78 205,89 192,101 180,113 156,137 133,163 133,163 107,191 107,191 89,205 89,205 65,224 53,235 43,246 34,259 30,265 27,272 24,280 22,287 21,295 20,304 20,304 20,308 20,308 20,310 20,310 21,327 23,344 26,359 29,370 29,370 29,370 29,370 35,380 44,389 54,398 66,405 79,412 93,419 108,424 124,429 140,433 155,436 171,439 186,440 201,441 214,442 226,441 237,440 237,440 249,438 261,434 275,429 275,429 283,431 291,431 307,431 320,429 329,427 329,427 337,423 345,417 352,410 358,402 363,392 368,382 370,370 371,358 371,358 371,354 371,354 500,240 500,240 510,241 519,241 529,240 529,240 533,238 536,236 540,233 543,230 548,222 552,213 554,203 556,193 557,184 557,175 557,175 557,174 557,174 560,169 561,163 562,151 562,151 z" fill-rule="nonzero"/>
</g>
</svg>