<?xml version="1.0" encoding="utf-8"?>
<!DOCTYPE svg PUBLIC "-//W3C//DTD SVG 1.0//EN" "http://www.w3.org/TR/2001/REC-SVG-20010904/DTD/svg10.dtd">
<svg aria-labelledby="title desc" fill-rule="evenodd" height="1.578in" preserveAspectRatio="none" stroke-linecap="round" viewBox="0 0 1953 1578" width="1.953in" xmlns="http://www.w3.org/2000/svg" xmlns:xlink="http://www.w3.org/1999/xlink"><title>art supplies,arts,brushes,paintbrushes,painting,paints,palettes</title><desc>Original keywords: art supplies,arts,brushes,paintbrushes,painting,paints,palettes. This clipart was ripped from the Microsoft website, then uploaded to https://archive.org/details/MS_Clipart_Collection. (The original WMF file can be found within that item, under the folder MC900199583). From there, it was then converted by Trumad to svg using https://github.com/hidekatsu-izuno/wmf2svg in a bulk operation. All the converted files can be found at https://archive.org/details/MS_Clipart_Collection_SVG</desc>
<style type="text/css">
.brush0 { fill: rgb(255,255,255); }
.pen0 { stroke: rgb(0,0,0); stroke-width: 1; stroke-linejoin: round; }
.brush1 { fill: none; }
.pen1 { stroke: none; }
.brush2 { fill: rgb(191,191,255); }
.brush3 { fill: rgb(0,0,0); }
.brush4 { fill: rgb(255,191,191); }
.brush5 { fill: rgb(255,255,191); }
.brush6 { fill: rgb(191,255,191); }
.brush7 { fill: rgb(191,191,191); }
</style>
<g>
<polygon class="pen1 brush2" points="190,0 230,1360 1953,1481 1904,198 190,0"/>
<polygon class="pen1 brush3" points="405,782 407,797 411,812 415,828 421,843 429,859 437,874 447,890 458,905 470,921 483,937 498,953 513,969 530,985 548,1000 567,1016 587,1032 606,1046 626,1061 647,1075 669,1089 691,1103 713,1117 736,1131 760,1144 783,1158 807,1171 831,1184 856,1196 880,1208 905,1220 929,1231 954,1242 978,1252 1002,1262 1026,1271 1050,1279 1073,1287 1096,1294 1118,1300 1140,1306 1161,1310 1181,1314 1201,1317 1220,1319 1238,1321 1255,1321 1272,1320 1287,1318 1312,1312 1338,1302 1365,1289 1392,1273 1420,1254 1447,1232 1475,1209 1502,1183 1529,1155 1556,1126 1582,1096 1607,1064 1631,1032 1655,1000 1677,967 1698,935 1713,910 1729,882 1744,853 1759,822 1774,790 1788,757 1801,724 1814,691 1824,659 1834,627 1842,598 1848,569 1852,543 1854,520 1854,500 1851,483 1843,465 1831,448 1816,432 1797,416 1775,402 1751,388 1725,375 1698,363 1671,352 1643,341 1616,332 1590,323 1566,315 1543,308 1523,301 1506,296 1477,287 1449,278 1421,270 1393,263 1365,256 1338,250 1312,245 1287,241 1262,238 1239,236 1217,234 1196,233 1177,234 1160,235 1144,237 1130,240 1103,250 1081,265 1063,283 1049,305 1037,329 1027,355 1019,382 1011,409 1005,433 998,457 990,479 980,500 969,518 955,533 939,546 919,554 905,557 893,559 880,559 869,558 858,556 847,553 837,549 827,544 817,539 808,532 799,525 791,518 782,510 774,502 766,494 758,486 748,476 737,466 727,456 716,447 705,440 694,434 683,430 671,427 662,426 653,427 643,427 633,429 622,431 611,434 599,438 588,442 576,448 564,454 552,461 540,468 528,476 516,485 504,495 493,506 474,526 456,550 439,577 425,609 413,645 405,686 402,732 405,782"/>
<polygon class="pen1 brush0" points="675,445 689,448 702,455 715,463 728,474 741,486 753,499 767,512 781,526 795,539 810,550 826,561 844,569 862,575 883,578 904,577 928,572 950,563 969,549 984,532 996,512 1007,490 1015,466 1023,440 1030,415 1037,389 1045,364 1054,340 1065,317 1078,297 1095,281 1115,267 1139,258 1153,255 1169,253 1187,252 1206,252 1227,253 1249,254 1272,257 1296,260 1321,265 1347,269 1373,275 1400,282 1427,289 1454,296 1481,305 1508,313 1535,323 1561,333 1587,343 1612,354 1636,365 1659,377 1681,388 1702,401 1721,413 1739,426 1755,439 1769,452 1781,465 1791,479 1799,492 1804,506 1807,538 1802,579 1789,627 1769,680 1743,738 1711,800 1675,862 1635,925 1591,987 1545,1046 1498,1101 1450,1150 1402,1192 1354,1226 1309,1251 1265,1264 1243,1267 1219,1268 1193,1267 1165,1265 1136,1261 1106,1255 1075,1249 1042,1241 1009,1231 975,1221 941,1209 907,1196 872,1182 838,1167 803,1151 770,1134 736,1117 704,1098 672,1079 642,1059 612,1038 585,1017 558,996 534,973 511,951 491,928 473,905 457,882 444,858 434,834 426,811 422,787 419,741 422,699 429,661 439,626 453,594 470,565 489,540 510,518 532,499 555,483 577,469 600,459 621,452 641,447 659,445 675,445"/>
<polygon class="pen1 brush3" points="1182,291 1169,289 1156,289 1144,291 1133,295 1122,301 1112,308 1103,317 1095,328 1088,342 1083,358 1080,375 1080,393 1083,412 1089,430 1098,448 1110,465 1121,477 1133,488 1145,497 1158,505 1171,512 1184,517 1198,520 1212,522 1226,522 1240,521 1255,518 1269,513 1283,507 1296,500 1310,491 1323,480 1335,467 1343,452 1346,436 1344,419 1341,408 1335,397 1329,386 1321,376 1312,366 1302,356 1291,347 1280,338 1267,330 1255,322 1242,315 1230,309 1217,303 1205,298 1193,294 1182,291"/>
<polygon class="pen1 brush2" points="1213,317 1185,315 1160,323 1141,338 1127,358 1119,383 1119,410 1126,437 1143,463 1163,484 1182,498 1201,505 1219,506 1237,501 1257,492 1279,477 1302,458 1320,437 1327,415 1323,394 1312,374 1293,355 1269,339 1242,326 1213,317"/>
<polygon class="pen1 brush4" points="1676,476 1381,579 1723,668 1676,476"/>
<polygon class="pen1 brush5" points="1320,640 1610,818 1526,987 1320,640"/>
<polygon class="pen1 brush6" points="1203,696 1414,1080 1184,1220 1203,696"/>
<polygon class="pen1 brush2" points="1062,748 917,1146 692,1029 1062,748"/>
<polygon class="pen1 brush7" points="819,766 594,912 468,766 819,766"/>
<polygon class="pen1 brush3" points="927,162 463,1029 454,1206 496,1224 599,1104 927,162"/>
<polygon class="pen1 brush3" points="252,1487 1891,1552 1863,837 1821,1496 252,1487"/>
<polygon class="pen1 brush3" points="183,1174 113,83 866,101 174,148 183,1174"/>
<polygon class="pen1 brush3" points="1386,92 1933,64 1915,130 1386,92"/>
<polygon class="pen1 brush0" points="842,373 561,1029 496,1192 585,1071 842,373"/>
<polygon class="pen1 brush3" points="522,1228 523,1218 514,1214 463,1192 456,1188 449,1194 442,1200 430,1211 414,1225 397,1244 380,1264 365,1287 354,1310 348,1333 349,1354 355,1369 362,1381 367,1389 361,1394 351,1400 337,1406 320,1412 301,1419 279,1426 255,1432 229,1438 202,1444 173,1449 144,1454 115,1457 85,1460 56,1462 28,1462 0,1461 94,1515 117,1524 142,1531 169,1538 197,1544 227,1549 258,1552 289,1554 319,1555 349,1554 379,1552 407,1548 433,1542 457,1535 479,1526 498,1514 513,1501 533,1468 544,1427 547,1383 544,1339 538,1297 530,1263 524,1239 522,1228"/>
<polygon class="pen1 brush0" points="458,1205 455,1208 449,1217 439,1231 428,1248 417,1269 407,1290 399,1312 395,1334 393,1366 395,1383 398,1389 400,1390 399,1391 394,1395 388,1401 378,1409 366,1418 352,1429 335,1440 317,1451 296,1462 273,1472 248,1482 222,1490 193,1497 163,1501 132,1504 99,1503 120,1511 141,1518 164,1523 187,1528 211,1532 235,1534 258,1535 282,1535 305,1534 327,1531 349,1527 369,1521 388,1513 406,1504 421,1493 435,1480 458,1448 475,1410 488,1368 497,1326 503,1288 506,1256 508,1235 508,1227 458,1205"/>
</g>
</svg>