<?xml version="1.0" encoding="utf-8"?>
<!DOCTYPE svg PUBLIC "-//W3C//DTD SVG 1.0//EN" "http://www.w3.org/TR/2001/REC-SVG-20010904/DTD/svg10.dtd">
<svg aria-labelledby="title desc" fill-rule="evenodd" height="1.342in" preserveAspectRatio="none" stroke-linecap="round" viewBox="0 0 2033 1342" width="2.033in" xmlns="http://www.w3.org/2000/svg" xmlns:xlink="http://www.w3.org/1999/xlink"><title>audio systems,boomboxes,cassette players,entertainment,household,music,radios,stereos,tapes,appliances</title><desc>Original keywords: audio systems,boomboxes,cassette players,entertainment,household,music,radios,stereos,tapes,appliances. This clipart was ripped from the Microsoft website, then uploaded to https://archive.org/details/MS_Clipart_Collection. (The original WMF file can be found within that item, under the folder MC900240123). From there, it was then converted by Trumad to svg using https://github.com/hidekatsu-izuno/wmf2svg in a bulk operation. All the converted files can be found at https://archive.org/details/MS_Clipart_Collection_SVG</desc>
<style type="text/css">
.brush0 { fill: rgb(255,255,255); }
.pen0 { stroke: rgb(0,0,0); stroke-width: 1; stroke-linejoin: round; }
.brush1 { fill: none; }
.pen1 { stroke: none; }
.brush2 { fill: rgb(0,0,0); }
.brush3 { fill: rgb(188,188,188); }
.brush4 { fill: rgb(209,209,209); }
</style>
<g>
<polygon class="pen1 brush2" points="1827,479 241,598 238,599 231,601 220,606 206,613 188,622 169,634 148,648 127,666 106,687 85,712 65,741 47,773 32,810 20,851 12,897 8,948 10,999 17,1046 29,1090 46,1129 65,1165 87,1197 111,1226 136,1251 161,1273 185,1292 208,1308 228,1320 245,1330 258,1337 267,1341 270,1342 1720,1329 1827,479"/>
<polygon class="pen1 brush2" points="372,598 1640,0 365,649 372,598"/>
<polygon class="pen1 brush3" points="232,1258 258,1265 285,1268 312,1268 338,1265 365,1260 390,1251 415,1239 440,1225 463,1209 485,1190 506,1168 525,1145 543,1119 558,1092 572,1063 583,1032 591,1000 597,968 600,937 600,906 598,876 593,846 586,818 576,791 565,766 550,742 534,720 516,700 496,682 474,667 450,655 425,645 399,638 372,635 345,635 319,638 292,643 267,652 242,664 217,678 194,694 172,713 151,735 132,758 114,784 99,811 85,840 74,871 65,903 60,935 57,966 57,997 59,1027 64,1057 71,1085 80,1112 92,1137 106,1161 122,1183 140,1203 161,1221 183,1236 206,1248 232,1258"/>
<polygon class="pen1 brush0" points="511,620 517,621 532,628 553,642 577,667 602,706 624,761 641,836 649,933 648,985 642,1032 632,1074 618,1111 602,1144 583,1172 563,1197 543,1217 522,1235 501,1249 482,1261 465,1269 451,1276 440,1280 433,1282 430,1283 1669,1276 1793,508 511,620"/>
<polygon class="pen1 brush3" points="1312,799 676,824 676,926 1312,906 1312,799"/>
<polygon class="pen1 brush2" points="379,627 37,970 41,967 52,960 69,948 90,932 116,912 145,890 176,866 208,839 240,812 271,783 300,755 326,727 347,699 364,673 375,649 379,627"/>
<polygon class="pen1 brush2" points="540,678 73,1152 78,1148 93,1138 115,1121 145,1098 180,1071 219,1041 261,1006 304,970 347,931 389,892 429,853 464,814 494,776 518,740 534,707 540,678"/>
<polygon class="pen1 brush2" points="620,875 204,1239 208,1236 220,1229 238,1217 262,1202 290,1182 322,1160 357,1136 393,1109 430,1080 466,1051 501,1021 533,990 563,960 587,930 607,902 620,875"/>
<polygon class="pen1 brush2" points="605,1028 321,1290 324,1288 334,1282 349,1272 368,1259 391,1244 417,1226 444,1207 471,1186 499,1165 525,1143 549,1121 570,1100 587,1079 599,1060 605,1043 605,1028"/>
<polygon class="pen1 brush2" points="197,649 635,1057 632,1052 623,1039 608,1017 589,990 566,958 539,922 509,884 476,845 442,806 406,768 370,734 333,703 297,678 262,660 228,650 197,649"/>
<polygon class="pen1 brush2" points="80,758 489,1188 489,1187 490,1184 491,1180 490,1172 487,1162 481,1148 471,1131 457,1110 437,1084 412,1054 379,1019 338,979 289,933 230,881 160,823 80,758"/>
<polygon class="pen1 brush2" points="44,882 307,1239 304,1236 295,1228 281,1215 264,1198 243,1177 220,1153 195,1127 170,1099 145,1070 121,1040 98,1010 79,981 63,953 51,927 44,903 44,882"/>
<polygon class="pen1 brush2" points="1261,729 1268,1086 664,1115 1312,1137 1261,729"/>
<polygon class="pen1 brush2" points="1217,1250 1237,1248 1255,1242 1272,1233 1286,1221 1298,1207 1307,1190 1313,1172 1315,1152 1313,1132 1307,1114 1298,1097 1286,1083 1272,1071 1255,1062 1237,1056 1217,1054 1197,1056 1179,1062 1162,1071 1148,1083 1136,1097 1127,1114 1121,1132 1119,1152 1121,1172 1127,1190 1136,1207 1148,1221 1162,1233 1179,1242 1197,1248 1217,1250"/>
<polygon class="pen1 brush4" points="1197,1224 1217,1222 1235,1216 1252,1207 1266,1196 1278,1181 1287,1165 1293,1146 1295,1126 1293,1106 1287,1088 1278,1071 1266,1057 1252,1045 1235,1036 1217,1030 1197,1028 1177,1030 1159,1036 1142,1045 1128,1057 1116,1071 1107,1088 1101,1106 1099,1126 1101,1146 1107,1165 1116,1181 1128,1196 1142,1207 1159,1216 1177,1222 1197,1224"/>
<polygon class="pen1 brush2" points="717,1238 729,1237 740,1235 750,1232 759,1227 766,1221 771,1215 775,1208 776,1201 775,1193 771,1186 766,1180 759,1174 750,1169 740,1166 729,1164 717,1163 705,1164 694,1166 685,1169 676,1174 669,1180 664,1186 660,1193 659,1201 660,1208 664,1215 669,1221 676,1227 685,1232 694,1235 705,1237 717,1238"/>
<polygon class="pen1 brush2" points="919,1238 931,1237 941,1235 951,1232 960,1227 966,1221 972,1215 975,1208 976,1201 975,1193 972,1186 966,1180 960,1174 951,1169 941,1166 931,1164 919,1163 907,1164 896,1166 887,1169 878,1174 871,1180 866,1186 862,1193 861,1201 862,1208 866,1215 871,1221 878,1227 887,1232 896,1235 907,1237 919,1238"/>
<polygon class="pen1 brush2" points="1549,1269 1580,1277 1611,1280 1643,1280 1675,1277 1707,1270 1738,1260 1768,1246 1798,1230 1826,1211 1853,1189 1878,1164 1902,1137 1923,1107 1942,1075 1958,1041 1971,1005 1981,968 1987,931 1990,895 1989,859 1986,824 1979,790 1969,757 1957,726 1942,696 1924,669 1904,643 1882,620 1858,599 1832,582 1804,567 1774,556 1743,548 1712,544 1681,544 1650,547 1619,554 1589,564 1560,578 1532,594 1505,613 1479,636 1455,660 1433,687 1413,717 1395,749 1379,783 1366,819 1356,856 1349,893 1346,929 1346,965 1348,1000 1354,1034 1362,1067 1373,1098 1387,1128 1403,1156 1422,1181 1443,1204 1466,1225 1492,1243 1519,1258 1549,1269"/>
<polygon class="pen1 brush3" points="1564,1219 1591,1226 1617,1229 1644,1229 1671,1226 1697,1220 1723,1211 1748,1200 1773,1186 1796,1169 1818,1150 1839,1129 1858,1105 1875,1080 1890,1052 1904,1023 1915,992 1924,960 1930,929 1933,897 1933,867 1931,836 1926,807 1919,779 1909,752 1897,727 1883,703 1867,681 1849,661 1829,643 1807,628 1783,615 1758,605 1732,598 1705,595 1678,595 1652,598 1625,604 1599,613 1574,624 1550,639 1527,655 1504,674 1484,696 1465,719 1447,745 1432,772 1418,801 1407,832 1398,864 1393,895 1390,927 1389,958 1392,988 1396,1017 1404,1045 1413,1072 1425,1098 1439,1122 1455,1144 1473,1164 1493,1181 1515,1197 1539,1209 1564,1219"/>
<polygon class="pen1 brush2" points="1712,588 1370,930 1374,927 1385,920 1402,908 1423,892 1449,873 1478,851 1509,826 1541,800 1573,772 1604,744 1633,716 1659,687 1680,660 1697,634 1708,610 1712,588"/>
<polygon class="pen1 brush2" points="1873,639 1406,1113 1411,1109 1426,1099 1448,1082 1478,1059 1513,1032 1552,1001 1593,967 1637,930 1680,892 1722,853 1761,813 1797,774 1827,737 1851,701 1866,668 1873,639"/>
<polygon class="pen1 brush2" points="1953,835 1537,1200 1541,1197 1553,1190 1571,1178 1595,1163 1623,1143 1655,1121 1690,1096 1726,1070 1763,1041 1799,1012 1834,981 1866,951 1896,920 1920,891 1940,862 1953,835"/>
<polygon class="pen1 brush2" points="1938,989 1654,1251 1657,1249 1667,1243 1682,1233 1701,1220 1724,1205 1750,1187 1777,1168 1804,1147 1832,1126 1858,1104 1882,1082 1903,1061 1920,1040 1932,1021 1938,1004 1938,989"/>
<polygon class="pen1 brush2" points="1530,609 1967,1018 1964,1013 1955,1000 1940,978 1921,951 1898,919 1871,883 1841,845 1809,806 1774,767 1739,729 1702,695 1666,664 1630,639 1595,621 1561,610 1530,609"/>
<polygon class="pen1 brush2" points="1413,719 1822,1149 1822,1148 1823,1145 1824,1141 1823,1133 1820,1123 1814,1109 1804,1092 1790,1070 1770,1045 1745,1015 1712,980 1671,940 1622,894 1563,842 1493,784 1413,719"/>
<polygon class="pen1 brush2" points="1377,843 1639,1200 1636,1197 1627,1189 1614,1176 1596,1159 1575,1138 1552,1114 1528,1088 1502,1060 1477,1031 1453,1001 1431,971 1412,942 1396,914 1384,888 1377,864 1377,843"/>
<polygon class="pen1 brush2" points="725,955 720,785 1234,775 763,809 725,955"/>
<polygon class="pen1 brush2" points="681,960 671,1018 1239,999 1234,940 681,960"/>
<polygon class="pen1 brush2" points="822,965 836,829 870,974 822,965"/>
<polygon class="pen1 brush2" points="958,552 958,479 832,484 832,556 958,552"/>
<polygon class="pen1 brush2" points="1152,541 1151,466 1034,470 1035,545 1152,541"/>
<polygon class="pen1 brush2" points="1327,530 1326,453 1219,455 1220,533 1327,530"/>
</g>
</svg>