<?xml version="1.0" encoding="UTF-8"?>
<!DOCTYPE svg PUBLIC "-//W3C//DTD SVG 1.0//EN" "http://www.w3.org/TR/2001/REC-SVG-20010904/DTD/svg10.dtd">
<svg aria-labelledby="title desc" fill-rule="evenodd" height="1.32in" preserveAspectRatio="none" stroke-linecap="round" viewBox="0 0 1999 1320" width="1.999in" xmlns="http://www.w3.org/2000/svg" xmlns:xlink="http://www.w3.org/1999/xlink"><title>cameras,digital cameras,digital photography,hobbies,households,leisure,photography</title><desc>Original keywords: cameras,digital cameras,digital photography,hobbies,households,leisure,photography. This clipart was ripped from the Microsoft website, then uploaded to https://archive.org/details/MS_Clipart_Collection. (The original WMF file can be found within that item, under the folder MC900398473). From there, it was then converted by Trumad to svg using https://github.com/hidekatsu-izuno/wmf2svg in a bulk operation. All the converted files can be found at https://archive.org/details/MS_Clipart_Collection_SVG</desc>
<style type="text/css">
.brush0 { fill: rgb(255,255,255); }
.pen0 { stroke: rgb(0,0,0); stroke-width: 1; stroke-linejoin: round; }
.brush1 { fill: none; }
.pen1 { stroke: none; }
.brush2 { fill: rgb(216,216,216); }
.brush3 { fill: rgb(68,68,86); }
.brush4 { fill: rgb(137,130,127); }
.brush5 { fill: rgb(142,135,135); }
.brush6 { fill: rgb(147,140,140); }
.brush7 { fill: rgb(153,145,147); }
.brush8 { fill: rgb(158,150,155); }
.brush9 { fill: rgb(163,155,163); }
.brush10 { fill: rgb(165,158,165); }
.brush11 { fill: rgb(170,163,173); }
.brush12 { fill: rgb(175,168,181); }
.brush13 { fill: rgb(181,173,188); }
.brush14 { fill: rgb(186,178,193); }
.brush15 { fill: rgb(191,183,201); }
.brush16 { fill: rgb(89,79,96); }
.brush17 { fill: rgb(155,147,145); }
.brush18 { fill: rgb(160,153,150); }
.brush19 { fill: rgb(165,158,158); }
.brush20 { fill: rgb(173,163,165); }
.brush21 { fill: rgb(178,168,170); }
.brush22 { fill: rgb(183,173,175); }
.brush23 { fill: rgb(188,178,183); }
.brush24 { fill: rgb(193,183,188); }
.brush25 { fill: rgb(198,188,193); }
.brush26 { fill: rgb(206,193,201); }
.brush27 { fill: rgb(211,198,209); }
.brush28 { fill: rgb(216,204,214); }
.brush29 { fill: rgb(127,112,127); }
.brush30 { fill: rgb(104,94,99); }
.brush31 { fill: rgb(181,186,196); }
.brush32 { fill: rgb(186,191,201); }
.brush33 { fill: rgb(193,198,206); }
.brush34 { fill: rgb(201,206,214); }
.brush35 { fill: rgb(209,211,219); }
.brush36 { fill: rgb(214,216,224); }
.brush37 { fill: rgb(221,224,226); }
.brush38 { fill: rgb(226,229,232); }
.brush39 { fill: rgb(234,234,237); }
.brush40 { fill: rgb(242,242,244); }
.brush41 { fill: rgb(249,249,249); }
.brush42 { fill: rgb(0,104,130); }
.brush43 { fill: rgb(0,33,58); }
.brush44 { fill: rgb(86,76,81); }
.brush45 { fill: rgb(94,84,89); }
.brush46 { fill: rgb(102,94,96); }
.brush47 { fill: rgb(112,102,104); }
.brush48 { fill: rgb(119,109,112); }
.brush49 { fill: rgb(127,117,119); }
.brush50 { fill: rgb(137,130,130); }
.brush51 { fill: rgb(145,137,137); }
.brush52 { fill: rgb(153,145,145); }
.brush53 { fill: rgb(163,153,153); }
.brush54 { fill: rgb(170,163,160); }
.brush55 { fill: rgb(178,170,168); }
.brush56 { fill: rgb(158,150,147); }
.brush57 { fill: rgb(160,155,153); }
.brush58 { fill: rgb(165,160,158); }
.brush59 { fill: rgb(168,163,163); }
.brush60 { fill: rgb(170,168,165); }
.brush61 { fill: rgb(175,170,170); }
.brush62 { fill: rgb(178,175,173); }
.brush63 { fill: rgb(181,178,178); }
.brush64 { fill: rgb(186,183,183); }
.brush65 { fill: rgb(188,188,188); }
.brush66 { fill: rgb(191,191,191); }
.brush67 { fill: rgb(86,96,122); }
.brush68 { fill: rgb(114,107,107); }
.brush69 { fill: rgb(163,155,153); }
.brush70 { fill: rgb(168,158,160); }
.brush71 { fill: rgb(175,165,168); }
.brush72 { fill: rgb(181,170,173); }
.brush73 { fill: rgb(186,175,181); }
.brush74 { fill: rgb(191,181,186); }
.brush75 { fill: rgb(196,183,191); }
.brush76 { fill: rgb(198,186,193); }
.brush77 { fill: rgb(201,188,198); }
.brush78 { fill: rgb(206,193,204); }
.brush79 { fill: rgb(209,196,206); }
.brush80 { fill: rgb(221,209,216); }
.brush81 { fill: rgb(183,175,173); }
.brush82 { fill: rgb(183,178,178); }
.brush83 { fill: rgb(188,183,183); }
.brush84 { fill: rgb(193,188,188); }
.brush85 { fill: rgb(198,193,193); }
.brush86 { fill: rgb(198,196,198); }
.brush87 { fill: rgb(204,201,204); }
.brush88 { fill: rgb(209,206,209); }
.brush89 { fill: rgb(214,211,214); }
.brush90 { fill: rgb(214,214,219); }
.brush91 { fill: rgb(219,219,224); }
.brush92 { fill: rgb(61,58,56); }
.brush93 { fill: rgb(0,0,15); }
.brush94 { fill: rgb(0,53,109); }
.brush95 { fill: rgb(0,58,112); }
.brush96 { fill: rgb(0,66,114); }
.brush97 { fill: rgb(0,68,114); }
.brush98 { fill: rgb(2,73,117); }
.brush99 { fill: rgb(15,81,119); }
.brush100 { fill: rgb(30,86,124); }
.brush101 { fill: rgb(43,94,127); }
.brush102 { fill: rgb(56,99,130); }
.brush103 { fill: rgb(66,102,130); }
.brush104 { fill: rgb(81,109,132); }
.brush105 { fill: rgb(94,114,135); }
.brush106 { fill: rgb(0,22,48); }
.brush107 { fill: rgb(89,89,107); }
</style>
<g>
<polygon class="pen1 brush2" points="696,589 769,565 966,521 1952,631 1963,651 1971,671 1976,691 1976,712 1969,735 1956,762 1935,792 1904,827 1897,843 1888,860 1879,878 1868,896 1855,916 1841,935 1826,956 1810,976 1793,997 1774,1018 1754,1038 1733,1059 1711,1078 1688,1098 1663,1116 1638,1134 1613,1151 1588,1167 1564,1181 1541,1195 1518,1207 1497,1218 1475,1229 1455,1238 1435,1246 1416,1253 1398,1259 1380,1264 1363,1268 1347,1272 1332,1274 1317,1276 1241,1260 1146,1264 251,1076 207,1047 257,964 398,800 568,663 696,589"/>
<polygon class="pen1 brush3" points="59,139 100,95 238,20 1448,177 1478,204 1500,229 1517,254 1530,282 1538,316 1543,357 1547,408 1549,472 1558,540 1563,624 1566,720 1564,822 1558,924 1546,1021 1528,1107 1504,1177 1497,1187 1487,1198 1474,1210 1459,1221 1442,1233 1424,1244 1405,1254 1385,1264 1366,1272 1347,1280 1329,1285 1313,1289 1299,1291 1288,1291 1280,1288 1275,1283 1222,1285 1182,1291 134,1062 63,1013 23,871 2,498 16,263 59,139"/>
<polygon class="pen1 brush4" points="20,201 61,139 143,139 1248,300 1355,348 1396,417 1413,487 1424,560 1430,636 1433,713 1432,792 1429,871 1426,949 1424,1026 1421,1067 1413,1111 1400,1154 1384,1194 1363,1230 1339,1258 1310,1277 1278,1285 1178,1291 171,1080 148,1075 125,1071 103,1064 81,1053 61,1037 43,1012 26,977 12,930 5,761 4,570 9,378 20,201"/>
<polygon class="pen1 brush5" points="23,199 28,192 33,184 38,177 43,170 47,162 52,155 57,148 62,141 71,141 81,141 90,141 100,141 110,141 119,141 129,141 138,141 170,146 203,150 235,155 267,160 300,164 332,169 364,174 397,178 429,183 461,188 494,193 526,197 558,202 591,207 623,211 656,216 688,221 720,225 753,230 785,235 817,239 850,244 882,249 914,253 947,258 979,263 1011,268 1044,272 1076,277 1108,282 1141,286 1173,291 1185,297 1198,302 1210,308 1222,313 1234,319 1246,325 1258,330 1270,336 1275,345 1280,353 1285,362 1290,370 1295,378 1300,386 1305,395 1310,403 1326,468 1336,536 1342,606 1344,678 1343,751 1341,825 1338,898 1336,970 1332,1009 1325,1049 1313,1089 1298,1127 1279,1160 1256,1186 1230,1205 1200,1212 1188,1213 1177,1213 1165,1214 1153,1215 1141,1216 1129,1216 1117,1217 1105,1218 1076,1212 1046,1206 1017,1199 987,1193 958,1187 928,1181 899,1175 870,1169 840,1162 811,1156 781,1150 752,1144 723,1138 693,1131 664,1125 635,1119 605,1113 576,1107 546,1101 517,1094 488,1088 458,1082 429,1076 399,1070 370,1064 341,1058 311,1052 282,1045 252,1039 223,1033 193,1027 164,1021 142,1017 121,1012 100,1006 81,995 62,980 45,956 29,924 16,880 9,722 8,544 12,364 23,199"/>
<polygon class="pen1 brush6" points="26,196 31,189 35,182 40,176 44,169 49,162 53,155 58,149 62,142 71,142 80,142 89,142 98,142 106,142 115,142 124,142 133,142 163,146 193,151 223,155 253,160 283,164 314,168 344,173 374,177 404,182 434,186 464,190 494,195 524,199 554,204 585,208 615,212 645,217 675,221 705,226 735,230 765,234 795,239 826,243 856,247 886,252 916,256 946,260 976,265 1006,269 1037,273 1067,278 1097,282 1108,288 1119,293 1130,299 1142,304 1153,309 1164,314 1176,320 1187,325 1192,333 1196,341 1201,349 1206,356 1210,364 1215,372 1220,380 1225,388 1239,448 1248,511 1253,576 1255,643 1254,710 1252,778 1249,846 1247,913 1244,949 1237,987 1226,1024 1212,1059 1195,1089 1173,1114 1149,1131 1121,1139 1110,1140 1099,1140 1088,1141 1077,1142 1066,1143 1055,1143 1044,1144 1033,1144 1006,1138 978,1133 951,1127 924,1121 896,1115 869,1110 841,1104 814,1098 787,1093 759,1087 732,1081 705,1075 677,1070 650,1064 622,1058 595,1052 568,1047 540,1041 513,1035 486,1030 458,1024 431,1018 403,1012 376,1007 349,1001 321,995 294,990 267,984 239,978 212,972 184,967 157,961 137,957 117,953 98,947 80,937 62,923 46,901 32,871 20,830 13,682 12,517 16,350 26,196"/>
<polygon class="pen1 brush7" points="29,194 33,188 37,181 41,175 46,169 50,163 54,157 58,150 62,144 70,144 79,144 87,144 95,144 103,144 112,144 120,144 128,144 156,148 184,152 212,156 239,160 267,164 295,168 323,172 351,176 379,180 406,185 434,189 462,193 490,197 518,201 546,205 574,209 601,213 629,217 657,221 685,225 713,229 741,233 768,238 796,242 824,246 852,250 880,254 908,258 935,262 963,266 991,270 1019,274 1029,279 1040,284 1050,289 1061,294 1071,299 1081,304 1092,309 1102,314 1107,321 1111,329 1116,336 1120,344 1125,351 1129,359 1134,366 1139,374 1152,430 1161,488 1166,547 1168,608 1168,670 1166,732 1163,795 1161,857 1157,891 1150,925 1140,960 1127,991 1110,1020 1090,1043 1067,1059 1041,1066 1031,1067 1021,1067 1011,1068 1001,1068 991,1069 981,1070 971,1070 961,1071 936,1066 910,1060 885,1055 860,1050 834,1045 809,1039 784,1034 758,1029 733,1024 708,1018 682,1013 657,1008 632,1002 606,997 581,992 556,986 530,981 505,976 479,971 454,965 429,960 403,955 378,949 353,944 327,939 302,934 277,928 251,923 226,918 201,913 175,907 150,902 132,898 114,894 96,888 79,879 63,866 49,845 35,817 24,780 18,643 16,490 19,336 29,194"/>
<polygon class="pen1 brush8" points="32,192 36,186 40,180 44,174 48,169 51,163 55,157 59,152 63,146 71,146 78,146 86,146 93,146 101,146 108,146 116,146 123,146 149,150 174,153 200,157 225,161 251,165 277,168 302,172 328,176 353,180 379,183 405,187 430,191 456,194 481,198 507,202 533,205 558,209 584,213 609,217 635,220 660,224 686,228 712,231 737,235 763,239 788,243 814,246 840,250 865,254 891,258 916,261 942,265 951,270 961,274 970,279 980,283 989,288 998,293 1008,297 1017,302 1021,309 1025,316 1030,323 1034,330 1038,337 1043,344 1047,352 1051,359 1064,411 1072,464 1077,518 1079,573 1079,630 1077,686 1075,743 1073,800 1069,831 1062,863 1052,894 1040,923 1025,949 1007,970 986,985 962,993 953,994 943,994 934,995 925,995 916,996 907,997 898,997 889,998 866,993 842,988 819,983 796,978 772,974 749,969 726,964 702,959 679,954 656,949 633,944 609,939 586,935 563,930 539,925 516,920 493,915 470,910 446,905 423,900 400,896 377,891 353,886 330,881 307,876 284,871 260,866 237,861 214,857 191,852 167,847 144,842 127,839 110,835 94,830 78,821 64,808 50,790 38,764 28,729 22,603 20,463 23,322 32,192"/>
<polygon class="pen1 brush9" points="35,189 42,179 49,168 56,158 63,148 70,148 77,148 84,148 91,148 97,148 104,148 111,148 118,148 141,151 165,155 188,158 211,161 235,165 258,168 281,172 305,175 328,178 351,182 375,185 398,188 421,192 445,195 468,199 492,202 515,205 538,209 562,212 585,215 608,219 632,222 655,226 678,229 702,232 725,236 748,239 772,242 795,246 818,249 842,253 865,256 874,260 882,265 891,269 899,273 907,278 915,282 924,287 932,291 936,298 940,304 944,311 948,318 952,325 956,331 960,338 964,345 976,392 984,440 989,489 991,538 990,589 989,640 986,691 984,743 980,772 974,801 965,829 954,856 940,879 923,899 904,913 882,920 874,921 866,921 857,922 849,922 841,923 833,924 824,924 816,925 795,920 774,916 752,911 731,907 710,902 689,898 668,893 646,889 625,884 604,880 583,875 561,871 540,866 519,862 498,858 477,853 455,849 434,844 413,840 392,835 370,831 349,827 328,822 307,818 285,813 264,809 243,804 222,800 201,795 179,791 158,786 137,782 121,779 106,776 91,771 77,763 64,751 52,734 41,711 31,679 25,564 23,436 26,307 35,189"/>
<polygon class="pen1 brush10" points="38,187 45,177 51,168 57,159 63,149 69,149 76,149 82,149 88,149 95,149 101,149 107,149 113,149 134,152 155,155 176,158 197,161 218,164 240,167 261,171 282,174 303,177 324,180 345,183 366,186 387,189 408,192 429,195 451,198 472,201 493,204 514,207 535,210 556,213 577,216 598,219 619,222 640,225 661,229 683,232 704,235 725,238 746,241 767,244 788,247 795,251 803,255 810,259 818,263 825,267 832,272 840,276 847,280 851,286 855,293 858,299 862,305 866,311 870,317 873,324 877,330 888,372 896,415 900,459 902,504 902,549 900,594 898,640 896,687 892,713 886,739 878,764 868,788 855,809 840,826 823,839 803,847 796,848 788,848 781,849 774,849 766,850 759,850 751,851 744,851 706,843 667,835 629,827 590,819 552,811 514,803 475,795 437,787 399,779 360,771 322,763 284,755 245,747 207,739 168,731 130,723 116,720 102,716 89,712 77,705 65,694 54,679 44,657 35,628 30,524 28,409 30,293 38,187"/>
<polygon class="pen1 brush11" points="41,185 47,176 53,167 58,159 64,151 70,151 75,151 81,151 86,151 91,151 97,151 102,151 108,151 146,156 183,162 221,167 259,173 296,178 334,184 372,189 410,195 447,200 485,206 523,211 560,217 598,222 636,228 673,233 711,239 717,242 724,246 730,249 736,253 743,256 749,260 755,264 761,268 768,280 776,292 783,304 790,316 800,354 807,392 811,430 813,469 813,508 812,548 810,588 808,630 804,653 798,677 790,699 781,720 770,739 757,755 741,767 724,775 717,775 711,776 704,776 698,776 691,777 684,777 678,778 671,778 637,771 603,764 569,757 534,749 500,742 466,735 432,728 397,721 363,714 329,707 295,699 260,692 226,685 192,678 157,670 123,663 111,661 99,658 87,654 76,647 65,638 56,624 47,604 39,579 33,485 31,382 33,278 41,185"/>
<polygon class="pen1 brush12" points="44,182 49,175 54,167 59,160 64,153 69,153 74,153 79,153 84,153 88,153 93,153 98,153 103,153 136,158 169,162 203,167 236,172 269,177 302,181 335,186 369,191 402,196 435,201 468,206 501,211 534,215 568,220 601,225 634,230 639,233 645,237 650,240 655,243 660,247 666,250 671,253 676,256 683,268 690,279 697,290 704,301 719,368 725,434 724,502 720,574 716,594 710,615 703,634 694,652 684,669 673,683 659,694 644,702 638,702 633,703 627,703 622,703 616,704 610,704 605,705 599,705 569,698 539,692 508,686 478,679 448,673 418,666 388,660 358,654 327,647 297,641 267,635 237,629 207,623 176,616 146,610 116,604 105,602 95,599 85,595 75,589 66,581 58,568 50,551 43,528 37,446 35,355 37,264 44,182"/>
<polygon class="pen1 brush13" points="47,180 51,173 56,167 60,160 64,154 68,154 73,154 77,154 81,154 86,154 90,154 94,154 98,154 127,158 155,162 184,166 213,171 241,175 270,179 299,183 328,187 356,192 385,196 414,200 442,204 471,209 500,213 528,217 557,221 561,224 565,227 570,230 574,233 578,236 583,239 587,242 591,245 598,255 604,266 610,276 617,287 631,344 636,399 636,456 631,517 627,535 622,553 615,569 608,585 599,599 589,611 577,621 564,628 559,629 555,629 550,630 546,630 541,631 536,631 532,631 527,631 501,626 475,620 449,615 423,609 397,604 371,598 345,593 319,587 292,582 266,576 240,571 214,565 188,560 162,554 136,549 110,543 100,541 91,539 82,536 74,531 66,523 59,512 53,498 47,478 42,406 39,328 40,250 47,180"/>
<polygon class="pen1 brush14" points="50,178 54,172 58,167 61,161 65,156 72,156 79,156 86,156 93,156 117,160 141,163 166,167 190,170 214,174 238,177 262,180 287,184 311,187 335,191 359,194 383,197 407,201 432,204 456,208 480,211 487,217 493,223 499,229 506,234 512,244 518,253 524,263 530,272 542,319 547,364 547,410 543,461 538,476 533,491 528,505 522,517 514,529 506,539 496,548 485,556 481,556 477,557 474,557 470,557 466,557 462,557 458,558 454,558 432,553 410,549 388,544 366,540 344,535 322,531 300,526 279,521 257,517 235,512 213,508 191,503 169,499 147,494 125,490 103,485 95,483 87,481 80,478 73,473 67,466 61,457 56,444 51,428 46,367 43,301 44,236 50,178"/>
<polygon class="pen1 brush15" points="53,175 65,158 88,158 403,203 421,223 443,257 454,295 459,329 459,364 455,404 450,417 445,429 440,439 435,449 429,458 422,467 414,475 405,483 382,485 96,425 90,423 84,421 78,418 73,415 68,409 63,402 59,391 55,378 50,328 47,274 47,222 53,175"/>
<polygon class="pen1 brush16" points="911,564 783,751 778,919 837,1091 950,1185 1053,1210 1180,1195 1220,1175 1256,1155 1288,1134 1316,1114 1340,1092 1360,1070 1377,1047 1391,1022 1401,996 1408,968 1413,938 1414,905 1413,870 1409,832 1403,791 1394,746 1326,638 1302,616 1280,597 1258,580 1237,565 1216,552 1196,541 1175,532 1154,525 1133,520 1111,516 1087,515 1063,516 1038,518 1010,522 981,528 950,535 911,564"/>
<polygon class="pen1 brush4" points="881,584 797,666 754,771 749,939 808,1111 920,1205 1023,1229 1151,1215 1191,1195 1227,1175 1259,1154 1287,1134 1311,1112 1331,1090 1348,1067 1362,1042 1372,1016 1379,988 1383,958 1385,925 1383,890 1379,852 1373,811 1364,766 1296,658 1273,636 1250,617 1229,600 1207,585 1187,572 1166,561 1145,552 1125,544 1103,539 1081,536 1058,535 1033,535 1008,537 980,541 951,547 920,554 881,584"/>
<polygon class="pen1 brush16" points="412,222 700,267 711,270 721,274 730,279 738,285 745,292 750,300 753,308 754,317 752,431 751,439 748,447 743,453 736,458 728,462 719,464 709,464 698,463 410,420 399,417 389,413 380,408 372,402 365,395 360,387 357,379 356,370 358,256 359,248 362,240 367,234 374,229 382,225 391,222 401,221 412,222"/>
<polygon class="pen1 brush16" points="1035,571 1064,573 1092,577 1120,585 1147,595 1173,607 1197,623 1221,640 1242,659 1262,681 1281,704 1297,729 1311,755 1323,783 1332,812 1339,842 1343,873 1344,904 1343,934 1338,963 1331,990 1321,1017 1309,1042 1295,1065 1278,1086 1260,1106 1239,1123 1217,1138 1194,1151 1169,1161 1142,1169 1115,1173 1086,1175 1057,1173 1028,1169 1000,1161 973,1151 946,1138 922,1123 898,1106 876,1086 856,1065 837,1042 821,1017 806,990 794,963 785,934 778,904 774,873 773,842 775,812 779,783 787,755 797,729 809,704 823,681 840,659 859,640 879,623 902,607 926,595 951,585 978,577 1006,573 1035,571"/>
<polygon class="pen1 brush17" points="995,581 1024,583 1053,587 1081,595 1108,605 1133,617 1158,632 1181,650 1203,669 1223,691 1241,714 1258,739 1272,765 1284,793 1293,821 1300,851 1304,882 1305,913 1303,943 1299,972 1292,1000 1282,1026 1270,1051 1256,1075 1239,1096 1221,1116 1200,1133 1178,1148 1155,1161 1129,1171 1103,1179 1075,1183 1046,1185 1017,1183 988,1179 961,1171 934,1161 908,1148 883,1133 859,1116 837,1096 817,1075 798,1051 782,1026 768,1000 756,972 746,943 739,913 735,882 734,851 736,821 741,793 748,765 758,739 770,714 784,691 801,669 819,650 840,632 862,617 886,605 911,595 938,587 966,583 995,581"/>
<polygon class="pen1 brush18" points="989,586 1017,587 1044,592 1071,599 1096,609 1121,621 1144,635 1166,652 1187,671 1206,691 1223,713 1238,737 1252,762 1263,789 1272,816 1278,845 1282,874 1283,903 1282,931 1277,959 1271,985 1262,1010 1250,1033 1237,1056 1221,1076 1204,1094 1184,1111 1163,1125 1141,1137 1117,1147 1092,1154 1065,1159 1038,1160 1010,1159 983,1154 957,1147 931,1137 906,1125 883,1111 860,1094 839,1076 820,1056 803,1033 787,1010 773,985 762,959 753,931 746,903 742,874 741,845 743,816 747,789 754,762 763,737 775,713 789,691 804,671 822,652 842,635 863,621 885,609 909,599 935,592 961,587 989,586"/>
<polygon class="pen1 brush19" points="983,593 1009,594 1035,598 1060,605 1084,614 1107,626 1130,639 1151,655 1170,672 1188,691 1205,712 1219,735 1232,758 1243,783 1252,809 1258,836 1262,864 1263,892 1261,919 1257,945 1250,970 1241,994 1230,1016 1217,1037 1203,1056 1186,1074 1168,1089 1148,1103 1126,1115 1104,1124 1080,1130 1055,1135 1029,1136 1003,1135 977,1130 952,1124 928,1115 905,1103 883,1089 861,1074 842,1056 823,1037 807,1016 792,994 779,970 768,945 759,919 753,892 749,864 748,836 750,809 754,783 761,758 769,735 780,712 793,691 808,672 825,655 843,639 863,626 885,614 908,605 932,598 957,594 983,593"/>
<polygon class="pen1 brush20" points="977,600 1002,601 1026,605 1050,611 1073,620 1095,631 1116,643 1136,658 1154,674 1172,692 1187,712 1201,733 1213,755 1224,779 1232,803 1238,829 1241,855 1242,881 1240,906 1236,931 1230,954 1221,977 1211,998 1199,1018 1185,1036 1169,1052 1152,1067 1133,1080 1113,1091 1092,1099 1069,1106 1045,1110 1021,1111 996,1110 972,1106 948,1099 925,1091 903,1080 882,1067 862,1052 844,1036 826,1018 811,998 797,977 785,954 774,931 766,906 760,881 757,855 756,829 758,803 761,779 768,755 776,733 786,712 799,692 813,674 828,658 846,643 865,631 885,620 906,611 929,605 952,601 977,600"/>
<polygon class="pen1 brush21" points="972,606 995,607 1018,611 1040,617 1062,625 1082,635 1102,647 1121,661 1138,676 1154,693 1169,712 1182,731 1193,752 1203,774 1210,798 1216,821 1219,846 1220,871 1218,895 1215,918 1209,940 1201,961 1192,981 1180,999 1167,1016 1152,1032 1136,1046 1118,1058 1099,1068 1079,1076 1058,1082 1036,1086 1013,1087 990,1086 967,1082 945,1076 923,1068 902,1058 882,1046 863,1032 846,1016 830,999 815,981 802,961 790,940 781,918 773,895 768,871 765,846 764,821 765,798 769,774 775,752 783,731 792,712 804,693 817,676 832,661 848,647 866,635 885,625 905,617 927,611 949,607 972,606"/>
<polygon class="pen1 brush22" points="965,612 987,613 1008,617 1029,622 1049,630 1069,639 1087,650 1105,663 1121,677 1136,693 1150,711 1162,729 1173,749 1182,769 1189,791 1194,813 1197,836 1198,859 1197,882 1193,903 1188,924 1181,944 1172,963 1161,980 1149,996 1135,1011 1119,1024 1103,1036 1085,1045 1066,1053 1046,1058 1026,1062 1004,1063 982,1062 961,1058 940,1053 919,1045 900,1036 881,1024 864,1011 847,996 832,980 818,963 806,944 795,924 786,903 779,882 774,859 771,836 770,813 772,791 775,769 781,749 788,729 797,711 808,693 820,677 834,663 850,650 866,639 884,630 903,622 923,617 943,613 965,612"/>
<polygon class="pen1 brush23" points="959,618 979,619 999,622 1019,627 1038,634 1056,643 1073,654 1090,666 1105,679 1119,694 1132,711 1143,728 1153,746 1162,766 1168,786 1173,807 1176,828 1177,849 1176,870 1172,890 1167,910 1160,928 1152,945 1142,962 1130,976 1117,990 1103,1002 1087,1013 1071,1021 1053,1029 1034,1034 1015,1037 995,1038 975,1037 955,1034 935,1029 917,1021 899,1013 881,1002 865,990 850,976 836,962 823,945 812,928 802,910 793,890 787,870 782,849 779,828 778,807 779,786 783,766 788,746 794,728 803,711 813,694 824,679 837,666 852,654 867,643 883,634 901,627 920,622 939,619 959,618"/>
<polygon class="pen1 brush24" points="953,625 972,626 991,629 1009,634 1026,640 1043,648 1059,658 1074,669 1088,681 1101,695 1113,710 1124,726 1133,743 1141,761 1147,780 1151,799 1154,819 1155,839 1154,858 1151,877 1146,895 1140,912 1132,928 1122,943 1112,957 1100,969 1087,981 1072,990 1057,999 1041,1005 1024,1010 1006,1013 987,1014 968,1013 949,1010 931,1005 914,999 897,990 881,981 866,969 852,957 839,943 827,928 816,912 807,895 799,877 793,858 789,839 786,819 785,799 786,780 789,761 794,743 800,726 808,710 818,695 828,681 840,669 853,658 868,648 883,640 899,634 916,629 934,626 953,625"/>
<polygon class="pen1 brush25" points="948,631 965,632 982,635 999,639 1015,645 1030,653 1045,662 1059,672 1072,683 1084,696 1095,710 1105,725 1113,740 1120,757 1126,774 1130,792 1132,810 1133,828 1132,846 1129,863 1125,880 1119,895 1112,910 1103,924 1093,937 1082,948 1070,958 1057,967 1043,975 1028,981 1012,985 995,988 978,989 961,988 944,985 927,981 911,975 896,967 881,958 867,948 854,937 842,924 831,910 821,895 813,880 805,863 800,846 796,828 793,810 792,792 794,774 796,757 801,740 806,725 814,710 822,696 832,683 843,672 856,662 869,653 883,645 898,639 914,635 931,632 948,631"/>
<polygon class="pen1 brush26" points="942,637 958,638 973,640 988,644 1003,650 1017,657 1031,665 1043,675 1055,685 1066,697 1076,710 1085,723 1093,737 1100,752 1105,768 1109,784 1111,801 1111,834 1104,865 1092,892 1075,917 1054,937 1029,952 1001,962 970,965 954,964 938,962 923,958 908,952 894,945 881,937 868,927 856,917 845,905 835,892 826,879 818,865 812,850 807,834 803,818 801,801 801,768 808,737 819,710 836,685 857,665 883,650 911,640 942,637"/>
<polygon class="pen1 brush27" points="936,644 965,647 992,656 1017,669 1039,687 1058,709 1073,734 1084,762 1089,792 1089,822 1083,850 1072,875 1057,897 1037,915 1015,928 989,937 961,940 933,937 906,928 881,915 858,897 839,875 824,850 813,822 808,792 808,762 814,734 825,709 840,687 859,669 882,656 908,647 936,644"/>
<polygon class="pen1 brush28" points="930,650 955,653 980,661 1002,673 1022,689 1039,709 1053,731 1062,756 1067,783 1067,810 1061,835 1052,857 1038,877 1021,893 1001,905 978,913 953,916 927,913 903,905 880,893 860,877 843,857 830,835 820,810 815,783 815,756 821,731 831,709 844,689 862,673 882,661 905,653 930,650"/>
<polygon class="pen1 brush16" points="995,670 1018,671 1040,675 1062,681 1083,689 1103,699 1121,710 1139,724 1155,739 1170,756 1183,774 1194,794 1204,815 1212,836 1217,859 1221,883 1222,907 1221,931 1217,955 1212,978 1204,999 1194,1020 1183,1040 1170,1058 1155,1075 1139,1091 1121,1104 1103,1116 1083,1126 1062,1134 1040,1140 1018,1144 995,1145 972,1144 949,1140 928,1134 907,1126 887,1116 868,1104 851,1091 835,1075 820,1058 807,1040 795,1020 786,999 778,978 773,955 769,931 768,907 769,883 773,859 778,836 786,815 795,794 807,774 820,756 835,739 851,724 868,710 887,699 907,689 928,681 949,675 972,671 995,670"/>
<polygon class="pen1 brush17" points="975,680 997,681 1018,685 1039,691 1059,699 1078,709 1096,720 1113,734 1128,749 1142,766 1155,784 1166,804 1175,825 1182,846 1188,869 1191,893 1192,917 1191,941 1188,965 1182,988 1175,1009 1166,1030 1155,1050 1142,1068 1128,1085 1113,1101 1096,1114 1078,1126 1059,1136 1039,1144 1018,1150 997,1154 975,1155 953,1154 932,1150 911,1144 891,1136 872,1126 854,1114 837,1101 822,1085 808,1068 795,1050 784,1030 775,1009 768,988 762,965 759,941 758,917 759,893 762,869 768,846 775,825 784,804 795,784 808,766 822,749 837,734 854,720 872,709 891,699 911,691 932,685 953,681 975,680"/>
<polygon class="pen1 brush29" points="92,132 80,237 71,339 65,441 61,542 61,643 63,745 68,848 75,953 88,1050 104,1056 89,944 79,829 74,712 72,594 75,477 82,360 94,245 109,132 106,132 99,132 93,132 92,132"/>
<polygon class="pen1 brush30" points="249,27 190,49 142,71 62,128 1232,295 1289,320 1371,352 1432,301 1493,241 1446,181 1321,158 281,20 249,27"/>
<polygon class="pen1 brush17" points="153,71 1331,232 1349,234 1365,237 1379,243 1392,251 1404,263 1416,279 1428,300 1441,327 1418,342 1408,328 1400,315 1391,304 1382,294 1373,285 1362,276 1350,269 1336,261 117,78 153,71"/>
<polygon class="pen1 brush31" points="504,260 691,290 712,321 712,425 685,431 515,407 478,388 478,288 504,260"/>
<polygon class="pen1 brush32" points="510,266 521,268 532,269 543,271 553,273 564,275 575,276 586,278 597,280 608,282 619,284 629,285 640,287 651,289 662,291 672,292 683,294 688,301 693,308 698,315 703,322 703,346 703,370 703,394 703,418 697,420 691,421 685,423 678,425 658,422 639,419 619,416 599,413 580,411 560,408 540,405 520,402 516,400 512,397 507,395 503,393 499,391 494,388 490,386 486,384 486,361 486,338 486,315 486,292 492,285 498,279 504,273 510,266"/>
<polygon class="pen1 brush33" points="516,272 526,274 536,275 546,277 556,278 566,280 576,281 586,283 596,284 606,286 616,288 626,289 636,291 646,292 656,294 666,295 676,297 681,304 685,310 690,317 694,324 694,346 694,368 694,390 694,413 689,414 683,416 678,417 672,418 654,416 635,413 617,411 599,408 580,406 562,403 544,401 526,398 522,396 518,394 514,392 510,389 506,387 502,385 498,383 494,381 494,360 494,338 494,317 494,295 499,290 505,284 511,278 516,272"/>
<polygon class="pen1 brush34" points="522,278 540,281 559,283 577,286 596,289 614,292 632,295 651,298 669,301 673,307 678,313 682,319 686,325 686,345 686,366 686,387 686,407 681,408 676,409 670,411 665,412 648,410 631,407 614,405 598,402 581,400 564,398 548,395 531,393 527,391 524,389 520,387 516,385 512,383 509,381 505,380 501,378 501,358 501,338 501,319 501,299 506,294 512,288 517,283 522,278"/>
<polygon class="pen1 brush35" points="528,283 545,286 562,288 578,291 595,294 612,296 628,299 645,302 662,305 666,310 670,316 673,321 677,327 677,345 677,364 677,382 677,401 672,402 668,403 663,405 658,406 643,404 627,401 612,399 597,397 582,395 567,392 551,390 536,388 529,385 523,381 516,378 509,375 509,357 509,339 509,321 509,303 514,297 519,293 523,288 528,283"/>
<polygon class="pen1 brush36" points="534,289 549,291 564,294 579,296 595,298 610,301 625,303 640,306 655,308 659,313 662,318 665,323 668,328 668,345 668,361 668,378 668,395 664,396 660,397 655,398 651,399 637,397 624,395 610,393 596,391 583,390 569,388 555,386 541,384 535,381 529,377 523,374 517,371 517,355 517,339 517,323 517,307 521,302 526,298 530,293 534,289"/>
<polygon class="pen1 brush37" points="540,295 554,297 567,299 581,301 594,303 608,305 621,308 634,310 647,312 651,316 654,321 657,325 660,329 660,344 660,359 660,374 660,389 656,390 652,391 648,392 644,393 632,391 620,389 608,388 595,386 583,384 571,382 558,380 546,378 541,376 536,373 530,371 525,368 525,354 525,339 525,325 525,310 529,306 533,302 536,299 540,295"/>
<polygon class="pen1 brush38" points="546,300 558,302 570,304 582,306 593,307 605,309 617,311 628,313 640,315 643,319 646,323 648,327 651,331 651,344 651,357 651,370 651,382 648,384 645,385 642,386 639,387 628,385 617,383 606,382 595,380 584,379 573,377 563,376 552,374 547,372 542,369 538,367 533,365 533,352 533,339 533,327 533,314 536,311 540,307 543,304 546,300"/>
<polygon class="pen1 brush39" points="552,306 562,308 572,309 582,311 593,312 603,314 613,316 623,317 633,319 635,322 638,325 640,329 642,332 642,343 642,355 642,366 642,378 640,378 637,378 634,379 631,380 622,379 612,378 603,376 594,375 584,374 575,372 566,371 557,370 553,368 549,365 545,363 541,361 541,350 541,340 541,329 541,318 543,315 546,312 549,309 552,306"/>
<polygon class="pen1 brush40" points="558,312 567,313 575,314 584,316 592,317 600,319 609,320 617,322 626,323 628,325 630,328 632,331 634,334 634,343 634,353 634,362 634,372 631,372 629,373 626,373 624,374 616,373 608,372 601,371 593,369 585,368 578,367 570,366 562,365 558,363 555,362 552,360 548,358 548,349 548,340 548,331 548,322 551,320 553,317 556,314 558,312"/>
<polygon class="pen1 brush41" points="564,318 571,319 578,320 584,321 591,322 598,323 605,324 612,325 619,326 621,328 622,330 624,333 625,335 625,343 625,350 625,358 625,366 623,366 621,367 619,367 617,368 611,367 604,366 598,365 592,364 586,363 580,363 573,362 567,361 565,359 562,358 559,356 557,355 557,348 557,340 557,333 557,326 559,324 560,322 562,320 564,318"/>
<polygon class="pen1 brush0" points="570,323 611,330 616,336 616,360 610,361 572,356 564,352 564,329 570,323"/>
<polygon class="pen1 brush31" points="405,240 451,257 457,287 457,391 450,399 407,385 398,368 398,269 405,240"/>
<polygon class="pen1 brush32" points="406,245 412,247 417,249 423,251 428,253 433,256 439,258 444,260 450,262 451,269 452,275 453,282 454,289 454,313 454,337 454,361 454,386 453,388 451,389 450,391 448,393 443,391 438,390 433,388 429,387 424,385 419,384 414,382 409,380 407,376 405,372 402,369 400,365 400,342 400,318 400,295 400,272 402,265 403,258 405,251 406,245"/>
<polygon class="pen1 brush33" points="408,250 413,252 418,254 423,256 428,258 433,260 438,262 443,264 448,266 449,272 450,278 451,285 452,291 452,313 452,336 452,358 452,380 451,382 449,383 448,385 447,387 442,385 437,383 433,382 428,380 424,379 419,378 415,377 410,376 408,372 406,368 404,365 402,361 402,339 402,318 402,297 402,275 404,269 405,263 407,257 408,250"/>
<polygon class="pen1 brush34" points="409,256 414,258 418,259 423,261 428,263 432,264 437,266 441,268 446,270 447,276 448,281 449,287 450,293 450,313 450,334 450,355 450,375 449,376 448,378 446,379 445,381 441,380 437,379 433,377 428,376 424,375 420,373 415,372 411,371 409,367 408,364 406,361 404,357 404,337 404,318 404,298 404,278 405,273 407,267 408,261 409,256"/>
<polygon class="pen1 brush35" points="411,261 415,263 419,264 423,266 428,267 432,269 436,271 440,272 444,274 445,279 446,284 447,290 448,295 448,314 448,332 448,351 448,370 447,371 446,373 444,374 443,375 439,374 436,373 432,372 428,370 424,369 421,368 417,367 413,366 411,363 409,359 408,356 406,353 406,336 406,318 406,300 406,282 407,277 409,271 410,266 411,261"/>
<polygon class="pen1 brush36" points="412,266 416,267 420,269 423,270 427,272 431,273 435,275 438,276 442,278 443,283 444,287 445,292 446,297 446,314 446,330 446,347 446,364 445,365 444,367 442,368 441,370 434,368 428,365 421,363 414,361 413,358 411,355 410,352 408,350 408,334 408,317 408,301 408,285 409,280 410,276 411,271 412,266"/>
<polygon class="pen1 brush37" points="414,272 421,274 428,277 434,280 441,282 442,286 443,290 443,295 444,299 444,314 444,329 444,344 444,359 443,360 442,361 441,363 440,364 434,362 428,360 421,358 415,356 414,353 413,351 411,348 410,346 410,332 410,317 410,303 410,288 411,284 412,280 413,276 414,272"/>
<polygon class="pen1 brush38" points="415,277 421,279 427,281 433,284 439,286 440,290 440,293 441,297 441,301 441,314 441,327 441,341 441,354 440,355 440,356 439,357 438,358 433,356 428,354 422,353 417,351 416,349 414,346 413,344 412,342 412,329 412,317 412,304 412,292 413,288 414,284 414,281 415,277"/>
<polygon class="pen1 brush39" points="417,282 422,284 427,286 432,288 437,290 438,293 438,296 438,300 439,303 439,314 439,325 439,337 439,348 438,349 438,350 437,351 436,352 432,350 427,349 423,347 418,346 417,344 416,342 415,340 414,337 414,327 414,316 414,306 414,295 415,292 416,289 416,286 417,282"/>
<polygon class="pen1 brush40" points="418,288 422,289 427,291 431,292 435,294 436,296 436,299 436,302 437,305 437,315 437,324 437,333 437,343 436,344 436,344 435,345 435,346 431,345 427,343 423,342 419,341 418,339 418,337 417,336 416,335 416,325 416,316 416,307 416,297 417,295 417,293 417,290 418,288"/>
<polygon class="pen1 brush41" points="420,293 423,294 427,296 430,297 433,297 434,300 434,302 434,305 435,307 435,314 435,322 435,329 435,336 434,337 434,337 434,338 433,339 430,338 427,337 424,336 420,336 420,335 419,333 419,332 418,331 418,324 418,316 418,309 418,302 418,300 419,297 419,295 420,293"/>
<polygon class="pen1 brush0" points="421,297 432,302 433,309 433,332 431,334 422,331 420,327 420,305 421,297"/>
<polygon class="pen1 brush42" points="156,251 264,269 260,337 153,321 156,251"/>
<polygon class="pen1 brush43" points="354,9 375,10 394,12 411,15 426,20 439,25 448,31 454,38 456,45 454,53 448,60 439,67 426,73 411,77 394,81 375,83 354,84 334,83 314,81 297,77 282,73 270,67 260,60 254,53 252,45 254,38 260,31 270,25 282,20 297,15 314,12 334,10 354,9"/>
<polygon class="pen1 brush43" points="822,86 839,87 855,88 869,91 881,95 891,99 899,104 903,110 905,116 903,122 899,128 891,133 881,137 869,141 855,144 839,146 822,147 806,146 790,144 776,141 764,137 754,133 746,128 742,122 740,116 742,110 746,104 754,99 764,95 776,91 790,88 806,87 822,86"/>
<polygon class="pen1 brush44" points="349,3 365,4 381,6 395,10 407,15 418,20 425,27 430,34 432,42 430,50 425,57 418,63 407,69 395,74 381,77 365,79 349,80 332,79 317,77 303,74 290,69 280,63 273,57 268,50 266,42 268,34 273,27 280,20 290,15 303,10 317,6 332,4 349,3"/>
<polygon class="pen1 brush45" points="347,3 363,4 378,6 391,9 403,14 413,20 420,26 424,33 426,40 424,47 420,54 413,60 403,65 391,70 378,73 363,75 347,76 331,75 317,73 303,70 292,65 282,60 275,54 271,47 269,40 271,33 275,26 282,20 292,14 303,9 317,6 331,4 347,3"/>
<polygon class="pen1 brush46" points="346,3 361,4 375,6 387,9 398,13 407,19 414,25 419,31 420,38 419,45 414,51 407,57 398,62 387,66 375,69 361,71 346,72 331,71 317,69 305,66 294,62 285,57 278,51 273,45 272,38 273,31 278,25 285,19 294,13 305,9 317,6 331,4 346,3"/>
<polygon class="pen1 brush47" points="344,3 358,4 371,6 383,9 394,13 402,17 409,23 413,29 414,35 413,42 409,48 402,53 394,58 383,62 371,65 358,66 344,67 330,66 317,65 305,62 295,58 286,53 280,48 275,42 274,35 275,29 280,23 286,17 295,13 305,9 317,6 330,4 344,3"/>
<polygon class="pen1 brush48" points="343,3 356,4 368,5 379,8 389,12 397,16 403,21 407,27 408,33 407,39 403,45 397,50 389,54 379,58 368,61 356,62 343,63 330,62 318,61 306,58 297,54 288,50 282,45 278,39 277,33 278,27 282,21 288,16 297,12 306,8 318,5 330,4 343,3"/>
<polygon class="pen1 brush49" points="341,3 353,4 365,5 376,8 385,11 392,15 398,20 402,25 403,31 402,36 398,41 392,46 385,50 376,54 365,57 353,58 341,59 329,58 317,57 307,54 298,50 290,46 285,41 281,36 280,31 281,25 285,20 290,15 298,11 307,8 317,5 329,4 341,3"/>
<polygon class="pen1 brush50" points="340,2 351,3 362,4 372,7 380,10 387,14 392,18 396,23 397,28 396,33 392,38 387,43 380,47 372,50 362,52 351,53 340,54 328,53 318,52 308,50 300,47 293,43 287,38 284,33 283,28 284,23 287,18 293,14 300,10 308,7 318,4 328,3 340,2"/>
<polygon class="pen1 brush51" points="338,2 349,2 359,4 368,6 375,9 382,13 387,17 390,21 391,26 390,31 387,35 382,39 375,43 368,46 359,48 349,50 338,50 327,50 317,48 308,46 301,43 294,39 289,35 286,31 285,26 286,21 289,17 294,13 301,9 308,6 317,4 327,2 338,2"/>
<polygon class="pen1 brush52" points="337,1 347,1 355,3 364,5 371,8 377,11 381,15 384,19 385,24 384,28 381,32 377,36 371,39 364,42 355,43 347,45 337,45 327,45 318,43 310,42 302,39 296,36 292,32 289,28 288,24 289,19 292,15 296,11 302,8 310,5 318,3 327,1 337,1"/>
<polygon class="pen1 brush53" points="335,1 344,1 353,3 360,4 367,7 372,10 376,13 379,17 380,21 379,25 376,29 372,33 367,36 360,39 353,40 344,42 335,42 326,42 318,40 311,39 304,36 299,33 295,29 292,25 291,21 292,17 295,13 299,10 304,7 311,4 318,3 326,1 335,1"/>
<polygon class="pen1 brush54" points="334,1 342,1 350,2 356,4 362,6 367,9 371,12 373,15 374,19 373,23 371,26 367,29 362,32 356,34 350,36 342,37 334,37 326,37 318,36 311,34 305,32 300,29 296,26 294,23 293,19 294,15 296,12 300,9 305,6 311,4 318,2 326,1 334,1"/>
<polygon class="pen1 brush55" points="332,0 339,0 346,1 352,3 358,5 362,7 365,10 367,13 368,17 367,20 365,23 362,26 358,28 352,30 346,32 339,33 332,33 325,33 318,32 312,30 307,28 302,26 299,23 297,20 296,17 297,13 299,10 302,7 307,5 312,3 318,1 325,0 332,0"/>
<polygon class="pen1 brush44" points="818,82 832,83 844,84 855,87 865,91 874,96 880,101 884,107 885,113 884,119 880,125 874,130 865,134 855,138 844,141 832,142 818,143 804,142 792,141 781,138 771,134 762,130 756,125 752,119 751,113 752,107 756,101 762,96 771,91 781,87 792,84 804,83 818,82"/>
<polygon class="pen1 brush45" points="817,82 830,83 842,84 852,87 862,90 869,95 875,100 879,105 880,111 879,117 875,122 869,127 862,131 852,135 842,138 830,139 817,140 804,139 792,138 781,135 772,131 764,127 758,122 754,117 753,111 754,105 758,100 764,95 772,90 781,87 792,84 804,83 817,82"/>
<polygon class="pen1 brush46" points="816,82 828,83 839,84 849,87 858,90 866,94 871,98 875,104 876,109 875,115 871,120 866,124 858,129 849,132 839,135 828,136 816,137 804,136 793,135 783,132 774,129 766,124 761,120 757,115 756,109 757,104 761,98 766,94 774,90 783,87 793,84 804,83 816,82"/>
<polygon class="pen1 brush47" points="814,81 825,82 836,83 846,86 854,89 861,93 866,97 870,102 871,107 870,112 866,117 861,122 854,125 846,128 836,130 825,132 814,132 803,132 792,130 783,128 774,125 768,122 762,117 759,112 758,107 759,102 762,97 768,93 774,89 783,86 792,83 803,82 814,81"/>
<polygon class="pen1 brush48" points="813,81 824,81 834,83 843,85 850,88 857,92 862,96 865,100 866,105 865,110 862,115 857,119 850,123 843,126 834,128 824,129 813,130 803,129 793,128 784,126 776,123 769,119 764,115 761,110 760,105 761,100 764,96 769,92 776,88 784,85 793,83 803,81 813,81"/>
<polygon class="pen1 brush49" points="812,81 822,81 831,83 840,85 847,88 853,91 858,95 861,99 862,104 861,108 858,112 853,116 847,119 840,122 831,124 822,126 812,126 802,126 793,124 785,122 777,119 771,116 767,112 764,108 763,104 764,99 767,95 771,91 777,88 785,85 793,83 802,81 812,81"/>
<polygon class="pen1 brush50" points="811,81 820,81 829,82 837,84 843,87 849,90 853,93 856,97 857,102 856,106 853,110 849,113 843,117 837,119 829,121 820,123 811,123 802,123 793,121 785,119 778,117 773,113 769,110 766,106 765,102 766,97 769,93 773,90 778,87 785,84 793,82 802,81 811,81"/>
<polygon class="pen1 brush51" points="809,80 818,80 826,81 833,83 840,85 845,88 849,92 851,96 852,100 851,104 849,108 845,111 840,114 833,116 826,118 818,119 809,119 801,119 793,118 786,116 779,114 774,111 770,108 768,104 767,100 768,96 770,92 774,88 779,85 786,83 793,81 801,80 809,80"/>
<polygon class="pen1 brush52" points="808,80 816,80 824,81 830,83 836,85 841,87 845,91 847,94 848,98 847,102 845,105 841,108 836,111 830,113 824,115 816,116 808,116 800,116 793,115 786,113 780,111 776,108 772,105 770,102 769,98 770,94 772,91 776,87 780,85 786,83 793,81 800,80 808,80"/>
<polygon class="pen1 brush53" points="807,80 814,80 821,81 827,82 833,84 837,87 840,89 842,92 843,96 842,99 840,102 837,105 833,107 827,109 821,111 814,112 807,112 800,112 793,111 787,109 782,107 777,105 774,102 772,99 771,96 772,92 774,89 777,87 782,84 787,82 793,81 800,80 807,80"/>
<polygon class="pen1 brush54" points="807,79 813,79 819,80 824,82 829,83 833,86 836,88 837,91 838,94 837,97 836,100 833,102 829,104 824,106 819,108 813,109 807,109 800,109 794,108 788,106 783,104 779,102 776,100 774,97 773,94 774,91 776,88 779,86 783,83 788,82 794,80 800,79 807,79"/>
<polygon class="pen1 brush55" points="805,79 816,80 825,83 831,87 833,92 831,98 825,102 816,105 805,106 799,106 793,105 788,104 784,102 780,100 777,98 776,95 775,92 776,89 777,87 780,85 784,83 788,81 793,80 799,79 805,79"/>
<polygon class="pen1 brush17" points="1155,731 1211,672 1225,690 1238,708 1251,727 1263,746 1273,766 1282,787 1288,811 1292,838 1222,882 1219,858 1215,838 1210,819 1204,802 1196,785 1185,769 1172,751 1155,731"/>
<polygon class="pen1 brush56" points="1160,736 1166,729 1173,721 1180,714 1187,707 1194,699 1201,692 1208,685 1215,678 1228,695 1240,711 1252,728 1262,745 1272,764 1279,784 1286,807 1290,832 1281,837 1272,843 1263,848 1255,854 1246,859 1238,865 1230,870 1222,876 1218,854 1214,835 1210,818 1204,802 1197,787 1187,771 1175,755 1160,736"/>
<polygon class="pen1 brush57" points="1162,740 1169,733 1176,726 1183,719 1190,712 1197,705 1204,698 1211,691 1218,684 1230,700 1241,714 1252,729 1261,745 1269,761 1277,780 1283,801 1287,825 1278,830 1270,835 1261,841 1253,846 1244,852 1236,857 1228,863 1220,868 1217,848 1213,831 1209,816 1204,801 1197,787 1188,773 1176,758 1162,740"/>
<polygon class="pen1 brush58" points="1166,744 1173,737 1180,730 1187,724 1194,717 1201,710 1208,703 1215,697 1222,690 1233,704 1243,718 1252,731 1261,744 1268,759 1274,776 1280,795 1284,817 1276,823 1268,828 1260,834 1252,839 1244,844 1235,850 1227,855 1219,861 1215,843 1212,828 1208,814 1203,801 1197,788 1189,775 1179,761 1166,744"/>
<polygon class="pen1 brush59" points="1169,748 1176,742 1183,735 1190,728 1197,722 1204,715 1211,708 1218,702 1225,696 1235,709 1244,721 1253,732 1260,744 1266,757 1272,772 1277,790 1282,810 1274,815 1266,821 1258,826 1250,831 1241,837 1233,842 1225,848 1217,854 1214,838 1211,824 1207,812 1203,800 1198,789 1190,777 1181,764 1169,748"/>
<polygon class="pen1 brush60" points="1173,753 1180,747 1187,740 1194,734 1201,727 1208,721 1215,715 1222,708 1229,702 1238,714 1246,724 1253,734 1259,744 1264,756 1269,769 1274,784 1279,802 1271,808 1263,813 1255,819 1248,824 1240,830 1232,836 1224,841 1216,847 1213,833 1210,820 1207,810 1203,800 1198,790 1192,779 1183,767 1173,753"/>
<polygon class="pen1 brush61" points="1176,756 1183,750 1190,744 1197,738 1204,732 1211,726 1218,720 1225,714 1232,708 1241,718 1248,727 1254,735 1259,744 1263,754 1268,765 1272,778 1277,795 1269,801 1261,806 1253,812 1246,817 1238,823 1230,828 1223,834 1215,839 1212,827 1209,817 1206,808 1202,799 1198,791 1193,781 1185,770 1176,756"/>
<polygon class="pen1 brush62" points="1180,761 1187,755 1194,750 1201,744 1208,738 1215,732 1222,726 1229,719 1236,713 1243,722 1249,730 1254,737 1258,744 1261,751 1265,761 1269,772 1274,787 1266,793 1259,798 1251,804 1244,809 1236,815 1228,821 1221,826 1213,832 1210,822 1207,813 1205,806 1202,799 1199,792 1194,784 1188,774 1180,761"/>
<polygon class="pen1 brush63" points="1183,766 1190,760 1197,754 1205,748 1212,743 1219,737 1226,731 1232,726 1239,720 1245,728 1250,733 1254,739 1257,744 1259,750 1262,757 1266,767 1271,780 1264,786 1256,791 1249,797 1242,802 1235,808 1227,814 1220,819 1212,825 1206,810 1202,799 1195,786 1183,766"/>
<polygon class="pen1 brush64" points="1186,770 1193,764 1200,759 1207,753 1214,748 1221,743 1228,737 1235,732 1241,726 1252,736 1256,743 1260,753 1269,772 1262,778 1254,784 1247,790 1240,795 1233,801 1226,807 1218,812 1211,818 1206,806 1202,798 1196,788 1186,770"/>
<polygon class="pen1 brush65" points="1190,774 1197,769 1204,763 1211,758 1218,753 1225,748 1232,742 1239,737 1245,732 1253,740 1256,743 1258,749 1266,765 1259,771 1252,776 1245,782 1238,788 1231,793 1224,799 1217,805 1210,811 1205,803 1202,798 1198,790 1190,774"/>
<polygon class="pen1 brush66" points="1193,778 1248,738 1254,743 1255,743 1255,745 1264,756 1208,804 1203,799 1201,797 1199,792 1193,778"/>
<polygon class="pen1 brush67" points="1434,313 1475,448 1485,618 1487,789 1483,958 1475,1120 1454,1216 1421,1256 1448,1168 1458,969 1460,781 1456,608 1448,455 1400,306 1434,313"/>
<polygon class="pen1 brush68" points="362,442 977,523 943,543 430,476 403,473 383,471 368,471 355,472 343,474 330,478 315,483 295,489 257,505 225,527 199,555 179,588 164,625 153,664 148,706 148,748 152,790 160,831 173,870 189,906 209,937 232,964 258,985 288,998 714,1080 714,1107 275,1025 242,1010 213,989 188,962 167,929 149,893 136,853 127,811 122,767 122,723 127,680 136,637 151,597 170,560 195,527 225,499 261,476 362,442"/>
<polygon class="pen1 brush44" points="356,482 673,523 714,564 727,625 707,1032 660,1073 261,991 187,903 176,874 167,843 161,812 156,780 155,749 156,717 159,686 167,656 177,627 191,599 208,573 229,549 254,528 284,510 318,494 356,482"/>
<polygon class="pen1 brush17" points="356,482 633,523 673,564 687,625 673,1025 633,1066 261,991 187,903 176,874 167,843 161,812 156,780 155,749 156,717 159,686 167,656 177,627 191,599 208,573 229,549 254,528 284,510 318,494 356,482"/>
<polygon class="pen1 brush56" points="351,486 368,488 384,491 401,493 417,496 434,498 450,501 467,503 483,505 500,508 516,510 533,513 549,515 566,518 582,520 599,523 615,525 620,530 625,535 630,540 635,544 639,549 644,554 649,559 654,564 657,578 660,593 663,607 667,622 663,717 660,813 657,908 654,1004 649,1009 644,1014 639,1019 635,1023 630,1028 625,1033 620,1038 615,1043 593,1039 571,1034 549,1030 526,1025 504,1021 482,1016 460,1012 438,1007 416,1003 394,999 371,994 349,990 327,985 305,981 282,976 260,972 251,961 243,951 234,940 225,930 216,919 207,909 198,898 189,888 179,860 170,831 164,801 160,771 158,741 159,710 163,681 170,652 180,624 193,598 210,573 230,550 254,530 282,512 314,497 351,486"/>
<polygon class="pen1 brush69" points="346,489 362,491 378,494 393,496 409,498 425,500 441,503 456,505 472,507 488,510 504,512 520,515 535,517 551,519 567,521 583,524 599,526 603,531 607,536 612,540 616,545 621,549 625,554 630,558 634,563 638,577 641,591 644,605 647,619 644,710 641,801 638,892 634,983 630,988 625,993 621,997 616,1002 612,1006 607,1011 603,1015 599,1020 578,1016 556,1012 535,1008 514,1003 492,999 471,995 450,991 429,986 408,982 386,978 365,974 344,969 323,965 302,961 281,956 260,952 251,942 243,932 234,922 226,912 218,902 209,892 201,882 192,872 182,845 174,818 168,789 164,760 163,731 164,703 167,674 174,647 183,620 196,595 212,572 231,550 254,531 280,514 311,500 346,489"/>
<polygon class="pen1 brush19" points="341,492 356,494 371,496 386,498 401,501 416,503 431,505 446,507 461,510 475,512 490,514 505,517 520,519 535,521 550,523 565,526 580,528 584,532 589,536 593,541 598,545 602,550 607,554 611,559 615,563 618,576 621,589 624,603 627,616 624,702 621,789 618,876 615,962 611,966 607,971 602,975 598,980 593,984 589,989 584,993 580,997 560,993 540,989 520,985 500,981 480,977 460,973 440,969 420,965 399,961 379,957 359,953 339,949 319,945 299,941 279,937 259,933 251,923 243,914 235,904 227,894 219,885 211,875 203,866 195,857 186,831 178,805 172,778 168,750 167,723 167,695 171,668 177,642 186,617 198,593 213,571 231,550 253,532 278,516 308,502 341,492"/>
<polygon class="pen1 brush70" points="336,496 350,498 364,500 378,502 392,504 407,506 421,508 435,510 449,512 463,514 478,516 492,518 506,521 520,523 535,525 549,527 563,529 567,533 571,537 575,542 580,546 584,550 588,555 593,559 597,563 599,575 602,588 604,600 607,613 604,695 602,777 599,859 597,941 593,945 588,949 584,953 580,958 575,962 571,966 567,971 563,975 544,971 525,967 506,963 487,959 468,956 449,952 430,948 411,944 391,940 372,936 353,932 334,929 315,925 296,921 277,917 258,913 250,904 243,895 235,886 228,877 220,868 213,859 205,850 197,841 188,817 181,792 176,767 172,741 171,714 172,689 175,663 181,638 189,614 200,592 215,570 232,551 253,533 277,518 305,506 336,496"/>
<polygon class="pen1 brush20" points="331,499 344,501 358,503 371,505 384,507 398,509 411,511 425,513 438,515 451,517 465,519 478,521 492,523 505,525 518,527 532,529 545,531 549,535 554,539 557,543 561,546 565,550 569,554 573,558 577,562 579,574 582,586 585,598 587,610 585,687 582,765 579,842 577,920 573,924 569,928 565,932 561,936 557,940 554,944 549,948 545,952 527,948 509,945 491,941 473,937 455,934 437,930 419,926 401,923 383,919 365,915 347,912 329,908 312,905 294,901 276,898 258,894 251,885 243,877 236,868 229,859 221,851 214,842 207,834 200,825 192,802 185,779 179,755 176,730 175,706 176,681 179,657 184,633 192,611 203,589 216,569 233,551 252,535 275,520 301,508 331,499"/>
<polygon class="pen1 brush71" points="326,503 339,505 351,507 364,509 376,510 389,512 402,514 414,516 427,517 440,519 452,521 465,523 478,525 490,526 503,528 515,530 528,532 535,539 543,547 550,554 557,562 560,573 562,584 565,596 567,607 565,680 562,753 560,826 557,899 550,906 543,914 535,921 528,929 511,926 494,922 477,919 460,915 443,912 426,908 409,905 393,901 376,898 359,895 342,891 325,888 308,884 291,881 274,877 257,874 250,866 244,858 237,850 230,842 223,834 217,826 210,818 203,810 195,789 189,766 184,743 181,720 179,697 180,674 183,651 188,629 195,608 206,588 218,569 234,552 252,536 273,523 298,512 326,503"/>
<polygon class="pen1 brush21" points="321,506 333,508 345,509 356,511 368,513 380,515 392,516 404,518 416,520 427,522 439,524 451,525 463,527 475,529 486,531 498,532 510,534 517,541 524,548 531,555 538,562 540,572 543,583 545,593 547,604 545,672 543,741 540,809 538,878 531,885 524,892 517,899 510,906 494,903 478,900 463,896 447,893 431,890 415,887 399,884 383,880 367,877 352,874 336,871 320,868 304,865 288,861 272,858 256,855 250,847 243,839 237,832 231,824 224,816 218,809 211,801 205,793 192,753 184,710 184,667 191,625 208,586 234,552 272,525 321,506"/>
<polygon class="pen1 brush72" points="316,509 327,511 338,512 349,514 360,516 371,517 382,519 393,521 405,522 416,524 427,526 438,528 449,529 460,531 471,533 482,534 493,536 500,542 506,548 512,555 519,562 521,572 524,581 526,591 528,601 526,665 524,729 521,793 519,857 512,863 506,869 500,876 493,882 478,879 463,876 449,873 434,871 419,868 404,865 389,862 374,859 360,856 345,853 330,850 315,847 300,843 285,840 270,837 255,834 249,827 244,820 238,813 232,806 226,800 220,793 214,786 208,779 195,741 188,700 188,659 195,620 210,584 235,552 270,526 316,509"/>
<polygon class="pen1 brush73" points="311,513 321,514 332,516 342,517 352,519 363,520 373,522 383,523 394,525 404,526 414,528 424,529 435,531 445,532 455,534 466,535 476,537 482,543 488,549 494,555 500,561 502,570 504,579 506,589 508,598 506,657 504,717 502,776 500,836 494,842 488,848 482,854 476,860 462,857 448,854 434,852 421,849 407,846 393,843 379,840 365,838 351,835 337,832 324,829 310,827 296,824 282,821 269,819 255,816 249,809 244,802 238,796 233,789 227,783 222,776 216,770 211,763 199,727 192,690 192,652 198,616 213,582 236,553 268,529 311,513"/>
<polygon class="pen1 brush23" points="306,516 325,519 344,522 363,525 382,527 401,530 420,533 439,536 458,539 464,544 469,550 475,555 480,561 482,569 484,578 486,586 488,595 486,650 484,705 482,760 480,815 475,820 469,826 464,831 458,836 445,834 433,831 420,829 407,826 394,824 382,821 369,819 356,816 343,814 331,811 318,809 305,806 292,803 280,801 267,798 254,795 249,789 244,784 239,778 234,772 228,766 223,760 218,754 213,748 202,715 196,680 196,645 202,611 215,580 236,553 266,531 306,516"/>
<polygon class="pen1 brush74" points="301,520 319,523 336,525 354,528 371,530 388,532 406,535 423,537 441,540 446,545 451,550 456,556 461,561 463,569 465,576 466,584 468,592 466,642 465,692 463,743 461,793 456,798 451,803 446,809 441,814 429,812 417,809 406,807 394,805 382,802 370,800 359,798 347,795 335,793 324,791 312,788 300,786 288,783 277,781 265,778 253,776 248,771 244,765 239,760 235,754 230,749 225,743 221,738 216,732 206,702 200,670 200,638 206,607 218,579 237,554 265,534 301,520"/>
<polygon class="pen1 brush75" points="296,523 312,525 328,528 344,530 360,532 375,535 391,537 407,540 423,542 428,546 433,551 437,555 442,560 444,567 445,574 447,581 448,588 447,634 445,680 444,727 442,773 437,777 433,782 428,786 423,791 412,789 402,787 391,785 380,783 370,780 359,778 348,776 338,774 327,772 316,769 306,767 295,765 285,763 274,760 264,758 253,756 249,751 244,746 240,741 236,736 231,731 227,726 222,721 218,716 209,689 204,660 204,630 209,602 220,576 238,553 263,535 296,523"/>
<polygon class="pen1 brush76" points="291,526 305,528 320,530 334,533 349,535 363,537 377,539 392,541 406,543 410,547 414,552 419,556 423,560 424,567 425,573 427,579 428,585 427,627 425,668 424,710 423,751 419,755 414,759 410,764 406,768 387,764 367,760 348,756 329,752 309,749 290,745 271,741 252,737 248,732 244,728 240,723 237,719 233,714 229,710 225,705 221,701 213,676 208,650 208,624 213,598 222,575 238,554 261,538 291,526"/>
<polygon class="pen1 brush77" points="286,530 299,532 312,534 324,536 337,537 350,539 363,541 375,543 388,545 392,549 396,552 399,556 403,560 404,565 406,571 407,577 408,582 407,619 406,656 404,693 403,730 399,734 396,737 392,741 388,745 371,742 354,738 337,735 320,731 303,728 285,725 268,721 251,718 244,710 238,701 231,693 224,685 216,663 212,640 212,616 216,594 225,573 239,555 259,540 286,530"/>
<polygon class="pen1 brush78" points="281,533 292,535 304,537 315,538 326,540 337,541 349,543 360,544 371,545 374,549 378,553 381,556 384,560 385,565 386,569 387,574 388,579 387,612 386,644 385,677 384,709 381,712 378,715 374,719 371,722 356,719 341,716 326,713 311,710 296,707 281,704 265,701 250,698 244,691 238,684 232,677 226,670 220,650 216,630 216,609 220,589 228,571 240,555 258,542 281,533"/>
<polygon class="pen1 brush79" points="276,537 353,547 365,559 368,576 365,688 353,700 250,679 229,654 223,637 220,620 220,602 223,585 230,569 241,556 256,545 276,537"/>
<polygon class="pen1 brush3" points="430,537 451,538 472,542 492,548 511,555 530,565 547,577 563,591 578,606 592,622 604,640 614,660 623,680 630,702 636,724 639,747 640,771 639,795 636,818 630,840 623,862 614,882 604,902 592,920 578,936 563,951 547,965 530,977 511,987 492,994 472,1000 451,1004 430,1005 409,1004 388,1000 368,994 349,987 331,977 313,965 297,951 282,936 269,920 257,902 246,882 237,862 230,840 225,818 222,795 221,771 222,747 225,724 230,702 237,680 246,660 257,640 269,622 282,606 297,591 313,577 331,565 349,555 368,548 388,542 409,538 430,537"/>
<polygon class="pen1 brush80" points="443,550 464,551 484,555 503,560 522,568 540,578 556,589 572,602 587,617 600,633 611,650 621,669 630,689 637,710 642,732 645,755 646,778 645,801 642,824 637,845 630,866 621,886 611,905 600,922 587,938 572,953 556,966 540,978 522,987 503,995 484,1000 464,1004 443,1005 422,1004 402,1000 383,995 365,987 347,978 330,966 315,953 300,938 287,922 276,905 265,886 257,866 250,845 245,824 242,801 241,778 242,755 245,732 250,710 257,689 265,669 276,650 287,633 300,617 315,602 330,589 347,578 365,568 383,560 402,555 422,551 443,550"/>
<polygon class="pen1 brush55" points="433,550 453,551 472,554 490,560 508,567 525,576 541,587 556,600 569,614 582,629 593,646 603,664 611,683 617,703 622,724 625,745 626,767 625,789 622,811 617,832 611,852 603,871 593,889 582,906 569,921 556,935 541,948 525,959 508,968 490,975 472,981 453,984 433,985 413,984 394,981 376,975 358,968 341,959 326,948 311,935 297,921 285,906 274,889 264,871 256,852 250,832 245,811 242,789 241,767 242,745 245,724 250,703 256,683 264,664 274,646 285,629 297,614 311,600 326,587 341,576 358,567 376,560 394,554 413,551 433,550"/>
<polygon class="pen1 brush16" points="932,735 952,736 972,739 991,745 1010,752 1027,762 1044,773 1059,785 1073,800 1086,815 1098,832 1108,851 1116,870 1123,890 1128,911 1131,933 1132,956 1131,979 1128,1001 1123,1022 1116,1042 1108,1061 1098,1080 1086,1097 1073,1112 1059,1127 1044,1139 1027,1150 1010,1160 991,1167 972,1173 952,1176 932,1177 911,1176 891,1173 871,1167 853,1160 835,1150 818,1139 803,1127 788,1112 775,1097 763,1080 753,1061 745,1042 738,1022 733,1001 730,979 729,956 730,933 733,911 738,890 745,870 753,851 763,832 775,815 788,800 803,785 818,773 835,762 853,752 871,745 891,739 911,736 932,735"/>
<polygon class="pen1 brush4" points="911,744 932,745 952,749 971,754 989,762 1007,771 1024,782 1039,795 1054,809 1067,825 1078,842 1089,860 1097,880 1104,900 1109,921 1112,943 1113,966 1112,989 1109,1011 1104,1032 1097,1052 1089,1071 1078,1090 1067,1107 1054,1122 1039,1137 1024,1149 1007,1160 989,1170 971,1177 952,1183 932,1186 911,1187 890,1186 870,1183 851,1177 833,1170 815,1160 798,1149 783,1137 768,1122 755,1107 744,1090 733,1071 725,1052 718,1032 713,1011 710,989 709,966 710,943 713,921 718,900 725,880 733,860 744,842 755,825 768,809 783,795 798,782 815,771 833,762 851,754 870,749 890,745 911,744"/>
<polygon class="pen1 brush55" points="875,782 895,783 914,786 932,791 950,798 968,807 984,818 999,830 1013,843 1026,858 1038,874 1048,892 1057,910 1064,929 1070,949 1073,970 1075,991 1075,1012 1073,1033 1069,1053 1063,1072 1056,1090 1047,1108 1037,1124 1025,1139 1012,1152 998,1164 982,1175 966,1184 949,1191 931,1196 912,1199 892,1200 872,1199 853,1196 835,1191 817,1184 799,1175 783,1164 768,1152 754,1139 741,1124 729,1108 719,1090 710,1072 703,1053 697,1033 694,1012 692,991 692,970 694,949 698,929 704,910 711,892 720,874 730,858 742,843 755,830 769,818 785,807 801,798 818,791 836,786 855,783 875,782"/>
<polygon class="pen1 brush81" points="866,787 885,788 903,791 920,796 937,802 953,811 968,821 983,832 996,844 1008,858 1019,874 1029,890 1037,907 1044,925 1050,944 1053,963 1055,983 1055,1003 1053,1022 1049,1041 1044,1059 1037,1076 1028,1092 1018,1108 1007,1121 995,1134 981,1145 967,1155 951,1164 935,1170 918,1175 900,1178 882,1179 864,1178 846,1175 828,1170 811,1164 795,1155 780,1145 766,1134 752,1121 740,1108 729,1092 719,1076 711,1059 704,1041 699,1022 696,1003 694,983 694,963 696,944 700,925 705,907 712,890 721,874 730,858 741,844 754,832 767,821 781,811 797,802 813,796 830,791 848,788 866,787"/>
<polygon class="pen1 brush82" points="858,792 875,793 892,796 909,800 925,806 940,814 954,823 967,834 980,846 991,859 1002,873 1011,888 1018,904 1025,921 1030,938 1033,956 1035,975 1035,994 1033,1012 1029,1029 1024,1046 1017,1062 1009,1078 1000,1092 990,1105 978,1117 965,1127 952,1137 938,1144 922,1151 906,1155 890,1158 873,1159 856,1158 839,1155 823,1151 807,1144 792,1137 778,1127 764,1117 752,1105 741,1092 730,1078 721,1062 714,1046 707,1029 702,1012 699,994 697,975 697,956 699,938 702,921 707,904 714,888 722,873 731,859 741,846 753,834 765,823 779,814 793,806 808,800 824,796 841,793 858,792"/>
<polygon class="pen1 brush83" points="849,795 865,796 881,799 896,803 911,809 925,816 938,825 951,835 962,846 973,858 983,871 991,885 998,900 1004,916 1009,933 1012,950 1014,967 1012,1001 1004,1033 990,1062 972,1088 949,1109 923,1124 894,1135 863,1138 847,1137 831,1135 816,1130 802,1124 788,1117 774,1109 762,1099 750,1088 740,1076 730,1062 721,1048 714,1033 708,1018 704,1001 701,984 699,967 701,933 709,900 723,871 741,846 763,825 789,809 818,799 849,795"/>
<polygon class="pen1 brush84" points="841,801 870,804 897,813 922,828 945,847 963,871 978,898 988,927 992,959 990,991 983,1020 970,1047 954,1071 933,1090 909,1105 882,1114 853,1117 824,1114 796,1105 771,1090 749,1071 730,1047 716,1020 706,991 702,959 704,927 711,898 723,871 740,847 761,828 785,813 812,804 841,801"/>
<polygon class="pen1 brush85" points="832,806 859,809 884,817 907,831 928,848 945,870 959,895 968,922 972,951 970,980 963,1007 952,1032 936,1053 917,1071 895,1085 871,1093 844,1096 817,1093 791,1085 768,1071 748,1053 731,1032 717,1007 708,980 704,951 706,922 713,895 724,870 740,848 758,831 781,817 805,809 832,806"/>
<polygon class="pen1 brush86" points="823,811 848,814 871,821 892,834 911,850 926,869 938,892 946,916 950,943 949,970 943,995 932,1017 918,1037 901,1053 881,1065 858,1073 834,1076 809,1073 786,1065 765,1053 747,1037 731,1017 719,995 711,970 707,943 708,916 714,892 725,869 739,850 756,834 776,821 799,814 823,811"/>
<polygon class="pen1 brush87" points="815,816 837,818 858,825 877,836 894,851 908,868 919,889 927,911 930,935 929,959 923,982 913,1002 901,1020 885,1034 867,1046 846,1053 824,1055 802,1053 782,1046 763,1034 746,1020 731,1002 720,982 713,959 710,935 711,911 717,889 726,868 739,851 754,836 772,825 793,818 815,816"/>
<polygon class="pen1 brush88" points="807,820 826,822 845,828 862,838 877,851 889,867 899,885 905,905 908,927 907,949 902,969 894,987 883,1003 869,1016 853,1026 835,1032 815,1034 795,1032 776,1026 759,1016 744,1003 731,987 721,969 715,949 712,927 713,905 718,885 727,867 738,851 752,838 769,828 787,822 807,820"/>
<polygon class="pen1 brush89" points="797,825 815,827 831,832 846,841 860,852 871,866 880,882 886,900 889,919 888,938 883,956 875,972 865,985 852,997 838,1006 822,1011 805,1013 787,1011 771,1006 756,997 743,985 732,972 723,956 717,938 715,919 716,900 720,882 728,866 738,852 750,841 764,832 780,827 797,825"/>
<polygon class="pen1 brush90" points="789,830 804,832 818,836 831,844 843,854 852,866 860,880 865,895 867,911 866,927 862,943 856,957 847,969 836,979 824,987 810,991 795,993 780,991 766,987 753,979 741,969 732,957 724,943 719,927 717,911 718,895 722,880 728,866 737,854 748,844 760,836 774,832 789,830"/>
<polygon class="pen1 brush91" points="780,834 793,835 805,840 816,846 826,855 834,865 840,877 845,889 847,903 846,917 842,930 837,942 829,952 820,960 810,967 798,971 786,972 773,971 761,967 750,960 741,952 733,942 726,930 722,917 720,903 721,889 724,877 729,865 736,855 745,846 756,840 767,835 780,834"/>
<polygon class="pen1 brush92" points="866,864 890,865 912,872 932,882 950,896 966,914 978,935 987,958 992,983 992,1008 987,1032 979,1054 967,1073 951,1089 933,1101 912,1109 890,1113 867,1112 845,1106 824,1095 806,1081 790,1063 777,1042 769,1019 764,994 764,969 768,945 777,923 789,904 804,888 823,876 843,868 866,864"/>
<polygon class="pen1 brush93" points="813,918 942,932 951,935 959,941 965,949 967,959 967,1033 965,1043 959,1050 951,1054 942,1055 813,1042 803,1039 795,1033 790,1025 788,1015 788,940 790,931 795,924 803,919 813,918"/>
<polygon class="pen1 brush94" points="894,936 904,937 914,940 923,945 931,952 939,959 945,968 949,978 952,989 952,1000 951,1010 947,1019 942,1027 936,1034 928,1039 919,1042 910,1043 899,1042 889,1039 880,1034 871,1027 864,1019 858,1010 853,1000 851,989 851,978 852,968 855,959 861,952 867,945 875,940 884,937 894,936"/>
<polygon class="pen1 brush95" points="893,939 903,940 912,943 921,947 929,953 936,961 941,969 946,979 948,989 948,999 947,1008 944,1017 939,1024 933,1030 926,1035 917,1038 908,1039 898,1038 889,1035 880,1030 872,1024 865,1017 859,1008 855,999 853,989 853,979 854,969 857,961 862,953 868,947 875,943 884,940 893,939"/>
<polygon class="pen1 brush96" points="893,941 902,942 911,945 919,949 926,955 933,962 938,970 942,979 944,988 945,997 943,1006 941,1014 936,1021 931,1027 923,1031 915,1034 906,1035 897,1034 888,1031 880,1027 873,1021 867,1014 861,1006 857,997 855,988 855,979 856,970 859,962 864,955 870,949 877,945 884,942 893,941"/>
<polygon class="pen1 brush97" points="893,944 902,945 910,947 917,951 924,956 930,963 935,970 938,978 940,987 941,996 939,1004 937,1011 933,1018 927,1023 921,1027 913,1030 905,1031 897,1030 888,1027 881,1023 874,1018 868,1011 863,1004 860,996 858,987 857,978 859,970 861,963 865,956 871,951 877,947 885,945 893,944"/>
<polygon class="pen1 brush98" points="893,946 901,947 908,949 915,953 922,958 927,964 932,971 935,979 937,987 937,995 936,1003 933,1009 930,1015 924,1020 918,1024 912,1026 904,1027 896,1026 889,1024 882,1020 875,1015 870,1009 865,1003 862,995 860,987 860,979 861,971 864,964 868,958 873,953 879,949 885,947 893,946"/>
<polygon class="pen1 brush99" points="892,949 899,950 906,952 913,955 919,960 924,965 928,971 931,978 933,986 933,994 932,1001 930,1007 927,1013 922,1018 917,1021 910,1023 903,1024 896,1023 889,1021 882,1018 877,1013 871,1007 867,1001 864,994 862,986 862,978 863,971 865,965 869,960 873,955 879,952 885,950 892,949"/>
<polygon class="pen1 brush100" points="892,951 899,952 905,954 911,957 917,961 921,966 925,972 928,978 930,985 930,992 929,998 927,1004 924,1010 919,1014 914,1017 908,1019 902,1020 895,1019 889,1017 883,1014 878,1010 873,1004 869,998 866,992 865,985 865,978 865,972 867,966 871,961 875,957 880,954 886,952 892,951"/>
<polygon class="pen1 brush101" points="892,954 898,955 904,956 909,959 914,963 918,968 922,973 924,979 926,985 925,997 920,1007 912,1014 901,1016 895,1015 889,1014 884,1011 879,1007 874,1002 871,997 868,991 867,985 868,973 873,963 881,956 892,954"/>
<polygon class="pen1 brush102" points="892,956 897,957 902,958 907,961 912,964 915,969 918,973 921,978 922,984 921,995 917,1004 910,1010 900,1012 894,1011 889,1010 884,1007 880,1004 876,1000 873,995 870,990 869,984 870,973 874,964 882,958 892,956"/>
<polygon class="pen1 brush103" points="892,958 901,960 909,966 916,974 919,983 918,993 914,1001 907,1006 899,1008 889,1006 881,1001 875,993 872,983 872,974 876,966 883,960 892,958"/>
<polygon class="pen1 brush104" points="891,961 900,963 907,967 912,974 915,983 915,991 912,998 906,1002 897,1004 889,1002 882,998 877,991 874,983 874,974 878,967 883,963 891,961"/>
<polygon class="pen1 brush105" points="891,963 898,965 904,969 909,975 911,982 911,989 908,995 903,999 896,1001 890,999 884,995 879,989 876,982 877,975 879,969 884,965 891,963"/>
<polygon class="pen1 brush17" points="1080,803 1132,763 1145,777 1156,791 1166,805 1174,820 1180,836 1184,853 1187,872 1189,893 1135,929 1132,909 1129,892 1125,876 1120,862 1114,848 1105,834 1094,819 1080,803"/>
<polygon class="pen1 brush56" points="1083,806 1089,801 1096,796 1102,791 1109,786 1115,782 1121,777 1128,772 1134,767 1146,780 1157,792 1165,805 1173,819 1178,833 1182,849 1185,866 1187,886 1181,891 1174,895 1168,900 1161,904 1154,909 1147,914 1141,918 1134,923 1131,905 1128,889 1125,875 1120,861 1114,849 1106,836 1096,822 1083,806"/>
<polygon class="pen1 brush57" points="1085,810 1091,805 1098,800 1104,795 1111,790 1117,786 1124,781 1131,776 1138,771 1149,783 1158,794 1166,806 1172,818 1177,831 1181,845 1184,861 1186,880 1179,885 1173,889 1166,894 1160,898 1153,903 1146,908 1140,912 1133,917 1130,900 1127,886 1124,873 1120,861 1114,850 1106,838 1097,825 1085,810"/>
<polygon class="pen1 brush58" points="1088,814 1094,809 1101,804 1107,799 1114,794 1120,790 1126,785 1133,780 1139,775 1149,786 1158,797 1165,807 1171,818 1176,829 1180,842 1182,857 1184,874 1178,879 1171,883 1165,888 1158,892 1151,897 1145,901 1138,906 1132,911 1129,896 1126,883 1123,871 1119,861 1114,850 1107,839 1099,828 1088,814"/>
<polygon class="pen1 brush59" points="1091,817 1097,812 1104,808 1110,803 1116,798 1123,794 1129,789 1135,784 1141,779 1151,789 1159,798 1165,807 1170,817 1174,827 1177,839 1180,852 1182,868 1176,873 1169,877 1163,882 1157,886 1150,891 1144,895 1137,900 1131,905 1128,892 1125,880 1122,870 1119,861 1114,851 1108,841 1101,830 1091,817"/>
<polygon class="pen1 brush60" points="1094,821 1100,816 1106,811 1112,806 1119,802 1125,797 1131,793 1138,788 1144,784 1153,793 1160,801 1165,808 1169,816 1173,825 1176,835 1178,847 1181,862 1175,867 1168,871 1162,876 1156,880 1149,885 1143,889 1136,894 1130,899 1127,887 1125,877 1122,868 1119,860 1115,852 1109,843 1103,833 1094,821"/>
<polygon class="pen1 brush61" points="1097,824 1103,819 1109,815 1115,810 1122,806 1128,801 1134,797 1140,792 1146,788 1154,796 1160,803 1165,809 1168,816 1171,823 1174,832 1177,842 1180,855 1173,860 1167,865 1160,869 1154,874 1148,879 1142,883 1135,888 1129,893 1126,883 1124,874 1121,867 1119,860 1115,852 1111,844 1105,835 1097,824"/>
<polygon class="pen1 brush62" points="1099,828 1105,823 1112,819 1118,814 1124,810 1130,805 1136,801 1143,796 1149,792 1161,804 1167,815 1171,828 1177,849 1171,854 1165,859 1159,863 1153,868 1146,873 1140,877 1134,882 1128,887 1123,871 1118,859 1111,847 1099,828"/>
<polygon class="pen1 brush63" points="1102,831 1108,827 1115,823 1121,818 1127,814 1133,809 1139,805 1145,800 1151,795 1161,806 1166,814 1170,825 1176,843 1170,848 1164,853 1158,857 1152,862 1145,867 1139,871 1133,876 1127,881 1122,868 1118,859 1112,848 1102,831"/>
<polygon class="pen1 brush64" points="1105,834 1111,830 1117,826 1123,822 1129,817 1135,813 1141,809 1147,804 1153,800 1162,809 1165,814 1168,821 1174,836 1168,841 1162,846 1156,851 1150,856 1144,861 1138,865 1132,870 1126,875 1121,865 1118,859 1113,850 1105,834"/>
<polygon class="pen1 brush65" points="1108,837 1114,833 1120,829 1126,825 1132,821 1138,817 1144,813 1150,808 1156,804 1163,810 1165,813 1166,818 1173,831 1167,836 1161,840 1155,845 1149,850 1143,854 1137,859 1131,864 1125,869 1120,862 1118,858 1114,851 1108,837"/>
<polygon class="pen1 brush66" points="1111,842 1158,809 1163,813 1163,812 1164,814 1171,824 1124,863 1119,859 1118,858 1116,853 1111,842"/>
<polygon class="pen1 brush17" points="1018,856 1060,824 1070,835 1079,846 1086,857 1093,868 1098,881 1101,894 1104,909 1105,926 1062,955 1060,939 1057,926 1054,913 1050,902 1045,891 1038,880 1029,869 1018,856"/>
<polygon class="pen1 brush56" points="1021,858 1026,854 1031,850 1036,846 1041,842 1046,839 1051,835 1056,831 1061,827 1071,837 1079,847 1086,857 1092,868 1096,879 1100,891 1102,905 1103,921 1098,925 1093,928 1087,932 1082,935 1077,939 1072,943 1066,946 1061,950 1059,936 1057,923 1054,912 1050,902 1046,892 1039,881 1031,870 1021,858"/>
<polygon class="pen1 brush57" points="1023,861 1028,857 1033,853 1038,850 1043,846 1048,842 1053,838 1058,834 1063,830 1072,839 1080,849 1086,858 1091,867 1095,878 1098,889 1101,902 1102,917 1097,920 1092,924 1086,927 1081,931 1076,935 1071,938 1066,942 1061,945 1059,932 1056,920 1054,910 1050,901 1046,892 1040,883 1032,873 1023,861"/>
<polygon class="pen1 brush58" points="1025,864 1030,860 1035,856 1040,853 1045,849 1050,845 1055,841 1060,838 1065,834 1073,843 1080,851 1086,859 1091,867 1094,877 1097,887 1099,898 1101,912 1096,915 1091,919 1085,922 1080,926 1075,930 1070,934 1065,937 1060,941 1058,929 1056,919 1054,909 1050,901 1046,893 1041,884 1034,875 1025,864"/>
<polygon class="pen1 brush59" points="1027,867 1032,863 1037,859 1043,856 1048,852 1053,848 1058,844 1062,840 1067,836 1074,844 1081,852 1085,859 1089,867 1092,875 1095,884 1097,895 1099,907 1094,910 1089,914 1084,917 1079,921 1074,925 1069,929 1064,932 1059,936 1057,925 1055,916 1053,908 1050,901 1046,893 1041,886 1035,877 1027,867"/>
<polygon class="pen1 brush60" points="1030,870 1035,866 1040,862 1045,859 1050,855 1054,851 1059,847 1064,843 1069,839 1082,853 1089,866 1094,881 1098,902 1093,906 1088,909 1083,913 1078,916 1073,920 1068,924 1063,927 1058,931 1054,914 1050,900 1042,887 1030,870"/>
<polygon class="pen1 brush61" points="1032,872 1037,869 1042,865 1047,862 1052,858 1056,854 1061,851 1066,847 1071,844 1082,856 1088,866 1092,878 1097,897 1092,901 1087,904 1082,908 1077,912 1072,916 1067,919 1062,923 1057,926 1053,912 1049,900 1043,889 1032,872"/>
<polygon class="pen1 brush62" points="1035,875 1040,872 1044,868 1049,865 1054,861 1058,857 1063,854 1068,850 1073,847 1083,857 1088,865 1091,875 1097,892 1092,896 1087,899 1081,903 1076,907 1071,911 1066,914 1061,918 1056,922 1052,909 1049,900 1044,890 1035,875"/>
<polygon class="pen1 brush63" points="1036,878 1041,875 1046,871 1051,868 1056,864 1060,860 1065,857 1070,853 1075,850 1083,858 1087,864 1089,873 1094,887 1089,891 1084,894 1080,898 1075,902 1070,906 1066,909 1061,913 1056,917 1052,907 1049,900 1044,891 1036,878"/>
<polygon class="pen1 brush64" points="1039,881 1044,878 1048,874 1053,871 1058,867 1062,863 1067,860 1072,856 1077,853 1083,860 1086,864 1088,870 1093,881 1088,885 1083,889 1079,893 1074,897 1069,901 1065,904 1060,908 1055,912 1051,905 1049,899 1045,893 1039,881"/>
<polygon class="pen1 brush65" points="1041,884 1046,881 1050,877 1055,874 1060,870 1064,867 1069,864 1073,860 1078,857 1084,862 1085,863 1086,867 1092,876 1087,880 1082,884 1078,888 1073,892 1069,896 1064,900 1060,904 1055,908 1051,903 1048,899 1046,894 1041,884"/>
<polygon class="pen1 brush66" points="1043,886 1080,860 1085,863 1085,863 1085,865 1090,873 1053,903 1049,900 1048,899 1047,895 1043,886"/>
<polygon class="pen1 brush3" points="1180,360 1132,401 1105,489 1340,530 1340,387 1180,360"/>
<polygon class="pen1 brush106" points="1200,367 1200,469 1333,489 1340,394 1200,367"/>
<polygon class="pen1 brush107" points="1213,448 1092,482 1340,523 1333,469 1213,448"/>
</g>
</svg>