<?xml version="1.0" encoding="utf-8"?>
<!DOCTYPE svg PUBLIC "-//W3C//DTD SVG 1.0//EN" "http://www.w3.org/TR/2001/REC-SVG-20010904/DTD/svg10.dtd">
<svg aria-labelledby="title desc" fill-rule="evenodd" height="2.014in" preserveAspectRatio="none" stroke-linecap="round" viewBox="0 0 1968 2014" width="1.968in" xmlns="http://www.w3.org/2000/svg" xmlns:xlink="http://www.w3.org/1999/xlink"><title>arts,cameras,households,photography,visual arts</title><desc>Original keywords: arts,cameras,households,photography,visual arts. This clipart was ripped from the Microsoft website, then uploaded to https://archive.org/details/MS_Clipart_Collection. (The original WMF file can be found within that item, under the folder MC900361438). From there, it was then converted by Trumad to svg using https://github.com/hidekatsu-izuno/wmf2svg in a bulk operation. All the converted files can be found at https://archive.org/details/MS_Clipart_Collection_SVG</desc>
<style type="text/css">
.brush0 { fill: rgb(255,255,255); }
.pen0 { stroke: rgb(0,0,0); stroke-width: 1; stroke-linejoin: round; }
.brush1 { fill: none; }
.pen1 { stroke: none; }
.brush2 { fill: rgb(137,137,183); }
.brush3 { fill: rgb(150,150,191); }
.brush4 { fill: rgb(158,158,196); }
.brush5 { fill: rgb(170,170,204); }
.brush6 { fill: rgb(181,181,209); }
.brush7 { fill: rgb(191,191,216); }
.brush8 { fill: rgb(201,201,221); }
.brush9 { fill: rgb(211,211,229); }
.brush10 { fill: rgb(221,221,234); }
.brush11 { fill: rgb(234,234,242); }
.brush12 { fill: rgb(242,242,247); }
.brush13 { fill: rgb(51,61,86); }
.brush14 { fill: rgb(89,99,124); }
.brush15 { fill: rgb(117,119,175); }
.brush16 { fill: rgb(178,175,216); }
.brush17 { fill: rgb(226,201,242); }
.brush18 { fill: rgb(56,66,94); }
.brush19 { fill: rgb(61,71,102); }
.brush20 { fill: rgb(71,79,112); }
.brush21 { fill: rgb(76,84,119); }
.brush22 { fill: rgb(81,89,127); }
.brush23 { fill: rgb(86,91,135); }
.brush24 { fill: rgb(91,96,142); }
.brush25 { fill: rgb(96,102,150); }
.brush26 { fill: rgb(107,109,160); }
.brush27 { fill: rgb(112,114,168); }
.brush28 { fill: rgb(145,142,188); }
.brush29 { fill: rgb(147,145,191); }
.brush30 { fill: rgb(155,153,196); }
.brush31 { fill: rgb(163,158,201); }
.brush32 { fill: rgb(165,160,204); }
.brush33 { fill: rgb(173,165,209); }
.brush34 { fill: rgb(175,168,211); }
.brush35 { fill: rgb(183,173,216); }
.brush36 { fill: rgb(191,181,221); }
.brush37 { fill: rgb(193,183,224); }
.brush38 { fill: rgb(201,188,229); }
.brush39 { fill: rgb(28,38,63); }
.brush40 { fill: rgb(91,102,130); }
.brush41 { fill: rgb(94,104,135); }
.brush42 { fill: rgb(96,104,137); }
.brush43 { fill: rgb(99,107,142); }
.brush44 { fill: rgb(102,109,147); }
.brush45 { fill: rgb(104,109,153); }
.brush46 { fill: rgb(107,112,158); }
.brush47 { fill: rgb(109,114,163); }
.brush48 { fill: rgb(112,114,165); }
.brush49 { fill: rgb(114,117,170); }
.brush50 { fill: rgb(140,140,186); }
.brush51 { fill: rgb(150,150,193); }
.brush52 { fill: rgb(153,153,196); }
.brush53 { fill: rgb(155,155,198); }
.brush54 { fill: rgb(160,158,201); }
.brush55 { fill: rgb(163,160,204); }
.brush56 { fill: rgb(165,163,206); }
.brush57 { fill: rgb(170,170,211); }
.brush58 { fill: rgb(175,173,214); }
</style>
<g>
<polygon class="pen1 brush2" points="118,0 1922,65 1760,2014 394,1965 391,1943 383,1881 371,1784 355,1658 336,1509 315,1343 292,1166 268,982 244,799 219,622 196,456 175,307 155,181 139,84 126,22 118,0"/>
<polygon class="pen1 brush2" points="866,231 805,231 677,448 416,448 369,420 277,422 192,422 354,1647 411,1603 462,1542 494,1490 531,1487 569,1490 621,1589 679,1661 743,1727 873,1792 1019,1825 1141,1825 1284,1781 1407,1710 1465,1637 1517,1557 1555,1430 1612,1429 1704,1423 1808,1423 1887,446 1815,439 1674,446 1438,435 1381,295 1342,249 1301,240 1253,181 1094,176 1097,236 1066,237 1062,177 915,183 883,219 866,231"/>
<polygon class="pen1 brush3" points="870,233 862,233 855,233 847,233 840,233 832,233 825,233 817,233 809,233 793,260 777,288 761,315 745,342 729,369 713,396 697,424 681,451 664,451 648,451 631,451 614,451 598,451 581,451 564,451 548,451 531,451 514,451 497,451 481,451 464,452 447,452 431,452 414,452 408,448 403,445 397,441 391,437 385,434 379,430 373,427 367,423 356,423 345,424 333,424 322,424 311,424 300,424 288,424 277,424 266,424 256,424 245,424 235,424 224,424 213,424 203,424 192,424 202,500 212,576 222,652 232,728 242,804 252,880 262,956 273,1032 283,1108 293,1184 303,1260 313,1336 323,1412 333,1488 343,1564 353,1640 360,1635 368,1629 375,1624 382,1619 389,1614 396,1608 403,1603 410,1597 416,1589 423,1582 429,1574 435,1567 441,1559 447,1552 453,1544 459,1536 463,1529 467,1522 471,1516 476,1509 480,1502 484,1495 488,1489 492,1482 497,1481 502,1481 507,1480 513,1480 518,1479 523,1479 528,1478 533,1478 538,1478 543,1479 548,1479 553,1480 558,1480 563,1481 568,1481 573,1482 579,1494 586,1507 592,1519 599,1531 605,1544 611,1556 618,1569 624,1581 631,1591 638,1600 645,1610 653,1619 660,1629 667,1638 674,1648 681,1657 689,1665 697,1673 705,1681 713,1689 721,1698 730,1706 738,1714 746,1722 762,1730 778,1738 794,1747 811,1755 827,1763 843,1771 860,1779 876,1787 893,1791 911,1795 929,1799 946,1803 964,1808 982,1812 1001,1816 1019,1820 1034,1820 1050,1820 1065,1820 1081,1820 1096,1820 1111,1820 1126,1820 1141,1820 1159,1815 1177,1809 1195,1804 1213,1798 1231,1793 1249,1788 1266,1782 1284,1777 1299,1768 1315,1759 1330,1750 1345,1741 1360,1732 1375,1723 1390,1714 1405,1705 1412,1696 1420,1686 1427,1677 1434,1668 1442,1659 1449,1650 1456,1641 1463,1632 1469,1622 1476,1612 1482,1602 1489,1592 1496,1582 1502,1572 1509,1562 1515,1552 1520,1536 1525,1520 1529,1505 1534,1489 1539,1473 1543,1457 1548,1442 1553,1426 1560,1426 1567,1425 1575,1425 1582,1425 1590,1425 1597,1425 1605,1424 1612,1424 1624,1423 1635,1422 1647,1422 1659,1421 1670,1420 1682,1419 1693,1419 1705,1418 1718,1418 1731,1418 1744,1418 1757,1418 1769,1418 1782,1418 1795,1418 1808,1418 1818,1297 1828,1176 1838,1055 1848,933 1857,812 1867,691 1877,570 1887,449 1878,448 1869,447 1860,446 1851,445 1842,445 1833,444 1824,443 1815,442 1797,443 1780,444 1762,445 1745,445 1727,446 1709,447 1692,448 1674,449 1659,448 1644,448 1629,447 1614,446 1599,446 1584,445 1569,444 1555,444 1540,443 1525,442 1510,442 1495,441 1480,441 1465,440 1450,440 1435,439 1428,421 1420,403 1413,385 1405,367 1398,349 1390,332 1383,314 1375,296 1371,290 1366,285 1362,279 1357,273 1353,267 1348,262 1344,256 1339,251 1334,250 1329,249 1323,248 1318,246 1313,245 1308,244 1303,243 1298,242 1292,235 1286,228 1280,220 1275,213 1269,205 1263,198 1258,190 1252,183 1233,183 1213,182 1194,182 1175,181 1155,181 1136,181 1116,180 1097,180 1098,194 1099,209 1100,224 1101,238 1096,238 1091,239 1086,239 1082,239 1077,240 1072,240 1068,240 1063,240 1062,225 1062,210 1061,195 1060,181 1042,181 1024,182 1006,182 988,183 970,183 952,184 934,185 916,186 913,191 909,196 905,200 901,205 897,209 893,214 889,218 885,223 881,225 878,228 874,231 870,233"/>
<polygon class="pen1 brush4" points="874,236 866,236 859,236 851,236 844,236 836,236 829,236 821,236 813,236 797,263 781,290 765,317 750,345 734,372 718,399 702,427 686,454 669,454 652,454 634,454 617,454 600,454 583,454 566,454 549,454 532,455 514,455 497,455 480,455 463,455 446,455 429,455 412,455 406,452 401,448 395,445 389,441 383,437 377,434 371,430 365,427 354,427 343,427 332,427 321,427 310,427 299,427 288,427 277,427 266,427 256,427 245,427 235,427 224,427 213,427 203,427 192,427 202,502 212,578 222,653 232,729 242,804 252,880 262,955 272,1030 282,1106 292,1181 302,1257 313,1332 323,1408 333,1483 343,1559 353,1634 360,1629 367,1623 374,1618 381,1613 388,1608 395,1602 402,1597 409,1592 415,1584 421,1576 427,1569 433,1561 439,1554 445,1546 451,1539 457,1531 461,1524 465,1516 469,1509 474,1502 478,1494 482,1487 486,1480 490,1473 496,1473 501,1472 507,1472 513,1471 518,1471 524,1471 529,1470 535,1470 540,1470 545,1471 550,1471 555,1471 560,1472 566,1472 571,1473 576,1473 582,1486 589,1498 595,1511 602,1523 608,1536 614,1549 621,1561 627,1574 634,1584 641,1593 648,1603 655,1613 662,1623 669,1632 676,1642 683,1652 691,1660 699,1668 708,1677 716,1685 724,1693 732,1701 740,1710 748,1718 764,1726 780,1734 797,1742 813,1750 829,1758 846,1767 862,1775 878,1783 895,1787 912,1791 930,1795 947,1799 965,1804 983,1808 1001,1812 1019,1816 1034,1816 1050,1816 1065,1816 1081,1816 1096,1816 1111,1816 1126,1816 1141,1816 1159,1811 1177,1805 1195,1800 1213,1794 1231,1789 1249,1784 1266,1778 1284,1773 1299,1764 1314,1754 1329,1745 1344,1736 1359,1727 1374,1718 1388,1709 1403,1700 1410,1691 1418,1681 1425,1672 1432,1663 1440,1654 1447,1645 1454,1636 1461,1627 1467,1617 1474,1607 1481,1597 1487,1587 1494,1577 1501,1567 1507,1557 1513,1547 1518,1532 1522,1516 1527,1501 1532,1485 1536,1469 1541,1453 1545,1438 1550,1422 1558,1422 1566,1421 1574,1421 1582,1421 1589,1420 1597,1420 1605,1420 1613,1420 1625,1419 1636,1418 1648,1418 1659,1417 1670,1416 1682,1415 1693,1415 1705,1414 1718,1414 1731,1414 1744,1414 1757,1414 1770,1414 1783,1414 1796,1414 1809,1414 1819,1294 1829,1173 1838,1053 1848,933 1858,812 1868,692 1877,572 1887,452 1878,451 1869,450 1860,449 1851,448 1842,447 1833,447 1824,446 1815,445 1797,446 1780,447 1762,447 1745,448 1727,449 1709,450 1692,451 1674,452 1659,451 1644,451 1629,450 1614,450 1599,449 1584,449 1569,448 1554,447 1538,447 1523,446 1508,446 1493,445 1478,445 1463,444 1448,444 1433,443 1425,424 1418,406 1410,388 1402,370 1394,352 1386,333 1378,315 1370,297 1366,292 1361,286 1357,281 1353,275 1348,270 1344,265 1339,259 1335,254 1330,253 1325,251 1320,250 1315,249 1310,247 1305,246 1300,245 1295,244 1289,237 1284,230 1278,223 1273,215 1267,208 1261,201 1256,194 1250,187 1231,187 1213,186 1194,186 1175,185 1156,185 1138,184 1119,184 1101,183 1102,198 1102,212 1102,227 1103,241 1098,241 1093,242 1087,242 1082,242 1077,243 1072,243 1066,243 1061,243 1060,228 1060,213 1059,198 1058,183 1040,184 1023,185 1005,186 988,186 970,187 952,188 935,188 917,189 914,194 910,199 906,204 902,208 898,213 894,218 890,223 886,228 883,230 880,232 877,234 874,236"/>
<polygon class="pen1 brush5" points="878,239 870,239 863,239 855,239 848,239 840,239 833,239 825,239 817,239 801,266 785,293 769,320 753,347 737,375 721,402 705,429 689,456 672,456 654,456 637,457 619,457 602,457 584,457 567,457 550,457 532,458 515,458 497,458 480,458 462,458 445,459 427,459 410,459 405,455 399,452 393,448 387,444 381,441 375,437 369,434 363,430 352,430 342,430 331,430 320,430 310,430 299,430 288,430 277,430 266,430 256,430 245,430 235,430 224,430 213,430 203,430 192,430 202,505 212,580 222,654 232,729 242,804 252,879 262,954 272,1028 282,1103 292,1178 302,1253 312,1328 322,1403 332,1477 342,1552 352,1627 359,1622 366,1617 373,1611 380,1606 387,1601 394,1596 401,1591 408,1586 414,1578 420,1570 426,1563 432,1555 437,1548 443,1540 449,1533 455,1525 459,1517 463,1510 468,1502 472,1494 476,1487 480,1479 484,1472 488,1464 494,1464 500,1463 506,1463 512,1462 518,1462 524,1462 531,1461 537,1461 542,1461 548,1462 553,1462 558,1462 563,1463 569,1463 574,1464 580,1464 586,1477 592,1490 598,1503 605,1515 611,1528 617,1541 624,1554 630,1567 637,1577 644,1587 651,1597 658,1607 665,1618 672,1628 679,1638 686,1648 694,1656 702,1664 710,1672 718,1680 726,1689 734,1697 742,1705 750,1713 766,1721 783,1729 799,1738 815,1746 832,1754 848,1762 864,1770 880,1778 897,1782 914,1787 931,1791 949,1795 966,1800 984,1804 1001,1808 1019,1812 1034,1812 1050,1812 1065,1812 1081,1812 1096,1812 1111,1812 1126,1812 1141,1812 1159,1807 1177,1801 1195,1796 1213,1790 1231,1785 1249,1779 1266,1774 1284,1768 1299,1759 1313,1750 1328,1741 1343,1731 1357,1722 1372,1713 1386,1704 1401,1695 1408,1686 1416,1676 1423,1667 1430,1658 1438,1649 1445,1640 1452,1631 1459,1622 1465,1612 1472,1602 1478,1592 1485,1582 1492,1572 1498,1562 1505,1552 1511,1542 1516,1527 1520,1511 1525,1496 1529,1480 1534,1465 1538,1449 1543,1434 1547,1418 1555,1418 1564,1417 1572,1417 1580,1416 1588,1416 1597,1416 1605,1415 1613,1415 1625,1414 1636,1413 1648,1413 1660,1412 1671,1411 1683,1410 1694,1410 1706,1409 1719,1409 1732,1409 1745,1409 1758,1409 1770,1409 1783,1409 1796,1409 1809,1409 1819,1290 1829,1170 1838,1051 1848,932 1858,813 1868,693 1877,574 1887,454 1878,453 1869,452 1860,452 1851,451 1842,450 1833,449 1824,449 1815,448 1797,449 1780,449 1762,450 1745,451 1727,452 1709,452 1692,453 1674,454 1659,454 1644,453 1628,453 1613,452 1598,452 1583,451 1568,451 1553,450 1537,450 1522,450 1507,449 1492,449 1477,448 1461,448 1446,447 1431,447 1422,428 1414,410 1405,391 1397,373 1389,354 1381,336 1372,317 1364,299 1360,293 1356,288 1352,282 1348,277 1344,271 1340,266 1336,261 1332,256 1327,255 1322,254 1317,252 1312,251 1306,250 1301,248 1296,247 1291,246 1286,239 1281,231 1275,224 1270,217 1265,210 1260,204 1254,197 1249,190 1231,190 1212,189 1194,189 1176,188 1158,188 1140,188 1122,187 1104,187 1104,201 1105,215 1105,230 1106,244 1100,244 1094,245 1088,245 1082,245 1076,245 1071,245 1065,246 1060,246 1059,231 1058,216 1057,202 1056,187 1039,188 1022,188 1004,189 987,189 970,190 953,191 935,191 918,192 915,197 911,202 907,207 904,212 900,217 896,222 892,227 888,232 886,234 883,235 881,237 878,239"/>
<polygon class="pen1 brush6" points="883,241 875,241 867,241 860,241 852,241 844,241 837,241 829,241 821,241 805,268 789,296 773,323 757,350 740,377 724,404 708,432 692,459 674,459 657,459 639,460 621,460 604,460 586,460 568,460 550,460 533,461 515,461 497,461 479,461 461,461 444,462 426,462 408,462 402,459 397,455 391,452 385,448 379,444 373,440 367,437 361,433 351,433 340,433 330,433 319,433 309,433 298,433 288,433 277,433 266,433 256,433 245,433 235,433 224,433 213,433 203,433 192,433 212,581 232,730 251,878 271,1027 291,1175 310,1324 330,1472 350,1621 357,1616 364,1611 371,1605 379,1600 386,1595 393,1590 400,1585 407,1580 413,1572 418,1565 424,1557 430,1550 435,1542 441,1535 446,1527 452,1519 456,1511 461,1503 465,1495 469,1487 474,1479 478,1471 482,1463 486,1455 493,1455 499,1454 506,1454 512,1454 519,1454 525,1454 532,1453 538,1453 544,1453 549,1454 555,1454 561,1454 566,1454 572,1454 577,1455 583,1455 589,1468 596,1481 602,1494 608,1507 614,1521 620,1534 627,1547 633,1560 640,1570 647,1581 653,1591 660,1601 667,1612 674,1622 681,1633 688,1643 696,1651 704,1659 712,1668 720,1676 728,1684 737,1692 745,1701 753,1709 769,1717 785,1725 801,1733 818,1741 834,1749 850,1758 866,1766 882,1774 899,1778 916,1782 933,1786 950,1791 967,1795 984,1799 1002,1804 1019,1808 1034,1808 1050,1808 1065,1808 1081,1808 1096,1808 1111,1808 1126,1808 1141,1808 1159,1802 1177,1797 1195,1791 1213,1786 1231,1781 1249,1775 1266,1770 1284,1764 1299,1755 1313,1745 1328,1736 1342,1727 1356,1718 1370,1709 1385,1699 1399,1690 1406,1681 1414,1672 1421,1663 1428,1653 1436,1644 1443,1635 1450,1626 1457,1617 1463,1607 1470,1597 1476,1587 1483,1577 1490,1567 1496,1557 1503,1547 1509,1537 1513,1522 1518,1506 1522,1491 1527,1475 1531,1460 1535,1445 1540,1429 1544,1414 1553,1414 1561,1413 1570,1413 1579,1412 1587,1412 1596,1412 1605,1411 1614,1411 1626,1410 1637,1409 1649,1409 1660,1408 1671,1407 1683,1406 1694,1406 1706,1405 1719,1405 1732,1405 1745,1405 1758,1405 1771,1405 1784,1405 1797,1405 1810,1405 1820,1286 1829,1168 1839,1049 1849,931 1858,812 1868,694 1877,575 1887,457 1878,456 1869,455 1860,455 1851,454 1842,453 1833,452 1824,452 1815,451 1797,452 1780,452 1762,453 1745,454 1727,455 1709,455 1692,456 1674,457 1659,457 1643,456 1628,456 1613,455 1597,455 1582,455 1566,454 1551,454 1536,453 1520,453 1505,453 1490,452 1474,452 1459,451 1443,451 1428,450 1419,431 1411,412 1402,394 1393,375 1384,356 1375,337 1367,319 1358,300 1354,295 1351,289 1347,284 1343,279 1339,274 1336,268 1332,263 1328,258 1323,257 1318,256 1313,254 1308,253 1303,252 1298,250 1293,249 1288,248 1283,241 1278,234 1273,227 1268,220 1263,214 1257,207 1252,200 1247,193 1229,193 1212,192 1194,192 1177,192 1160,192 1142,192 1125,191 1107,191 1107,205 1108,218 1108,232 1109,246 1102,246 1096,247 1089,247 1083,247 1076,248 1069,248 1063,249 1056,249 1056,235 1055,220 1055,205 1054,190 1037,191 1020,191 1003,192 986,192 969,193 952,193 935,194 918,194 912,204 905,215 897,225 890,236 888,237 886,239 885,240 883,241"/>
<polygon class="pen1 brush7" points="887,244 879,244 871,244 864,244 856,244 849,244 841,244 834,244 826,244 810,271 793,298 777,325 761,352 744,380 728,407 712,434 696,461 678,461 660,462 642,462 623,462 605,463 587,463 569,463 551,463 533,464 515,464 497,464 479,465 460,465 442,465 424,466 406,466 400,462 395,459 389,455 383,451 377,448 371,444 365,441 359,437 349,437 339,437 328,437 318,436 308,436 297,436 287,436 277,436 266,436 256,436 245,436 235,436 224,436 213,436 203,436 192,436 212,583 231,731 251,878 271,1025 290,1172 310,1319 329,1467 349,1614 356,1609 363,1604 370,1599 378,1594 385,1589 392,1584 399,1579 406,1574 412,1566 417,1559 423,1551 429,1544 434,1536 440,1529 445,1521 450,1514 454,1505 459,1497 463,1488 467,1480 472,1472 476,1463 480,1455 484,1446 491,1446 498,1446 505,1446 513,1445 520,1445 527,1445 534,1444 541,1444 547,1444 552,1445 558,1445 564,1445 569,1446 575,1446 581,1446 587,1446 593,1459 599,1473 605,1486 611,1499 617,1513 623,1526 630,1540 636,1553 643,1564 650,1574 656,1585 663,1596 670,1606 677,1617 683,1628 690,1639 698,1647 706,1655 714,1663 723,1671 731,1679 739,1688 747,1696 755,1704 771,1712 787,1720 803,1728 820,1736 836,1745 852,1753 869,1761 885,1769 901,1773 918,1778 934,1782 951,1786 968,1791 985,1795 1002,1800 1019,1804 1034,1804 1050,1804 1065,1804 1081,1804 1096,1804 1111,1804 1126,1804 1141,1804 1159,1798 1177,1793 1195,1787 1213,1782 1231,1777 1249,1771 1266,1766 1284,1760 1298,1751 1312,1741 1327,1732 1341,1722 1355,1713 1369,1704 1383,1694 1397,1685 1404,1676 1412,1667 1419,1658 1426,1648 1434,1639 1441,1630 1448,1621 1455,1612 1461,1602 1468,1592 1474,1582 1481,1572 1488,1562 1494,1552 1501,1542 1507,1532 1511,1517 1515,1502 1520,1487 1524,1471 1528,1456 1533,1441 1537,1425 1541,1410 1550,1410 1559,1409 1568,1409 1578,1408 1587,1408 1596,1407 1605,1407 1614,1406 1626,1405 1637,1404 1649,1404 1661,1403 1672,1402 1684,1401 1695,1401 1707,1400 1720,1400 1733,1400 1746,1400 1759,1400 1771,1400 1784,1400 1797,1400 1810,1400 1820,1283 1829,1165 1839,1048 1849,930 1858,812 1868,695 1877,577 1887,460 1878,459 1869,458 1860,458 1851,457 1842,456 1833,455 1824,454 1815,453 1797,454 1780,455 1762,456 1745,457 1727,458 1709,458 1692,459 1674,460 1658,460 1643,459 1627,459 1612,458 1596,458 1581,458 1565,457 1550,457 1535,457 1519,456 1504,456 1488,455 1473,455 1457,455 1442,454 1426,454 1417,435 1407,416 1398,396 1389,377 1380,358 1371,339 1361,320 1352,301 1345,291 1339,281 1332,271 1325,261 1320,260 1315,258 1310,257 1305,255 1300,254 1295,253 1290,251 1285,250 1280,243 1275,236 1270,230 1266,223 1261,216 1256,209 1252,203 1247,196 1229,196 1212,195 1195,195 1178,195 1161,195 1144,195 1127,195 1110,195 1111,208 1111,222 1111,235 1112,249 1105,249 1097,250 1090,250 1083,250 1075,251 1068,251 1061,252 1054,252 1053,238 1053,223 1053,208 1052,193 1035,194 1019,194 1002,195 986,195 969,196 953,196 936,197 919,197 913,208 906,219 899,229 892,241 891,242 889,242 888,243 887,244"/>
<polygon class="pen1 brush8" points="891,246 883,246 875,246 868,246 860,246 853,246 845,246 838,246 830,246 814,273 797,300 781,328 765,355 748,382 732,409 716,436 700,464 682,464 663,465 645,465 626,465 608,466 589,466 571,466 552,466 534,467 515,467 497,467 478,468 460,468 441,468 423,469 404,469 398,466 393,462 387,459 381,455 375,451 369,448 363,444 357,441 347,441 338,440 328,440 318,440 308,440 297,440 287,439 277,439 266,439 256,439 245,439 235,439 224,439 213,439 203,439 192,439 212,585 231,731 251,877 270,1023 290,1169 309,1316 329,1462 348,1608 355,1603 362,1598 369,1593 377,1588 384,1583 391,1578 398,1573 405,1568 411,1560 416,1553 422,1545 427,1538 432,1530 437,1523 443,1515 448,1508 452,1499 456,1491 461,1482 465,1473 469,1464 474,1455 478,1447 482,1438 490,1438 497,1437 505,1437 512,1437 520,1437 527,1437 535,1436 542,1436 548,1436 554,1437 560,1437 566,1437 572,1437 578,1437 584,1438 590,1438 596,1451 602,1465 608,1478 614,1492 620,1505 626,1519 632,1532 638,1546 645,1557 652,1568 658,1579 665,1590 672,1601 679,1612 685,1623 692,1634 700,1642 708,1650 716,1659 725,1667 733,1675 741,1683 749,1691 757,1699 773,1707 789,1715 806,1724 822,1732 838,1740 855,1748 871,1757 887,1765 903,1769 919,1773 936,1778 952,1782 969,1786 985,1791 1002,1795 1019,1799 1034,1799 1050,1799 1065,1799 1081,1799 1096,1799 1111,1799 1126,1799 1141,1799 1159,1794 1177,1788 1195,1783 1213,1777 1231,1772 1249,1767 1266,1761 1284,1756 1298,1746 1312,1737 1326,1727 1340,1718 1353,1708 1367,1699 1381,1689 1395,1680 1402,1671 1409,1662 1417,1653 1424,1643 1431,1634 1439,1625 1446,1616 1453,1607 1459,1597 1466,1587 1472,1577 1479,1567 1486,1557 1492,1547 1499,1537 1505,1527 1509,1512 1513,1497 1517,1482 1522,1467 1526,1452 1530,1437 1534,1421 1538,1406 1548,1406 1557,1405 1567,1405 1577,1404 1586,1403 1596,1403 1605,1402 1615,1402 1627,1401 1638,1400 1650,1400 1661,1399 1673,1398 1684,1397 1696,1397 1707,1396 1720,1396 1733,1396 1746,1396 1759,1396 1772,1396 1785,1396 1798,1396 1811,1396 1820,1279 1830,1163 1839,1046 1849,929 1858,813 1868,696 1877,580 1887,463 1878,462 1869,461 1860,460 1851,459 1842,459 1833,458 1824,457 1815,456 1797,457 1780,458 1762,459 1745,459 1727,460 1709,461 1692,462 1674,463 1658,463 1643,462 1627,462 1612,462 1596,461 1580,461 1565,461 1549,460 1533,460 1518,460 1502,460 1486,459 1471,459 1455,459 1440,458 1424,458 1414,438 1405,419 1395,399 1385,380 1375,360 1366,341 1356,321 1346,302 1340,292 1334,282 1328,273 1321,263 1316,262 1311,260 1306,259 1302,257 1297,256 1292,255 1287,253 1282,252 1277,245 1272,239 1268,232 1263,225 1258,218 1254,212 1249,205 1244,199 1228,199 1212,199 1195,199 1179,199 1162,199 1146,199 1129,199 1113,199 1114,212 1114,225 1114,239 1115,252 1107,252 1099,253 1091,253 1084,253 1076,254 1068,254 1060,255 1052,255 1051,241 1051,226 1051,211 1050,197 1034,197 1018,198 1002,198 985,198 969,199 953,199 936,200 920,200 914,211 908,222 900,234 893,245 892,246 892,246 892,246 891,246"/>
<polygon class="pen1 brush9" points="895,249 887,249 879,249 872,249 864,249 857,249 849,249 842,249 834,249 818,276 802,303 786,331 769,358 753,385 736,412 720,439 703,467 684,467 665,468 647,468 628,468 609,469 590,469 572,470 553,470 534,470 515,471 496,471 478,471 459,472 440,472 421,473 402,473 396,469 391,466 385,462 379,458 373,455 367,451 361,448 355,444 345,444 336,443 326,443 316,443 306,443 297,443 287,442 277,442 266,442 256,442 245,442 235,442 224,442 213,442 203,442 192,442 211,587 231,732 250,877 270,1021 289,1166 308,1311 328,1456 347,1601 354,1596 361,1591 368,1586 376,1581 383,1577 390,1572 397,1567 404,1562 409,1555 415,1547 420,1540 425,1532 430,1525 436,1518 441,1510 446,1503 450,1494 454,1484 459,1475 463,1466 467,1457 472,1448 476,1438 480,1429 488,1429 496,1428 504,1428 512,1428 520,1428 528,1428 536,1428 544,1428 551,1428 557,1428 563,1428 569,1428 575,1428 582,1428 588,1429 594,1429 600,1443 606,1456 612,1470 618,1483 624,1497 630,1511 635,1524 641,1538 648,1550 654,1561 661,1573 668,1584 675,1595 681,1607 688,1618 694,1630 702,1638 710,1646 719,1654 727,1662 735,1670 743,1679 751,1687 759,1695 775,1703 792,1711 808,1719 824,1727 841,1736 857,1744 873,1752 889,1760 905,1764 921,1769 937,1773 954,1777 970,1782 986,1786 1003,1791 1019,1795 1034,1795 1050,1795 1065,1795 1081,1795 1096,1795 1111,1795 1126,1795 1141,1795 1159,1790 1177,1784 1195,1779 1213,1773 1231,1768 1249,1763 1266,1757 1284,1752 1298,1742 1311,1733 1325,1723 1339,1713 1352,1703 1366,1694 1379,1684 1393,1675 1400,1666 1408,1657 1415,1648 1422,1638 1430,1629 1437,1620 1444,1611 1451,1602 1457,1592 1464,1582 1470,1572 1477,1562 1484,1552 1490,1542 1497,1532 1503,1522 1507,1507 1511,1492 1515,1477 1519,1462 1523,1447 1527,1432 1531,1417 1535,1402 1545,1402 1555,1401 1565,1401 1575,1400 1585,1399 1595,1398 1605,1398 1615,1397 1627,1396 1638,1395 1650,1394 1662,1393 1673,1393 1685,1392 1696,1391 1708,1390 1721,1390 1734,1390 1747,1390 1760,1390 1773,1390 1786,1390 1799,1390 1812,1390 1821,1275 1831,1159 1840,1044 1850,928 1859,813 1868,697 1878,582 1887,466 1878,465 1869,464 1860,463 1851,462 1842,461 1833,461 1824,460 1815,459 1797,460 1780,461 1762,461 1745,462 1727,463 1709,464 1692,465 1674,466 1658,466 1642,465 1627,465 1611,465 1595,464 1579,464 1564,464 1548,464 1532,463 1516,463 1500,463 1485,463 1469,463 1453,462 1437,462 1421,462 1411,442 1401,422 1391,402 1381,382 1371,363 1361,343 1351,323 1341,303 1335,294 1329,284 1323,275 1318,265 1313,264 1308,263 1303,261 1299,260 1294,258 1289,257 1284,255 1279,254 1275,248 1270,241 1266,235 1261,228 1257,221 1252,214 1248,208 1243,201 1227,201 1211,202 1196,202 1180,202 1164,202 1148,202 1132,202 1116,202 1117,215 1117,228 1117,241 1118,254 1109,254 1101,255 1092,255 1084,256 1075,257 1066,257 1058,258 1049,258 1049,244 1049,229 1048,214 1048,200 1032,200 1016,201 1000,201 985,201 969,201 953,201 937,202 921,202 915,214 908,226 902,238 895,250 895,249 895,249 895,249 895,249"/>
<polygon class="pen1 brush10" points="899,252 891,252 883,252 876,252 868,252 861,252 853,252 846,252 838,252 822,279 805,306 789,333 773,360 756,388 740,415 723,442 707,469 688,469 669,470 650,470 630,470 611,471 592,471 573,472 554,472 535,472 516,473 496,473 477,473 458,474 439,474 419,475 400,475 394,472 389,469 383,465 377,462 371,458 365,455 359,451 353,448 344,448 334,447 325,447 315,446 305,446 296,446 286,445 277,445 266,445 256,445 245,445 235,445 224,445 213,445 203,445 192,445 211,589 230,732 250,876 269,1020 288,1163 308,1307 327,1451 346,1595 353,1590 360,1585 367,1580 375,1575 382,1571 389,1566 396,1561 403,1556 408,1549 413,1542 418,1534 423,1527 428,1519 433,1512 438,1504 443,1497 448,1488 452,1478 457,1469 461,1459 466,1449 470,1439 475,1430 479,1420 487,1420 496,1420 504,1420 513,1419 521,1419 529,1419 538,1419 546,1419 552,1419 559,1419 565,1419 572,1419 578,1420 585,1420 591,1420 598,1420 604,1434 609,1448 615,1462 621,1475 627,1489 633,1503 638,1517 644,1531 651,1543 657,1554 664,1566 671,1578 677,1590 684,1602 690,1613 697,1625 705,1633 713,1641 721,1650 729,1658 737,1666 746,1674 754,1682 762,1690 778,1698 794,1706 810,1715 827,1723 843,1731 859,1739 875,1748 891,1756 907,1760 923,1764 939,1769 955,1773 971,1778 987,1782 1003,1787 1019,1791 1034,1791 1050,1791 1065,1791 1081,1791 1096,1791 1111,1791 1126,1791 1141,1791 1159,1785 1177,1780 1195,1774 1213,1769 1231,1764 1249,1758 1266,1753 1284,1747 1297,1737 1311,1728 1324,1718 1338,1708 1351,1699 1364,1689 1378,1680 1391,1670 1398,1661 1405,1652 1413,1643 1420,1633 1427,1624 1435,1615 1442,1606 1449,1597 1455,1587 1462,1577 1468,1567 1475,1557 1482,1547 1488,1537 1495,1527 1501,1517 1505,1502 1509,1488 1513,1473 1517,1458 1520,1443 1524,1428 1528,1413 1532,1398 1543,1397 1553,1397 1564,1396 1574,1395 1585,1394 1595,1394 1606,1393 1616,1393 1628,1392 1639,1391 1651,1390 1662,1389 1674,1389 1685,1388 1697,1387 1708,1387 1721,1387 1734,1387 1747,1387 1760,1387 1773,1387 1786,1387 1799,1387 1812,1387 1821,1272 1831,1157 1840,1043 1850,928 1859,813 1868,698 1878,583 1887,468 1878,467 1869,466 1860,466 1851,465 1842,464 1833,463 1824,463 1815,462 1797,463 1780,463 1762,464 1745,465 1727,466 1709,466 1692,467 1674,468 1658,468 1642,468 1626,468 1610,467 1594,467 1578,467 1562,467 1547,467 1531,467 1515,467 1499,467 1483,467 1467,466 1451,466 1435,466 1419,466 1409,446 1398,425 1388,405 1377,385 1367,365 1356,344 1346,324 1335,304 1330,295 1325,286 1319,277 1314,268 1309,266 1304,265 1299,263 1295,262 1290,260 1285,259 1280,257 1275,256 1271,250 1267,243 1263,237 1258,230 1254,224 1250,217 1245,211 1241,204 1226,204 1211,205 1196,205 1181,205 1165,206 1150,206 1135,206 1120,206 1120,219 1120,231 1120,244 1120,257 1111,257 1102,258 1093,258 1084,259 1074,259 1065,260 1056,260 1047,261 1047,247 1047,232 1046,217 1046,203 1031,203 1015,204 1000,204 984,204 968,204 953,204 937,205 922,205 916,217 910,229 903,242 897,254 897,253 898,253 898,252 899,252"/>
<polygon class="pen1 brush11" points="903,254 895,254 888,254 880,254 873,254 865,254 857,254 850,254 842,254 826,281 809,309 793,336 777,363 760,390 744,417 727,445 711,472 691,472 672,472 652,473 633,473 613,473 594,474 574,474 555,475 535,475 516,476 496,476 477,477 457,477 437,478 418,478 398,479 392,476 387,472 381,469 375,465 369,462 363,458 358,455 352,451 343,451 333,450 324,450 315,449 305,449 296,449 286,448 277,448 266,448 256,448 245,448 235,448 224,448 213,448 203,448 192,448 211,590 230,733 249,875 269,1018 288,1160 307,1303 326,1445 345,1588 352,1583 359,1579 366,1574 374,1569 381,1565 388,1560 396,1556 403,1551 408,1544 413,1536 417,1529 422,1521 427,1514 431,1506 436,1499 441,1492 446,1482 450,1472 455,1462 459,1451 464,1441 468,1431 473,1421 478,1411 486,1411 495,1411 503,1411 512,1411 521,1411 530,1411 539,1411 548,1411 555,1411 561,1411 568,1411 575,1411 581,1411 588,1411 595,1411 602,1411 607,1425 613,1439 618,1453 624,1467 630,1482 636,1496 641,1510 647,1524 653,1536 660,1548 666,1560 673,1572 680,1584 686,1596 693,1608 699,1620 707,1628 715,1636 723,1645 732,1653 740,1661 748,1669 756,1678 764,1686 780,1694 796,1702 812,1710 829,1718 845,1726 861,1735 878,1743 894,1751 909,1755 925,1760 940,1764 956,1769 972,1773 988,1778 1003,1782 1019,1787 1034,1787 1050,1787 1065,1787 1081,1787 1096,1787 1111,1787 1126,1787 1141,1787 1159,1781 1177,1776 1195,1770 1213,1765 1231,1760 1249,1754 1266,1749 1284,1743 1297,1733 1310,1723 1323,1714 1337,1704 1350,1694 1363,1684 1376,1675 1389,1665 1396,1656 1403,1647 1411,1638 1418,1628 1425,1619 1433,1610 1440,1601 1447,1592 1453,1582 1460,1572 1466,1562 1473,1552 1480,1542 1486,1532 1493,1522 1499,1512 1503,1497 1507,1483 1510,1468 1514,1453 1518,1438 1522,1423 1525,1408 1529,1393 1540,1392 1551,1392 1562,1391 1573,1390 1583,1390 1594,1389 1605,1389 1616,1388 1628,1387 1639,1386 1651,1386 1663,1385 1674,1384 1686,1383 1697,1383 1709,1382 1722,1382 1735,1382 1748,1382 1761,1382 1774,1382 1787,1382 1800,1382 1813,1382 1822,1268 1831,1155 1840,1041 1850,927 1859,813 1868,699 1878,585 1887,471 1878,470 1869,469 1860,469 1851,468 1842,467 1833,466 1824,466 1815,465 1797,466 1780,466 1762,467 1745,468 1727,469 1709,469 1692,470 1674,471 1658,471 1642,471 1626,471 1610,471 1594,471 1578,471 1562,471 1546,470 1529,470 1513,470 1497,470 1481,470 1465,470 1449,469 1433,469 1417,469 1406,449 1395,428 1384,408 1373,387 1362,367 1351,347 1340,326 1329,306 1325,297 1320,288 1316,279 1311,269 1306,268 1301,266 1296,265 1292,263 1287,262 1282,261 1277,259 1272,258 1268,252 1264,245 1260,239 1256,232 1252,226 1248,220 1244,213 1240,207 1225,207 1211,208 1196,208 1182,208 1167,209 1153,209 1138,210 1123,210 1123,222 1123,234 1123,247 1123,259 1113,260 1104,260 1094,261 1084,261 1074,262 1065,263 1055,263 1045,264 1044,250 1044,235 1044,220 1044,206 1029,206 1014,207 999,207 984,207 968,207 953,207 938,207 923,207 917,220 911,232 904,245 898,258 899,257 901,256 902,255 903,254"/>
<polygon class="pen1 brush12" points="907,257 899,257 892,257 884,257 877,257 869,257 861,257 854,257 846,257 830,284 813,311 797,338 780,365 764,392 747,419 731,446 715,473 695,474 675,474 655,475 635,475 615,476 595,477 575,477 556,478 536,479 516,479 496,480 476,481 456,481 436,482 416,482 396,483 390,479 385,476 379,472 373,469 367,465 361,462 355,458 349,455 340,454 331,454 322,453 313,452 304,452 295,451 286,451 277,450 266,450 256,450 245,450 235,450 224,450 213,450 203,450 192,450 211,591 230,733 249,874 268,1016 287,1158 306,1299 325,1441 344,1582 351,1577 358,1572 365,1568 373,1563 380,1559 387,1554 395,1550 402,1545 407,1538 411,1530 416,1523 420,1515 425,1508 429,1501 434,1493 439,1486 444,1475 448,1465 453,1454 457,1444 462,1433 466,1423 471,1412 475,1402 484,1402 494,1402 503,1402 513,1402 522,1402 531,1402 541,1402 550,1402 557,1402 564,1402 570,1402 577,1402 584,1402 591,1402 598,1402 605,1402 611,1417 616,1431 622,1446 628,1460 633,1474 639,1488 644,1503 650,1517 656,1529 663,1542 669,1554 676,1566 682,1579 688,1591 695,1604 701,1616 709,1624 717,1632 725,1640 734,1648 742,1657 750,1665 758,1673 766,1681 782,1689 798,1697 815,1706 831,1714 847,1722 864,1730 880,1738 896,1746 911,1750 926,1755 941,1759 957,1764 972,1768 988,1773 1003,1777 1019,1782 1034,1782 1050,1782 1065,1782 1081,1782 1096,1782 1111,1782 1126,1782 1141,1782 1159,1777 1177,1771 1195,1766 1213,1760 1231,1755 1249,1750 1266,1744 1284,1739 1297,1729 1310,1719 1323,1709 1336,1699 1348,1690 1361,1680 1374,1670 1387,1660 1394,1651 1401,1642 1409,1633 1416,1623 1423,1614 1431,1605 1438,1596 1445,1587 1451,1577 1458,1567 1464,1557 1471,1547 1477,1537 1484,1527 1490,1517 1497,1507 1501,1492 1505,1478 1508,1463 1512,1448 1516,1434 1520,1419 1523,1405 1527,1390 1538,1389 1550,1388 1561,1388 1572,1387 1583,1386 1595,1385 1606,1385 1617,1384 1629,1383 1640,1382 1652,1382 1663,1381 1675,1380 1686,1379 1698,1379 1709,1378 1722,1378 1735,1378 1748,1378 1761,1378 1774,1378 1787,1378 1800,1378 1813,1378 1822,1265 1832,1152 1841,1039 1850,926 1859,813 1868,699 1878,586 1887,473 1878,473 1869,472 1860,472 1851,471 1842,470 1833,469 1824,469 1815,468 1797,469 1780,469 1762,470 1745,471 1727,472 1709,472 1692,473 1674,473 1658,473 1641,473 1625,473 1609,473 1593,473 1576,473 1560,473 1544,473 1528,473 1512,473 1496,473 1480,473 1463,473 1447,473 1431,473 1415,473 1403,452 1392,432 1380,411 1369,390 1358,369 1346,348 1335,328 1323,307 1319,298 1315,289 1311,281 1307,272 1302,270 1298,269 1293,267 1288,266 1284,264 1279,263 1274,261 1269,260 1265,254 1261,248 1258,241 1254,235 1250,229 1246,222 1242,216 1238,210 1224,210 1210,211 1196,211 1182,212 1168,213 1154,213 1140,214 1126,214 1126,226 1126,238 1126,250 1126,262 1116,263 1105,263 1095,264 1084,264 1074,265 1063,265 1053,266 1042,266 1042,252 1042,238 1042,224 1042,209 1027,209 1013,210 998,210 983,210 968,210 953,210 939,210 924,210 918,223 912,236 906,250 900,263 902,261 904,260 905,258 907,257"/>
<polygon class="pen1 brush0" points="911,260 850,260 718,476 394,486 347,458 277,453 192,453 343,1575 401,1539 437,1481 473,1393 552,1393 608,1393 653,1510 703,1611 768,1677 898,1742 1019,1778 1141,1778 1284,1735 1385,1655 1443,1582 1495,1503 1524,1386 1617,1379 1710,1373 1814,1373 1887,476 1815,470 1674,476 1413,476 1317,308 1304,275 1266,262 1237,213 1129,218 1129,265 1040,269 1040,213 925,213 902,266 911,260"/>
<polygon class="pen1 brush13" points="864,283 735,505 421,514 280,519 137,522 101,538 75,568 56,609 43,655 34,703 29,748 26,785 24,810 19,898 15,979 13,1057 14,1133 19,1208 28,1284 42,1364 62,1448 81,1493 141,1532 159,1536 177,1540 195,1542 214,1543 232,1543 250,1542 268,1541 285,1538 301,1535 316,1532 331,1528 344,1524 355,1519 365,1514 373,1509 379,1504 414,1468 421,1422 459,1371 530,1351 639,1351 664,1487 687,1525 711,1559 737,1591 764,1619 791,1644 820,1667 849,1686 879,1703 910,1717 940,1728 972,1737 1003,1743 1034,1746 1066,1748 1097,1746 1128,1743 1152,1739 1175,1733 1199,1726 1221,1718 1244,1709 1265,1699 1287,1687 1307,1674 1327,1661 1346,1646 1364,1630 1381,1613 1398,1595 1413,1576 1428,1557 1441,1536 1467,1468 1495,1358 1604,1358 1649,1345 1732,1345 1822,1345 1892,1326 1905,1303 1916,1284 1924,1266 1931,1249 1936,1232 1939,1213 1940,1190 1941,1164 1945,991 1944,836 1936,690 1920,545 1886,527 1822,508 1719,508 1393,510 1291,303 1271,295 1266,295 1253,295 1233,295 1206,295 1175,295 1140,295 1103,294 1065,294 1027,293 990,293 955,292 925,290 899,289 879,287 867,285 864,283"/>
<polygon class="pen1 brush14" points="723,510 282,510 141,510 105,529 80,552 64,578 56,605 56,635 63,666 75,698 91,730 155,740 321,740 363,712 423,640 490,620 702,625 723,510"/>
<polygon class="pen1 brush15" points="374,701 367,780 356,786 343,792 328,799 312,804 294,809 275,814 256,817 235,820 214,821 193,821 172,819 151,815 131,809 111,802 92,792 74,779 73,691 91,702 109,711 127,720 146,727 164,733 183,737 202,741 221,742 239,743 259,742 278,739 297,735 316,729 335,721 355,712 374,701"/>
<polygon class="pen1 brush16" points="130,721 130,810 143,813 160,816 179,818 199,818 221,818 242,818 263,816 282,814 314,803 314,729 303,732 290,734 276,736 261,737 245,737 229,737 213,737 198,736 183,735 169,734 157,732 147,730 138,728 133,726 130,723 130,721"/>
<polygon class="pen1 brush17" points="186,744 187,822 243,819 243,737 186,744"/>
<polygon class="pen1 brush15" points="458,627 494,616 699,613 695,694 494,697 457,717 458,627"/>
<polygon class="pen1 brush13" points="55,810 80,819 105,826 129,832 152,837 175,840 197,842 218,842 238,842 258,841 276,838 293,835 309,832 324,828 338,823 350,818 361,813 369,1290 364,1393 349,1409 334,1422 319,1432 304,1440 288,1446 273,1450 257,1452 241,1453 224,1451 208,1449 191,1445 173,1440 155,1435 137,1428 118,1421 99,1414 78,1338 62,1260 51,1181 45,1103 42,1026 43,951 48,879 55,810"/>
<polygon class="pen1 brush18" points="66,813 89,821 112,828 134,834 155,838 176,840 197,842 216,843 235,842 253,841 270,839 287,836 302,833 316,829 329,825 341,821 352,816 354,935 356,1054 358,1174 360,1293 359,1319 358,1345 356,1371 355,1397 341,1411 327,1423 313,1432 299,1440 285,1445 270,1449 256,1450 241,1451 225,1450 210,1448 194,1444 177,1440 161,1435 143,1430 126,1423 108,1417 88,1339 74,1261 64,1183 57,1106 55,1029 56,955 60,882 66,813"/>
<polygon class="pen1 brush19" points="77,815 98,823 119,829 139,834 159,838 178,841 196,842 215,843 232,843 249,842 264,840 279,837 294,834 307,831 319,827 331,822 341,818 344,938 347,1058 349,1178 352,1297 350,1323 349,1349 347,1375 346,1401 334,1414 321,1424 308,1433 295,1439 282,1444 268,1447 254,1449 240,1449 226,1449 211,1447 196,1444 181,1440 166,1435 150,1430 134,1425 117,1419 99,1341 85,1263 76,1185 70,1108 68,1033 68,958 72,886 77,815"/>
<polygon class="pen1 brush20" points="88,818 107,825 126,831 144,835 162,839 179,841 196,843 213,843 229,843 244,842 259,841 273,838 286,836 299,832 311,829 322,825 332,821 334,941 337,1061 339,1181 342,1301 341,1327 340,1353 339,1379 338,1405 326,1416 315,1425 303,1433 291,1438 278,1443 266,1446 253,1447 240,1448 227,1447 213,1445 199,1443 185,1440 171,1436 156,1432 141,1427 126,1422 109,1343 97,1264 88,1187 83,1111 80,1036 81,962 84,889 88,818"/>
<polygon class="pen1 brush21" points="99,820 116,827 132,832 149,836 165,839 180,842 196,843 211,844 225,843 239,843 253,841 266,839 278,837 290,834 301,831 312,828 322,824 325,944 327,1064 330,1184 332,1305 332,1331 331,1356 330,1382 329,1408 319,1418 308,1426 297,1432 286,1437 275,1441 264,1444 252,1445 240,1446 228,1445 215,1444 202,1442 189,1439 176,1436 163,1432 149,1428 135,1424 120,1344 108,1266 100,1189 95,1113 93,1039 93,965 95,893 99,820"/>
<polygon class="pen1 brush22" points="110,823 125,829 139,834 154,837 168,840 182,842 196,844 209,844 222,844 235,843 247,842 259,840 271,838 282,836 293,833 303,830 313,827 315,947 318,1067 321,1188 323,1308 322,1334 322,1360 321,1386 320,1412 311,1420 301,1427 292,1432 282,1437 271,1440 261,1442 250,1443 239,1444 228,1444 216,1443 205,1441 193,1439 181,1436 169,1433 156,1430 144,1427 130,1346 119,1267 112,1190 108,1116 106,1042 106,969 107,896 110,823"/>
<polygon class="pen1 brush23" points="121,825 134,830 146,835 159,838 171,841 183,843 195,844 207,845 219,845 230,844 241,843 252,841 263,839 273,837 284,835 293,832 303,829 306,950 309,1070 312,1191 314,1312 313,1338 313,1364 312,1390 312,1416 296,1428 278,1436 259,1441 240,1442 219,1441 197,1438 175,1434 153,1429 140,1347 130,1268 124,1192 120,1118 118,1045 118,973 119,899 121,825"/>
<polygon class="pen1 brush24" points="132,828 143,832 153,836 164,839 174,841 185,843 195,844 205,845 216,845 226,844 236,843 245,842 255,841 265,839 274,837 284,834 293,832 296,953 299,1074 302,1195 305,1316 304,1342 304,1368 303,1394 303,1420 289,1429 273,1435 256,1439 239,1440 220,1440 201,1438 182,1435 163,1432 151,1349 142,1270 136,1194 133,1121 131,1049 131,976 131,903 132,828"/>
<polygon class="pen1 brush25" points="143,830 160,837 178,842 195,845 212,845 230,844 248,842 266,839 284,835 287,956 290,1077 293,1199 295,1320 295,1346 295,1371 294,1397 294,1423 282,1430 269,1434 254,1437 239,1438 222,1438 206,1437 189,1436 172,1434 161,1350 154,1271 149,1196 146,1123 144,1052 143,980 143,906 143,830"/>
<polygon class="pen1 brush26" points="154,833 167,839 181,843 195,845 210,845 225,845 241,843 257,840 274,837 277,959 280,1080 283,1202 286,1324 286,1350 286,1375 285,1401 285,1427 275,1431 264,1434 252,1435 238,1436 224,1437 210,1437 195,1437 181,1437 165,1273 158,1126 156,984 154,833"/>
<polygon class="pen1 brush27" points="165,835 174,840 184,843 194,845 206,846 219,845 232,844 247,842 264,840 268,962 271,1083 274,1205 277,1327 277,1353 277,1379 277,1405 276,1431 269,1432 260,1433 249,1434 238,1435 226,1436 213,1437 201,1438 190,1439 177,1274 171,1128 169,987 165,835"/>
<polygon class="pen1 brush15" points="176,838 181,841 187,844 194,845 203,846 213,846 225,846 239,845 255,843 268,1331 268,1435 263,1433 256,1432 247,1432 238,1433 228,1435 218,1437 208,1439 199,1442 188,1276 184,1131 181,991 176,838"/>
<polygon class="pen1 brush14" points="684,719 575,716 499,723 452,742 443,776 441,1305 511,1288 630,1284 630,1171 550,1173 503,1134 506,1011 537,993 588,989 595,950 602,913 610,879 619,847 630,816 644,785 662,753 684,719"/>
<polygon class="pen1 brush2" points="898,439 1284,433 1380,625 1378,651 789,652 794,616 898,439"/>
<polygon class="pen1 brush28" points="898,439 922,439 946,438 970,438 994,437 1018,437 1042,437 1066,436 1090,436 1114,436 1139,435 1163,435 1187,434 1211,434 1236,434 1260,433 1284,433 1295,456 1307,479 1318,501 1330,524 1341,546 1352,569 1364,591 1375,614 1374,621 1374,627 1374,634 1373,640 1337,640 1301,640 1264,640 1228,640 1192,640 1156,640 1119,640 1083,640 1047,640 1011,640 975,640 939,640 903,641 867,641 831,641 795,641 796,633 798,624 799,615 800,605 812,584 825,564 837,543 849,522 861,501 873,480 886,460 898,439"/>
<polygon class="pen1 brush29" points="898,439 922,439 946,438 970,438 994,437 1018,437 1042,437 1066,436 1090,436 1114,436 1139,435 1163,435 1187,434 1211,434 1236,434 1260,433 1284,433 1295,454 1306,476 1316,497 1327,518 1337,540 1348,561 1358,583 1369,604 1369,611 1369,617 1368,623 1368,630 1332,630 1297,630 1261,630 1226,631 1190,631 1154,631 1119,631 1083,631 1048,631 1012,631 977,631 942,631 906,631 871,631 836,631 801,631 802,622 803,613 805,604 806,595 817,575 829,556 840,536 852,517 863,497 875,478 886,458 898,439"/>
<polygon class="pen1 brush30" points="898,439 922,439 946,438 970,438 994,437 1018,437 1042,437 1066,436 1090,436 1114,436 1139,435 1163,435 1187,434 1211,434 1236,434 1260,433 1284,433 1294,453 1304,473 1314,493 1324,513 1334,534 1344,554 1354,574 1364,594 1364,600 1363,606 1363,613 1362,620 1327,620 1292,620 1257,620 1223,620 1188,620 1153,620 1118,620 1084,620 1049,621 1014,621 980,621 945,621 911,621 876,621 842,621 807,621 808,612 810,603 811,594 812,585 823,567 833,548 844,530 855,512 865,493 876,475 887,457 898,439"/>
<polygon class="pen1 brush31" points="898,439 922,439 946,438 970,438 994,437 1018,437 1042,437 1066,436 1090,436 1114,436 1139,435 1163,435 1187,434 1211,434 1236,434 1260,433 1284,433 1293,452 1303,470 1312,489 1322,508 1331,527 1340,545 1350,564 1359,583 1358,590 1358,596 1358,602 1357,609 1323,609 1289,609 1255,609 1221,610 1186,610 1152,610 1118,610 1084,610 1050,610 1016,610 982,610 948,610 914,611 881,611 847,611 813,611 814,601 815,592 817,583 818,574 828,557 838,540 848,523 858,506 868,490 878,473 888,456 898,439"/>
<polygon class="pen1 brush32" points="898,439 922,439 946,438 970,438 994,437 1018,437 1042,437 1066,436 1090,436 1114,436 1139,435 1163,435 1187,434 1211,434 1236,434 1260,433 1284,433 1293,451 1301,468 1310,486 1319,503 1327,520 1336,538 1344,555 1353,573 1353,579 1353,585 1352,592 1352,598 1318,598 1285,598 1251,598 1218,598 1185,598 1151,599 1118,599 1084,599 1051,599 1018,599 985,600 951,600 918,600 885,600 852,600 819,600 820,591 821,582 823,573 824,564 833,548 842,533 851,517 861,501 870,485 879,470 889,454 898,439"/>
<polygon class="pen1 brush33" points="898,439 922,439 946,438 970,438 994,437 1018,437 1042,437 1066,436 1090,436 1114,436 1139,435 1163,435 1187,434 1211,434 1236,434 1260,433 1284,433 1292,449 1300,465 1308,481 1316,497 1324,513 1332,529 1340,546 1348,562 1348,569 1347,575 1347,582 1346,588 1313,588 1281,588 1248,588 1215,589 1183,589 1150,589 1117,589 1085,589 1052,589 1019,589 987,589 954,589 922,590 889,590 856,590 824,590 826,581 827,571 829,562 830,553 839,539 847,524 856,510 864,496 872,481 881,467 889,453 898,439"/>
<polygon class="pen1 brush34" points="898,439 922,439 946,438 970,438 994,437 1018,437 1042,437 1066,436 1090,436 1114,436 1139,435 1163,435 1187,434 1211,434 1236,434 1260,433 1284,433 1291,448 1299,463 1306,478 1314,492 1321,507 1328,522 1336,537 1343,552 1342,559 1342,565 1342,571 1341,578 1309,578 1277,578 1245,578 1213,578 1181,578 1149,578 1117,578 1085,578 1053,579 1021,579 989,579 957,579 925,579 893,579 862,579 830,579 832,570 833,561 835,552 836,543 844,530 851,517 859,504 867,491 874,478 882,465 890,452 898,439"/>
<polygon class="pen1 brush35" points="898,439 922,439 946,438 970,438 994,437 1018,437 1042,437 1066,436 1090,436 1114,436 1139,435 1163,435 1187,434 1211,434 1236,434 1260,433 1284,433 1291,446 1297,460 1304,473 1311,487 1318,500 1324,514 1331,527 1337,541 1337,548 1337,554 1336,560 1336,567 1305,567 1273,567 1242,567 1211,568 1179,568 1148,568 1117,568 1085,568 1054,568 1023,568 991,568 960,568 929,569 898,569 867,569 836,569 838,560 839,550 841,541 842,532 849,520 856,509 863,497 870,485 877,474 884,462 891,451 898,439"/>
<polygon class="pen1 brush36" points="898,439 922,439 946,438 970,438 994,437 1018,437 1042,437 1066,436 1090,436 1114,436 1139,435 1163,435 1187,434 1211,434 1236,434 1260,433 1284,433 1290,445 1296,458 1302,470 1308,482 1314,494 1320,506 1326,519 1332,531 1331,538 1331,544 1331,550 1330,557 1299,557 1269,557 1238,557 1208,557 1177,557 1147,557 1116,557 1086,557 1055,558 1025,558 994,558 964,558 933,558 903,558 872,558 842,558 843,549 845,540 846,531 847,522 853,512 860,501 866,491 873,480 879,470 885,459 892,449 898,439"/>
<polygon class="pen1 brush37" points="898,439 922,439 946,438 970,438 994,437 1018,437 1042,437 1066,436 1090,436 1114,436 1139,435 1163,435 1187,434 1211,434 1236,434 1260,433 1284,433 1289,444 1295,455 1300,466 1306,476 1311,487 1316,498 1322,508 1327,519 1326,526 1326,533 1326,540 1325,547 1295,547 1265,547 1235,547 1205,547 1175,547 1145,547 1116,547 1086,547 1056,547 1026,547 996,547 967,547 937,548 907,548 878,548 848,548 850,539 851,530 853,521 853,511 859,502 864,493 870,484 876,475 881,466 887,457 892,448 898,439"/>
<polygon class="pen1 brush38" points="898,439 1284,433 1321,510 1320,536 854,537 859,501 898,439"/>
<polygon class="pen1 brush2" points="758,678 737,707 717,734 698,761 681,787 666,814 652,843 639,874 628,908 618,1012 659,1012 713,889 725,871 736,855 748,840 759,827 770,815 781,805 793,796 804,788 844,763 885,741 928,724 971,710 1015,701 1059,695 1102,694 1146,697 1188,704 1230,716 1269,732 1307,753 1343,778 1377,808 1407,843 1435,882 1476,975 1488,1020 1496,1071 1501,1125 1503,1180 1503,1231 1501,1278 1498,1316 1495,1343 1533,1340 1621,1341 1638,1276 1637,970 1595,960 1523,955 1514,906 1506,864 1498,829 1488,797 1473,768 1454,738 1429,707 1395,671 789,673 758,678"/>
<polygon class="pen1 brush2" points="618,1009 545,1012 530,1048 530,1132 545,1158 623,1155 644,1058 670,975 618,1009"/>
<polygon class="pen1 brush14" points="1482,723 1673,723 1802,723 1860,710 1911,678 1918,753 1919,872 1918,1009 1918,1137 1907,1164 1898,1185 1890,1203 1880,1216 1868,1227 1853,1235 1831,1242 1803,1247 1663,1247 1663,960 1533,944 1523,866 1507,762 1482,723"/>
<polygon class="pen1 brush14" points="873,310 896,443 1289,445 1290,313 1288,297 1266,286 879,286 873,310"/>
<polygon class="pen1 brush39" points="1074,951 1114,953 1153,959 1190,968 1226,981 1261,998 1293,1017 1323,1039 1351,1064 1376,1091 1399,1121 1419,1153 1435,1186 1448,1222 1458,1259 1464,1297 1466,1336 1464,1375 1458,1413 1448,1450 1435,1486 1419,1519 1399,1551 1376,1581 1351,1608 1323,1633 1293,1655 1261,1674 1226,1691 1190,1704 1153,1713 1114,1719 1074,1721 1034,1719 996,1713 959,1704 923,1691 889,1674 857,1655 827,1633 799,1608 774,1581 751,1551 731,1519 715,1486 702,1450 692,1413 686,1375 684,1336 686,1297 692,1259 702,1222 715,1186 731,1153 751,1121 774,1091 799,1064 827,1039 857,1017 889,998 923,981 959,968 996,959 1034,953 1074,951"/>
<polygon class="pen1 brush13" points="1074,987 1110,989 1146,994 1180,1003 1212,1014 1243,1029 1272,1047 1300,1067 1325,1089 1348,1114 1368,1141 1386,1170 1401,1200 1413,1232 1422,1266 1427,1300 1429,1336 1427,1372 1422,1406 1413,1440 1401,1472 1386,1503 1368,1532 1348,1559 1325,1583 1300,1606 1272,1626 1243,1644 1212,1658 1180,1670 1146,1679 1110,1684 1074,1686 1038,1684 1003,1679 969,1670 937,1658 906,1644 877,1626 849,1606 824,1583 801,1559 781,1532 763,1503 748,1472 736,1440 727,1406 722,1372 720,1336 722,1300 727,1266 736,1232 748,1200 763,1170 781,1141 801,1114 824,1089 849,1067 877,1047 906,1029 937,1014 969,1003 1003,994 1038,989 1074,987"/>
<polygon class="pen1 brush39" points="1081,1123 1104,1124 1126,1127 1147,1133 1167,1140 1187,1150 1205,1161 1222,1173 1238,1188 1253,1203 1266,1220 1277,1238 1286,1258 1294,1278 1299,1299 1303,1321 1304,1343 1303,1365 1299,1387 1294,1408 1286,1428 1277,1448 1266,1466 1253,1483 1238,1498 1222,1513 1205,1525 1187,1536 1167,1546 1147,1553 1126,1559 1104,1562 1081,1563 1058,1562 1036,1559 1014,1553 994,1546 974,1536 956,1525 939,1513 923,1498 909,1483 896,1466 885,1448 875,1428 868,1408 862,1387 859,1365 858,1343 859,1321 862,1299 868,1278 875,1258 885,1238 896,1220 909,1203 923,1188 939,1173 956,1161 974,1150 994,1140 1014,1133 1036,1127 1058,1124 1081,1123"/>
<polygon class="pen1 brush13" points="1074,1150 1095,1151 1115,1154 1134,1159 1152,1166 1170,1174 1187,1184 1202,1196 1217,1208 1230,1223 1241,1238 1252,1254 1260,1271 1267,1290 1272,1308 1275,1328 1276,1348 1275,1369 1272,1388 1267,1408 1260,1426 1252,1444 1241,1460 1230,1475 1217,1490 1202,1503 1187,1514 1170,1524 1152,1532 1134,1539 1115,1544 1095,1547 1074,1548 1053,1547 1033,1544 1014,1539 995,1532 978,1524 961,1514 946,1503 932,1490 919,1475 907,1460 897,1444 889,1426 882,1408 877,1388 874,1369 873,1348 874,1328 877,1308 882,1290 889,1271 897,1254 907,1238 919,1223 932,1208 946,1196 961,1184 978,1174 995,1166 1014,1159 1033,1154 1053,1151 1074,1150"/>
<polygon class="pen1 brush18" points="1076,1161 1095,1162 1114,1165 1132,1169 1149,1176 1166,1183 1182,1193 1196,1203 1210,1215 1222,1229 1233,1243 1242,1258 1250,1274 1256,1292 1261,1309 1264,1328 1265,1347 1264,1366 1261,1384 1256,1402 1250,1419 1242,1435 1233,1451 1222,1465 1210,1478 1196,1490 1182,1501 1166,1510 1149,1518 1132,1525 1114,1529 1095,1532 1076,1533 1057,1532 1038,1529 1020,1525 1003,1518 987,1510 971,1501 957,1490 944,1478 931,1465 921,1451 911,1435 904,1419 897,1402 893,1384 890,1366 889,1347 890,1328 893,1309 897,1292 904,1274 911,1258 921,1243 931,1229 944,1215 957,1203 971,1193 987,1183 1003,1176 1020,1169 1038,1165 1057,1162 1076,1161"/>
<polygon class="pen1 brush19" points="1078,1172 1096,1173 1113,1175 1130,1180 1147,1186 1162,1193 1177,1201 1190,1211 1203,1222 1214,1235 1225,1248 1233,1262 1241,1277 1247,1293 1251,1310 1254,1327 1255,1345 1254,1363 1251,1380 1247,1396 1241,1412 1233,1427 1225,1441 1214,1455 1203,1467 1190,1478 1177,1488 1162,1497 1147,1504 1130,1510 1113,1514 1096,1517 1078,1518 1060,1517 1043,1514 1026,1510 1010,1504 995,1497 980,1488 967,1478 955,1467 943,1455 933,1441 925,1427 918,1412 912,1396 907,1380 905,1363 904,1345 905,1327 907,1310 912,1293 918,1277 925,1262 933,1248 943,1235 955,1222 967,1211 980,1201 995,1193 1010,1186 1026,1180 1043,1175 1060,1173 1078,1172"/>
<polygon class="pen1 brush20" points="1081,1182 1097,1183 1114,1185 1129,1189 1144,1195 1158,1201 1172,1209 1184,1219 1196,1229 1206,1240 1216,1253 1224,1266 1231,1280 1237,1295 1241,1310 1243,1326 1244,1342 1243,1358 1241,1374 1237,1389 1231,1404 1224,1418 1216,1431 1206,1444 1196,1455 1184,1465 1172,1475 1158,1483 1144,1489 1129,1495 1114,1499 1097,1501 1081,1502 1064,1501 1048,1499 1033,1495 1018,1489 1003,1483 990,1475 977,1465 966,1455 955,1444 946,1431 938,1418 931,1404 925,1389 921,1374 919,1358 918,1342 919,1326 921,1310 925,1295 931,1280 938,1266 946,1253 955,1240 966,1229 977,1219 990,1209 1003,1201 1018,1195 1033,1189 1048,1185 1064,1183 1081,1182"/>
<polygon class="pen1 brush21" points="1083,1193 1113,1196 1141,1205 1166,1218 1189,1236 1207,1258 1221,1283 1230,1310 1233,1340 1230,1370 1221,1397 1207,1422 1189,1444 1166,1462 1141,1475 1113,1484 1083,1487 1053,1484 1025,1475 1000,1462 977,1444 959,1422 945,1397 936,1370 933,1340 936,1310 945,1283 959,1258 977,1236 1000,1218 1025,1205 1053,1196 1083,1193"/>
<polygon class="pen1 brush22" points="1085,1204 1112,1207 1138,1214 1161,1227 1182,1243 1198,1263 1211,1285 1219,1311 1222,1338 1219,1365 1211,1390 1198,1412 1182,1432 1161,1449 1138,1461 1112,1469 1085,1472 1058,1469 1032,1461 1009,1449 989,1432 972,1412 960,1390 952,1365 949,1338 952,1311 960,1285 972,1263 989,1243 1009,1227 1032,1214 1058,1207 1085,1204"/>
<polygon class="pen1 brush23" points="1088,1214 1113,1216 1136,1223 1157,1235 1175,1249 1190,1267 1201,1288 1209,1311 1211,1335 1209,1359 1201,1382 1190,1403 1175,1421 1157,1435 1136,1447 1113,1454 1088,1456 1063,1454 1040,1447 1019,1435 1001,1421 986,1403 975,1382 967,1359 965,1335 967,1311 975,1288 986,1267 1001,1249 1019,1235 1040,1223 1063,1216 1088,1214"/>
<polygon class="pen1 brush24" points="1090,1225 1112,1227 1133,1234 1152,1244 1168,1257 1181,1273 1191,1291 1198,1311 1200,1333 1198,1355 1191,1375 1181,1394 1168,1409 1152,1423 1133,1433 1112,1439 1090,1441 1068,1439 1048,1433 1029,1423 1013,1409 999,1394 989,1375 982,1355 980,1333 982,1311 989,1291 999,1273 1013,1257 1029,1244 1048,1234 1068,1227 1090,1225"/>
<polygon class="pen1 brush25" points="1092,1236 1112,1238 1130,1244 1146,1252 1161,1264 1173,1278 1181,1294 1187,1312 1189,1331 1187,1350 1181,1368 1173,1384 1161,1398 1146,1410 1130,1418 1112,1424 1092,1426 1073,1424 1055,1418 1039,1410 1025,1398 1013,1384 1004,1368 999,1350 997,1331 999,1312 1004,1294 1013,1278 1025,1264 1039,1252 1055,1244 1073,1238 1092,1236"/>
<polygon class="pen1 brush26" points="1095,1247 1112,1249 1127,1253 1141,1261 1154,1271 1164,1283 1172,1297 1176,1312 1178,1329 1176,1345 1172,1361 1164,1374 1154,1386 1141,1396 1127,1404 1112,1408 1095,1410 1078,1408 1062,1404 1048,1396 1036,1386 1025,1374 1018,1361 1013,1345 1011,1329 1013,1312 1018,1297 1025,1283 1036,1271 1048,1261 1062,1253 1078,1249 1095,1247"/>
<polygon class="pen1 brush27" points="1097,1257 1111,1258 1124,1262 1136,1269 1147,1277 1155,1287 1162,1299 1166,1312 1167,1326 1166,1340 1162,1353 1155,1364 1147,1374 1136,1383 1124,1389 1111,1393 1097,1394 1083,1393 1070,1389 1058,1383 1047,1374 1039,1364 1032,1353 1028,1340 1027,1326 1028,1312 1032,1299 1039,1287 1047,1277 1058,1269 1070,1262 1083,1258 1097,1257"/>
<polygon class="pen1 brush15" points="1099,1268 1111,1269 1121,1272 1131,1278 1140,1284 1146,1293 1152,1302 1155,1313 1156,1324 1155,1335 1152,1346 1146,1355 1140,1364 1131,1370 1121,1376 1111,1379 1099,1380 1088,1379 1077,1376 1067,1370 1059,1364 1052,1355 1047,1346 1043,1335 1042,1324 1043,1313 1047,1302 1052,1293 1059,1284 1067,1278 1077,1272 1088,1269 1099,1268"/>
<polygon class="pen1 brush14" points="752,953 697,1042 677,1081 661,1122 651,1164 646,1207 645,1251 650,1294 659,1338 672,1380 672,1344 674,1309 680,1274 689,1240 701,1205 716,1169 735,1131 756,1091 773,1070 793,1048 817,1027 845,1006 875,987 909,971 945,956 983,945 1023,938 1066,935 1109,937 1155,944 1201,958 1248,977 1296,1004 1344,1039 1431,1138 1465,1223 1461,1058 1368,924 1331,888 1293,859 1254,835 1214,817 1173,804 1132,796 1091,793 1050,795 1009,802 969,812 930,827 891,846 854,868 818,893 784,922 752,953"/>
<polygon class="pen1 brush14" points="744,859 688,953 666,1054 676,1032 688,1011 701,990 716,969 731,950 748,930 766,912 786,894 806,878 827,862 849,847 872,834 896,821 920,810 945,801 970,793 996,787 1023,782 1049,779 1076,778 1104,778 1131,781 1159,786 1186,793 1214,802 1241,814 1268,828 1295,844 1322,863 1348,885 1374,910 1399,937 1462,1037 1451,959 1437,931 1422,905 1405,880 1388,857 1370,836 1351,816 1332,798 1311,781 1290,767 1268,753 1246,742 1223,732 1200,723 1177,716 1153,711 1128,707 1104,705 1079,705 1054,706 1029,708 1004,712 979,718 955,725 930,734 905,744 881,756 857,770 834,784 810,801 788,819 766,838 744,859"/>
<polygon class="pen1 brush14" points="1401,508 1827,508 1853,511 1874,515 1890,522 1902,530 1911,543 1916,558 1919,579 1920,604 1921,636 1805,647 1424,650 1401,508"/>
<polygon class="pen1 brush2" points="1436,630 1637,630 1665,630 1691,630 1715,630 1736,630 1756,630 1775,629 1792,628 1808,627 1822,625 1836,622 1848,619 1861,616 1872,611 1884,606 1895,599 1906,592 1897,676 1845,704 1776,704 1448,704 1436,630"/>
<polygon class="pen1 brush14" points="1801,725 1845,716 1888,697 1894,1115 1896,1140 1895,1163 1890,1184 1881,1201 1868,1214 1851,1223 1831,1227 1807,1226 1801,725"/>
<polygon class="pen1 brush40" points="1804,725 1809,724 1814,723 1819,722 1825,720 1830,719 1835,718 1840,717 1845,716 1850,714 1855,712 1860,710 1865,708 1870,706 1876,704 1881,702 1886,700 1887,805 1889,910 1890,1015 1891,1120 1894,1144 1892,1166 1887,1185 1879,1201 1866,1213 1851,1222 1832,1226 1810,1225 1809,1100 1807,975 1806,850 1804,725"/>
<polygon class="pen1 brush41" points="1807,726 1812,725 1816,724 1821,723 1826,721 1830,720 1835,719 1840,717 1845,716 1850,714 1855,713 1860,711 1864,709 1869,708 1874,706 1878,705 1883,703 1885,809 1886,914 1888,1020 1889,1126 1891,1148 1889,1168 1885,1185 1876,1200 1865,1211 1850,1219 1833,1223 1812,1222 1811,1098 1810,974 1808,850 1807,726"/>
<polygon class="pen1 brush42" points="1810,726 1814,725 1818,724 1823,723 1827,721 1832,720 1836,719 1841,717 1845,716 1850,715 1854,714 1859,712 1863,711 1868,710 1872,708 1877,707 1881,706 1882,812 1884,919 1885,1025 1886,1132 1888,1152 1887,1170 1882,1186 1874,1199 1864,1209 1850,1217 1833,1220 1814,1220 1813,1096 1812,973 1811,850 1810,726"/>
<polygon class="pen1 brush43" points="1813,728 1817,726 1821,725 1825,723 1829,722 1833,720 1837,719 1841,717 1845,716 1849,715 1853,714 1858,713 1862,712 1866,712 1871,711 1875,710 1879,709 1880,816 1881,923 1882,1030 1883,1137 1885,1155 1883,1172 1879,1186 1872,1198 1862,1208 1849,1215 1834,1218 1816,1218 1815,1096 1815,973 1814,850 1813,728"/>
<polygon class="pen1 brush44" points="1815,729 1819,727 1823,726 1826,724 1830,722 1834,721 1838,719 1841,718 1845,716 1849,715 1853,715 1857,714 1861,713 1865,713 1869,712 1873,712 1877,711 1878,819 1879,927 1879,1035 1880,1143 1882,1159 1881,1174 1877,1187 1870,1198 1860,1207 1849,1213 1835,1216 1819,1216 1818,1094 1817,972 1816,850 1815,729"/>
<polygon class="pen1 brush45" points="1818,730 1825,726 1832,723 1838,720 1845,716 1852,715 1860,715 1867,715 1874,714 1875,823 1876,931 1876,1040 1877,1149 1879,1163 1878,1176 1874,1188 1868,1197 1859,1205 1848,1210 1836,1213 1821,1213 1820,1092 1820,971 1819,850 1818,730"/>
<polygon class="pen1 brush46" points="1821,731 1827,727 1833,723 1839,720 1845,716 1852,716 1859,716 1865,717 1872,717 1873,826 1873,936 1874,1045 1874,1154 1876,1167 1875,1178 1871,1188 1865,1197 1858,1204 1848,1208 1836,1211 1823,1211 1822,1091 1822,971 1822,851 1821,731"/>
<polygon class="pen1 brush47" points="1824,732 1829,728 1835,724 1840,720 1845,716 1851,717 1858,718 1864,719 1870,720 1871,830 1871,940 1871,1050 1872,1160 1873,1171 1872,1180 1869,1189 1863,1196 1856,1202 1847,1206 1836,1208 1825,1209 1825,1090 1825,970 1824,851 1824,732"/>
<polygon class="pen1 brush48" points="1827,733 1832,728 1836,724 1841,720 1845,716 1850,718 1856,719 1862,721 1868,723 1868,833 1868,944 1868,1055 1869,1166 1870,1175 1869,1183 1866,1190 1861,1195 1855,1200 1847,1204 1838,1206 1828,1207 1827,1088 1827,970 1827,851 1827,733"/>
<polygon class="pen1 brush49" points="1829,734 1833,729 1837,725 1841,720 1845,716 1850,718 1855,720 1860,723 1865,725 1866,837 1866,948 1866,1060 1866,1171 1867,1178 1866,1184 1863,1190 1859,1195 1853,1198 1846,1201 1838,1203 1830,1204 1830,1086 1830,969 1830,851 1829,734"/>
<polygon class="pen1 brush15" points="1832,735 1845,716 1863,728 1863,1177 1864,1182 1863,1187 1861,1191 1857,1194 1852,1197 1846,1199 1839,1201 1832,1202 1832,735"/>
<polygon class="pen1 brush13" points="921,276 944,236 1016,234 1018,292 1148,292 1148,234 1218,232 1233,244 1247,284 1237,382 932,381 931,364 929,327 925,291 921,276"/>
<polygon class="pen1 brush14" points="1254,1042 1193,1144 1239,1183 1276,1231 1403,1223 1389,1194 1376,1167 1362,1141 1347,1117 1329,1096 1308,1076 1283,1058 1254,1042"/>
<polygon class="pen1 brush14" points="925,1654 972,1554 922,1519 884,1476 758,1494 766,1508 774,1521 782,1534 790,1546 799,1558 807,1569 816,1580 825,1590 835,1600 846,1609 857,1618 868,1626 881,1634 895,1641 909,1648 925,1654"/>
<polygon class="pen1 brush15" points="1227,1170 1256,1202 1378,1174 1334,1106 1295,1066 1227,1170"/>
<polygon class="pen1 brush15" points="936,1533 906,1504 800,1541 837,1597 887,1637 936,1533"/>
<polygon class="pen1 brush39" points="1286,1431 1413,1486 1331,1577 1259,1477 1286,1431"/>
<polygon class="pen1 brush39" points="791,1124 907,1202 885,1241 734,1215 748,1159 791,1124"/>
<polygon class="pen1 brush39" points="1104,1559 1104,1698 1151,1690 1125,1550 1104,1559"/>
<polygon class="pen1 brush15" points="937,232 930,266 932,340 1010,332 1005,232 973,232 937,232"/>
<polygon class="pen1 brush15" points="1150,242 1150,320 1153,337 1226,340 1223,237 1196,237 1150,242"/>
<polygon class="pen1 brush16" points="930,340 930,381 1235,381 1226,337 1150,337 1150,354 1209,354 1209,369 949,366 949,348 1012,348 1012,332 942,332 930,340"/>
<polygon class="pen1 brush39" points="1085,308 1092,308 1099,309 1105,311 1111,312 1116,315 1119,317 1121,320 1122,323 1121,326 1119,329 1116,331 1111,333 1105,335 1099,336 1092,337 1085,337 1078,337 1071,336 1065,335 1060,333 1055,331 1052,329 1050,326 1049,323 1050,320 1052,317 1055,315 1060,312 1065,311 1071,309 1078,308 1085,308"/>
<polygon class="pen1 brush39" points="248,507 277,508 304,511 329,516 351,522 368,530 382,539 390,548 393,558 390,569 382,579 368,588 351,596 329,603 304,608 277,611 248,612 219,611 192,608 167,603 146,596 128,588 114,579 106,569 103,558 106,548 114,539 128,530 146,522 167,516 192,511 219,508 248,507"/>
<polygon class="pen1 brush15" points="248,480 277,481 304,484 329,489 351,495 368,503 382,512 390,521 393,532 390,543 382,552 368,561 351,569 329,575 304,580 277,583 248,584 219,583 192,580 167,575 146,569 128,561 114,552 106,543 103,532 106,521 114,512 128,503 146,495 167,489 192,484 219,481 248,480"/>
<polygon class="pen1 brush13" points="486,531 469,584 677,584 677,529 675,529 669,529 659,529 646,529 631,529 615,530 597,530 579,530 561,530 544,530 528,531 513,531 501,531 492,531 487,531 486,531"/>
<polygon class="pen1 brush39" points="300,650 311,650 321,652 330,653 338,656 345,659 350,662 353,665 354,669 353,673 350,677 345,680 338,683 330,686 321,687 311,689 300,689 289,689 279,687 270,686 262,683 255,680 250,677 246,673 245,669 246,665 250,662 255,659 262,656 270,653 279,652 289,650 300,650"/>
<polygon class="pen1 brush15" points="300,634 311,634 321,635 330,637 338,639 345,642 350,645 353,649 354,653 353,657 350,660 345,663 338,666 330,669 321,670 311,672 300,672 289,672 279,670 270,669 262,666 255,663 250,660 246,657 245,653 246,649 250,645 255,642 262,639 270,637 279,635 289,634 300,634"/>
<polygon class="pen1 brush13" points="579,1043 586,1044 593,1046 599,1050 605,1055 610,1062 613,1069 615,1077 616,1086 615,1095 613,1103 610,1110 605,1116 599,1122 593,1126 586,1128 579,1129 572,1128 565,1126 559,1122 553,1116 548,1110 545,1103 543,1095 542,1086 543,1077 545,1069 548,1062 553,1055 559,1050 565,1046 572,1044 579,1043"/>
<polygon class="pen1 brush13" points="1566,996 1573,997 1580,999 1586,1003 1592,1008 1596,1014 1599,1021 1601,1029 1602,1037 1601,1045 1599,1052 1596,1059 1592,1065 1586,1071 1580,1075 1573,1077 1566,1078 1559,1077 1552,1075 1546,1071 1541,1065 1536,1059 1533,1052 1531,1045 1530,1037 1531,1029 1533,1021 1536,1014 1541,1008 1546,1003 1552,999 1559,997 1566,996"/>
<polygon class="pen1 brush13" points="1566,1205 1573,1206 1580,1208 1586,1212 1592,1217 1596,1223 1599,1229 1601,1237 1602,1245 1601,1253 1599,1261 1596,1268 1592,1274 1586,1279 1580,1283 1573,1285 1566,1286 1559,1285 1552,1283 1546,1279 1541,1274 1536,1268 1533,1261 1531,1253 1530,1245 1531,1237 1533,1229 1536,1223 1541,1217 1546,1212 1552,1208 1559,1206 1566,1205"/>
<polygon class="pen1 brush13" points="1892,598 1891,680 1926,646 1918,552 1892,598"/>
<polygon class="pen1 brush2" points="1816,630 1840,622 1879,608 1878,685 1852,699 1816,702 1816,630"/>
<polygon class="pen1 brush50" points="1817,630 1823,628 1828,626 1834,624 1839,622 1844,620 1849,619 1853,617 1858,615 1863,614 1867,612 1872,611 1877,609 1877,628 1877,647 1876,666 1876,685 1870,689 1864,692 1858,695 1852,699 1848,699 1843,700 1839,700 1835,700 1830,701 1826,701 1821,702 1817,702 1817,684 1817,666 1817,648 1817,630"/>
<polygon class="pen1 brush28" points="1819,630 1824,628 1829,626 1834,624 1839,622 1843,620 1848,619 1852,617 1857,616 1861,614 1866,613 1870,611 1874,610 1874,629 1874,648 1874,667 1874,686 1868,689 1863,692 1857,696 1852,699 1848,699 1844,700 1840,700 1836,700 1831,701 1827,701 1823,702 1819,702 1819,684 1819,666 1819,648 1819,630"/>
<polygon class="pen1 brush51" points="1821,630 1826,628 1830,626 1835,624 1839,622 1843,621 1847,619 1851,618 1856,616 1860,615 1864,614 1868,612 1872,611 1872,630 1872,649 1872,668 1871,687 1866,690 1862,693 1857,696 1852,699 1848,699 1844,700 1840,700 1836,700 1832,701 1828,701 1824,702 1820,702 1820,684 1821,666 1821,648 1821,630"/>
<polygon class="pen1 brush52" points="1822,630 1826,628 1831,626 1835,624 1839,622 1843,621 1847,620 1850,618 1854,617 1858,616 1862,614 1866,613 1870,612 1869,631 1869,649 1869,668 1869,687 1865,690 1860,693 1856,696 1852,700 1848,700 1845,701 1841,701 1837,701 1833,701 1830,701 1826,702 1822,702 1822,684 1822,666 1822,648 1822,630"/>
<polygon class="pen1 brush53" points="1824,630 1828,628 1831,626 1835,624 1838,622 1845,620 1853,617 1860,615 1867,612 1867,631 1867,650 1867,669 1867,688 1863,691 1859,694 1855,697 1851,700 1844,701 1837,701 1830,702 1823,702 1823,684 1824,666 1824,648 1824,630"/>
<polygon class="pen1 brush54" points="1825,630 1829,628 1832,626 1835,624 1838,622 1845,620 1852,617 1858,615 1865,613 1865,632 1865,650 1865,669 1865,688 1861,691 1858,694 1855,697 1851,700 1845,701 1838,701 1832,702 1825,702 1825,684 1825,666 1825,648 1825,630"/>
<polygon class="pen1 brush55" points="1827,630 1830,628 1833,626 1835,624 1838,622 1844,620 1850,618 1856,616 1862,614 1862,633 1862,651 1862,670 1862,689 1860,692 1857,694 1854,697 1851,700 1845,701 1839,701 1833,702 1826,702 1826,684 1827,666 1827,648 1827,630"/>
<polygon class="pen1 brush56" points="1829,630 1831,628 1834,626 1836,624 1838,622 1843,620 1849,618 1854,617 1860,615 1860,634 1860,652 1860,671 1860,689 1858,692 1856,695 1853,698 1851,700 1845,701 1840,701 1834,702 1828,702 1828,684 1828,666 1828,648 1829,630"/>
<polygon class="pen1 brush57" points="1830,630 1832,628 1834,626 1836,624 1838,622 1843,620 1848,619 1852,617 1857,616 1857,634 1858,653 1858,671 1858,690 1856,693 1855,695 1853,698 1851,701 1846,701 1840,701 1834,702 1829,702 1830,684 1830,666 1830,648 1830,630"/>
<polygon class="pen1 brush58" points="1832,630 1833,628 1835,626 1836,624 1837,622 1842,620 1846,619 1851,617 1855,616 1855,634 1855,653 1855,672 1856,691 1855,693 1853,696 1852,698 1851,701 1846,701 1841,701 1836,702 1831,702 1831,684 1831,666 1831,648 1832,630"/>
<polygon class="pen1 brush16" points="1833,630 1837,622 1852,617 1853,691 1851,701 1832,702 1833,630"/>
<polygon class="pen1 brush14" points="56,662 86,708 86,789 52,765 56,662"/>
<polygon class="pen1 brush14" points="367,704 367,781 399,740 399,662 367,704"/>
<polygon class="pen1 brush39" points="1723,751 1731,752 1739,755 1746,759 1752,764 1757,771 1761,778 1763,787 1764,796 1763,805 1761,814 1757,822 1752,828 1746,834 1739,838 1731,841 1723,842 1715,841 1707,838 1701,834 1695,828 1690,822 1686,814 1684,805 1683,796 1684,787 1686,778 1690,771 1695,764 1701,759 1707,755 1715,752 1723,751"/>
<polygon class="pen1 brush39" points="1539,524 1555,525 1570,526 1584,529 1596,532 1606,536 1614,540 1618,546 1620,551 1618,557 1614,562 1606,566 1596,571 1584,574 1570,577 1555,578 1539,579 1523,578 1507,577 1493,574 1481,571 1471,566 1463,562 1459,557 1457,551 1459,546 1463,540 1471,536 1481,532 1493,529 1507,526 1523,525 1539,524"/>
<polygon class="pen1 brush39" points="1752,518 1768,519 1784,520 1797,523 1809,526 1819,530 1827,534 1831,540 1833,545 1831,550 1827,556 1819,560 1809,564 1797,567 1784,570 1768,571 1752,572 1736,571 1720,570 1707,567 1695,564 1685,560 1677,556 1673,550 1671,545 1673,540 1677,534 1685,530 1695,526 1707,523 1720,520 1736,519 1752,518"/>
<polygon class="pen1 brush13" points="1926,624 1968,621 1968,715 1926,715 1926,687 1951,687 1954,649 1918,649 1926,624"/>
<polygon class="pen1 brush14" points="963,523 1208,518 1215,568 956,572 963,523"/>
<polygon class="pen1 brush13" points="1073,920 1081,837 1106,837 1106,922 1073,920"/>
<polygon class="pen1 brush13" points="1066,765 1073,721 1096,721 1096,766 1066,765"/>
<polygon class="pen1 brush13" points="1147,863 1139,922 1161,930 1164,875 1147,863"/>
<polygon class="pen1 brush13" points="1133,739 1125,769 1145,775 1148,745 1133,739"/>
<polygon class="pen1 brush13" points="997,863 1005,922 983,930 980,875 997,863"/>
<polygon class="pen1 brush13" points="998,730 1006,768 986,775 983,737 998,730"/>
<polygon class="pen1 brush13" points="1220,908 1214,942 1236,953 1242,905 1228,890 1220,908"/>
<polygon class="pen1 brush13" points="1197,755 1192,785 1212,795 1217,752 1206,740 1197,755"/>
<polygon class="pen1 brush13" points="925,908 930,942 910,953 904,905 916,890 925,908"/>
<polygon class="pen1 brush13" points="935,755 939,785 919,795 914,752 926,740 935,755"/>
<polygon class="pen1 brush13" points="1288,940 1283,975 1297,989 1305,942 1288,940"/>
<polygon class="pen1 brush13" points="1267,766 1263,797 1275,810 1282,768 1267,766"/>
<polygon class="pen1 brush13" points="858,940 863,975 849,989 841,942 858,940"/>
<polygon class="pen1 brush13" points="874,784 879,815 866,827 859,786 874,784"/>
<polygon class="pen1 brush13" points="1347,976 1335,1005 1351,1023 1363,991 1347,976"/>
<polygon class="pen1 brush13" points="1320,799 1309,824 1324,841 1335,812 1320,799"/>
<polygon class="pen1 brush13" points="799,976 811,1005 795,1023 783,991 799,976"/>
<polygon class="pen1 brush13" points="821,816 832,842 818,858 807,829 821,816"/>
<polygon class="pen1 brush13" points="1402,1033 1388,1058 1400,1078 1416,1055 1402,1033"/>
<polygon class="pen1 brush13" points="1373,858 1360,880 1372,898 1385,878 1373,858"/>
<polygon class="pen1 brush13" points="745,1033 759,1058 748,1078 731,1055 745,1033"/>
<polygon class="pen1 brush13" points="756,867 768,889 758,907 743,887 756,867"/>
</g>
</svg>