<?xml version="1.0" encoding="utf-8"?>
<!DOCTYPE svg PUBLIC "-//W3C//DTD SVG 1.0//EN" "http://www.w3.org/TR/2001/REC-SVG-20010904/DTD/svg10.dtd">
<svg aria-labelledby="title desc" fill-rule="evenodd" height="1.971in" preserveAspectRatio="none" stroke-linecap="round" viewBox="0 0 1907 1971" width="1.907in" xmlns="http://www.w3.org/2000/svg" xmlns:xlink="http://www.w3.org/1999/xlink"><title>cartoons,faces,nature,stars</title><desc>Original keywords: cartoons,faces,nature,stars. This clipart was ripped from the Microsoft website, then uploaded to https://archive.org/details/MS_Clipart_Collection. (The original WMF file can be found within that item, under the folder MC900212705). From there, it was then converted by Trumad to svg using https://github.com/hidekatsu-izuno/wmf2svg in a bulk operation. All the converted files can be found at https://archive.org/details/MS_Clipart_Collection_SVG</desc>
<style type="text/css">
.brush0 { fill: rgb(255,255,255); }
.pen0 { stroke: rgb(0,0,0); stroke-width: 1; stroke-linejoin: round; }
.brush1 { fill: none; }
.pen1 { stroke: none; }
.brush2 { fill: rgb(255,209,43); }
</style>
<g>
<polygon class="pen1 brush2" points="1315,313 1294,310 1273,307 1251,305 1228,303 1205,301 1182,300 1158,299 1133,299 1108,299 1083,299 1057,299 1032,300 1006,301 979,302 953,303 927,305 900,307 874,309 847,312 821,315 795,317 769,320 743,324 717,327 692,331 667,334 642,338 618,342 594,346 570,350 547,355 525,359 509,362 493,365 478,369 463,372 448,375 434,379 420,382 407,385 394,389 381,392 369,396 358,399 347,402 336,406 326,409 317,412 293,421 271,430 251,440 233,450 216,462 201,475 188,490 176,508 166,529 157,553 150,580 144,612 140,648 137,690 135,737 135,789 135,834 137,884 138,938 141,996 141,1040 138,1084 132,1128 124,1173 115,1217 104,1261 92,1305 80,1348 71,1382 62,1415 54,1448 47,1480 42,1512 37,1543 35,1573 34,1602 35,1625 38,1646 43,1668 49,1688 57,1708 68,1727 80,1745 95,1763 106,1774 118,1784 132,1793 147,1801 163,1809 181,1816 199,1822 219,1828 240,1833 262,1837 284,1841 308,1844 332,1846 358,1848 383,1849 410,1850 430,1850 450,1850 471,1850 492,1850 513,1849 534,1848 556,1846 578,1845 599,1843 621,1841 643,1838 665,1836 688,1833 710,1830 732,1826 754,1823 815,1813 872,1804 928,1794 980,1785 1030,1775 1076,1764 1120,1753 1161,1740 1198,1727 1233,1712 1264,1696 1292,1678 1317,1658 1338,1636 1356,1612 1370,1585 1381,1552 1387,1519 1388,1486 1387,1453 1384,1421 1381,1389 1380,1358 1382,1327 1388,1287 1395,1246 1404,1205 1413,1163 1423,1122 1434,1080 1445,1038 1456,997 1471,945 1485,895 1499,844 1512,795 1524,747 1534,701 1542,656 1548,613 1550,579 1551,546 1549,515 1545,486 1538,459 1528,434 1515,410 1499,389 1492,382 1485,375 1477,369 1468,363 1458,357 1448,352 1437,347 1426,342 1414,337 1401,333 1388,329 1374,325 1360,322 1346,319 1331,316 1315,313"/>
<polygon class="pen1 brush2" points="1407,1182 1907,910 1517,779 1505,819 1531,830 1557,842 1583,853 1608,863 1632,873 1655,882 1677,891 1698,899 1717,907 1734,913 1750,919 1762,924 1773,928 1781,931 1785,932 1787,933 1765,942 1743,952 1721,962 1698,973 1674,984 1651,996 1627,1008 1603,1021 1580,1033 1556,1046 1533,1059 1510,1072 1488,1085 1466,1097 1444,1110 1424,1122 1407,1182"/>
<polygon class="pen1 brush0" points="1131,298 1145,360 1161,424 1177,487 1194,548 1210,602 1225,648 1238,681 1248,699 1246,686 1241,656 1235,614 1227,561 1218,500 1209,434 1198,366 1188,298 1131,298"/>
<polygon class="pen1 brush2" points="1131,298 1126,275 1121,252 1116,229 1112,208 1108,188 1105,170 1102,155 1101,142 1098,152 1091,166 1083,183 1072,204 1059,227 1044,251 1027,276 1010,301 903,307 921,283 939,258 957,233 975,208 993,183 1010,160 1027,136 1043,114 1058,93 1072,74 1085,56 1097,40 1107,26 1116,15 1123,6 1128,0 1133,15 1140,39 1147,70 1155,109 1163,152 1172,199 1180,248 1188,298 1131,298"/>
<polygon class="pen1 brush0" points="903,307 892,322 880,337 869,352 857,368 845,383 833,398 821,412 810,426 799,440 788,453 777,465 768,477 759,487 750,497 743,505 736,512 729,516 715,519 697,521 673,522 645,522 614,522 578,521 540,519 500,516 457,513 413,510 369,506 323,501 278,496 234,491 190,485 161,540 205,550 251,559 299,566 348,573 397,579 445,585 492,589 538,593 580,596 620,599 655,601 686,603 710,604 729,604 741,605 745,605 751,602 759,595 770,586 783,573 798,557 815,540 832,520 851,498 871,475 891,451 912,427 932,401 953,376 973,350 992,325 1010,301 903,307"/>
<polygon class="pen1 brush0" points="141,661 402,1059 392,1086 377,1120 359,1159 339,1203 316,1250 292,1299 267,1350 241,1401 216,1451 191,1499 169,1544 148,1585 130,1621 115,1651 104,1674 98,1688 120,1686 143,1684 167,1680 192,1676 217,1671 243,1665 269,1658 296,1651 323,1644 350,1635 377,1627 404,1618 431,1609 458,1599 484,1589 510,1580 535,1570 559,1560 582,1551 605,1541 626,1532 647,1523 666,1514 684,1506 700,1499 715,1492 728,1485 739,1479 749,1474 756,1470 762,1466 765,1464 769,1467 775,1474 784,1484 796,1496 809,1512 825,1529 843,1549 862,1570 883,1593 904,1617 927,1642 950,1668 974,1694 999,1720 1023,1746 1047,1772 1102,1757 1077,1732 1051,1707 1024,1680 997,1653 970,1626 943,1599 917,1573 891,1548 868,1525 846,1503 826,1484 809,1467 795,1454 785,1444 778,1437 776,1435 757,1441 733,1449 705,1458 674,1468 640,1479 603,1491 564,1504 524,1516 483,1530 441,1543 400,1556 360,1569 321,1582 283,1594 248,1606 216,1616 220,1608 228,1590 241,1563 258,1529 277,1489 299,1445 321,1397 345,1348 368,1298 390,1249 410,1203 428,1161 443,1123 455,1093 461,1070 462,1057 460,1054 454,1045 444,1030 431,1011 415,987 397,960 376,929 354,896 330,860 305,823 279,784 252,745 226,705 199,667 174,629 149,592 141,661"/>
<polygon class="pen1 brush2" points="190,485 178,483 166,481 153,480 140,478 127,476 114,474 101,472 89,470 76,467 64,465 52,463 40,461 29,459 19,456 9,454 0,452 141,661 149,592 144,585 139,576 133,567 126,557 119,547 113,538 108,530 103,523 109,525 116,527 124,530 132,532 140,534 148,536 155,538 161,540 190,485"/>
<polygon class="pen1 brush2" points="1102,1757 1115,1770 1129,1784 1143,1798 1157,1811 1169,1823 1181,1835 1190,1844 1197,1852 1198,1839 1200,1810 1201,1771 1203,1726 1275,1688 1275,1781 1273,1867 1271,1934 1269,1971 1260,1966 1251,1960 1240,1953 1228,1944 1216,1933 1202,1922 1188,1910 1173,1896 1158,1882 1143,1867 1127,1852 1111,1837 1095,1821 1079,1804 1063,1788 1047,1772 1102,1757"/>
<polygon class="pen1 brush0" points="1275,1688 1274,1562 1272,1437 1273,1330 1278,1256 1407,1182 1424,1122 1406,1133 1389,1144 1371,1155 1354,1165 1338,1176 1322,1186 1307,1195 1293,1204 1281,1213 1269,1220 1259,1227 1250,1232 1243,1237 1238,1240 1235,1242 1234,1243 1228,1263 1222,1303 1217,1360 1213,1427 1210,1503 1207,1580 1205,1656 1203,1726 1275,1688"/>
<polygon class="pen1 brush0" points="1517,779 1274,702 1274,702 1276,703 1278,705 1281,707 1286,710 1292,713 1299,717 1308,722 1319,728 1331,734 1345,742 1361,750 1379,759 1399,769 1421,779 1446,791 1451,793 1459,797 1467,801 1476,805 1484,809 1492,813 1500,817 1505,819 1517,779"/>
<polygon class="pen1 brush0" points="1054,774 1080,763 1104,756 1125,752 1145,752 1163,756 1180,761 1194,770 1207,780 1219,791 1229,804 1237,818 1244,832 1249,846 1253,860 1256,874 1258,886 1257,883 1253,874 1246,861 1236,846 1223,830 1206,813 1186,799 1163,788 1155,786 1147,784 1139,782 1131,781 1122,781 1112,781 1103,782 1093,783 1082,785 1072,788 1061,792 1049,797 1038,802 1025,808 1013,816 1000,824 1054,774"/>
<polygon class="pen1 brush0" points="646,778 659,799 673,816 688,831 705,841 722,850 739,855 756,859 773,861 789,862 803,861 817,860 829,858 838,856 846,854 850,853 852,852 852,838 846,820 839,803 833,793 820,779 808,768 797,760 785,753 773,748 761,745 747,742 732,739 723,738 712,738 701,739 689,740 677,743 666,746 656,750 647,754 649,754 654,753 663,752 674,752 687,752 703,753 720,755 738,759 730,761 724,765 719,770 715,777 714,789 717,800 725,809 737,816 743,818 749,818 755,817 761,816 767,813 771,809 775,805 778,799 779,791 778,783 775,776 770,769 789,777 804,787 816,800 826,813 832,826 837,836 839,843 840,846 833,845 825,845 814,845 802,845 789,844 776,843 763,841 751,838 730,830 711,821 693,811 677,801 664,792 654,785 648,780 646,778"/>
<polygon class="pen1 brush0" points="1181,860 1167,852 1155,846 1143,840 1130,836 1117,834 1103,832 1086,833 1067,835 1063,836 1057,839 1049,843 1040,847 1032,852 1024,858 1018,863 1015,868 1016,869 1019,874 1023,880 1029,888 1037,897 1046,907 1057,917 1070,927 1084,936 1100,944 1117,951 1135,956 1154,958 1175,957 1198,953 1221,945 1218,945 1210,945 1198,944 1182,943 1164,941 1144,937 1123,931 1102,923 1090,917 1079,911 1068,903 1058,895 1049,888 1040,881 1033,875 1028,871 1030,869 1037,865 1047,860 1060,855 1076,851 1093,849 1112,851 1132,858 1123,860 1116,864 1110,869 1106,876 1104,888 1108,899 1115,909 1127,916 1133,918 1140,919 1146,918 1152,917 1158,914 1162,910 1166,906 1169,900 1170,893 1170,886 1168,878 1164,872 1180,881 1194,890 1206,900 1216,908 1224,916 1230,922 1234,926 1235,927 1231,918 1226,909 1220,899 1213,890 1205,881 1197,873 1189,866 1181,860"/>
<polygon class="pen1 brush0" points="994,1082 989,1079 984,1076 979,1075 974,1074 969,1074 964,1075 958,1076 952,1077 954,1078 959,1080 966,1083 974,1087 983,1093 990,1099 994,1107 996,1116 993,1136 985,1147 972,1151 958,1151 944,1147 932,1143 923,1139 919,1138 917,1143 915,1149 913,1155 910,1161 906,1168 901,1173 894,1178 885,1182 862,1185 845,1182 833,1175 824,1164 819,1152 815,1141 813,1131 811,1124 799,1122 788,1118 780,1113 774,1105 771,1097 770,1088 772,1080 777,1071 805,1033 830,991 851,949 869,908 882,873 892,844 898,825 900,818 878,745 863,721 848,701 832,686 816,674 799,666 783,661 766,659 750,660 734,663 718,668 704,674 690,682 677,690 666,699 656,708 647,717 650,715 658,711 671,705 687,699 707,694 729,691 753,691 778,696 793,702 808,710 823,720 837,734 851,750 864,770 877,794 888,821 887,829 884,839 880,851 874,865 868,881 860,897 851,914 842,931 826,959 809,987 792,1013 777,1037 763,1058 752,1074 745,1085 742,1091 742,1101 744,1111 748,1120 753,1128 760,1135 770,1140 782,1143 796,1144 797,1158 803,1176 812,1193 822,1205 832,1211 842,1215 852,1217 862,1218 872,1218 881,1216 889,1213 896,1210 901,1207 906,1204 911,1199 917,1194 922,1189 927,1184 930,1179 933,1174 935,1174 941,1174 948,1176 958,1177 968,1178 979,1177 989,1174 998,1169 1008,1157 1014,1144 1016,1131 1014,1118 1011,1106 1005,1096 1000,1088 994,1082"/>
<polygon class="pen1 brush0" points="896,1252 886,1251 875,1251 864,1252 854,1254 845,1256 838,1257 833,1259 831,1259 824,1252 818,1246 810,1241 802,1237 796,1235 790,1233 784,1233 777,1234 761,1237 742,1237 721,1236 701,1231 681,1225 666,1216 655,1204 651,1191 651,1194 651,1203 654,1215 662,1228 676,1241 699,1251 733,1257 779,1256 786,1256 791,1257 797,1259 802,1262 806,1265 811,1269 816,1273 822,1277 824,1277 829,1277 837,1276 847,1275 857,1275 867,1275 876,1275 884,1276 891,1279 899,1284 908,1290 918,1298 929,1306 941,1313 953,1319 967,1323 954,1325 942,1327 929,1328 917,1330 904,1331 892,1333 879,1333 866,1334 853,1333 840,1333 827,1331 813,1328 798,1325 784,1321 769,1316 753,1309 744,1304 734,1297 722,1290 711,1282 700,1276 692,1270 685,1266 683,1264 683,1266 685,1271 688,1280 693,1290 700,1302 710,1315 724,1327 742,1339 759,1348 776,1355 793,1360 811,1364 828,1366 847,1366 865,1365 884,1362 904,1358 924,1353 945,1347 966,1340 989,1332 1012,1323 1036,1313 1061,1303 1059,1303 1055,1304 1048,1305 1040,1306 1029,1308 1017,1309 1004,1309 990,1309 976,1307 962,1305 948,1301 935,1295 923,1288 912,1278 903,1266 896,1252"/>
</g>
</svg>