<?xml version="1.0" encoding="utf-8"?>
<!DOCTYPE svg PUBLIC "-//W3C//DTD SVG 1.0//EN" "http://www.w3.org/TR/2001/REC-SVG-20010904/DTD/svg10.dtd">
<svg aria-labelledby="title desc" fill-rule="evenodd" height="1.238in" preserveAspectRatio="none" stroke-linecap="round" viewBox="0 0 1984 1238" width="1.984in" xmlns="http://www.w3.org/2000/svg" xmlns:xlink="http://www.w3.org/1999/xlink"><title>automobiles,autos,cars,Come Back Soon,English,farewells,good wishes,hills,hospitality,landscapes,mountains,nature,phrases,roads,signs,sun,sunsets,transportation,words</title><desc>Original keywords: automobiles,autos,cars,Come Back Soon,English,farewells,good wishes,hills,hospitality,landscapes,mountains,nature,phrases,roads,signs,sun,sunsets,transportation,words. This clipart was ripped from the Microsoft website, then uploaded to https://archive.org/details/MS_Clipart_Collection. (The original WMF file can be found within that item, under the folder MC900104732). From there, it was then converted by Trumad to svg using https://github.com/hidekatsu-izuno/wmf2svg in a bulk operation. All the converted files can be found at https://archive.org/details/MS_Clipart_Collection_SVG</desc>
<style type="text/css">
.brush0 { fill: rgb(255,255,255); }
.pen0 { stroke: rgb(0,0,0); stroke-width: 1; stroke-linejoin: round; }
.brush1 { fill: none; }
.pen1 { stroke: none; }
.brush2 { fill: rgb(127,127,255); }
.brush3 { fill: rgb(242,204,12); }
.brush4 { fill: rgb(53,193,96); }
.brush5 { fill: rgb(178,178,178); }
.brush6 { fill: rgb(0,216,40); }
.brush7 { fill: rgb(0,0,0); }
.brush8 { fill: rgb(255,22,33); }
.brush9 { fill: rgb(0,145,0); }
.brush10 { fill: rgb(140,140,140); }
</style>
<g>
<polygon class="pen1 brush2" points="1752,1059 1752,1045 1751,1031 1751,1017 1750,1003 1747,979 1744,955 1740,931 1735,908 1728,879 1720,850 1710,822 1700,794 1688,767 1675,741 1661,715 1646,690 1630,665 1613,642 1595,619 1577,597 1557,575 1537,555 1515,535 1493,516 1470,498 1446,481 1422,466 1397,451 1371,437 1345,424 1318,412 1290,401 1262,392 1234,384 1205,377 1175,371 1145,366 1115,363 1084,361 1053,360 1017,361 981,364 946,368 912,374 878,382 845,391 812,402 780,415 749,429 719,444 690,461 661,479 634,499 607,520 582,542 557,565 534,589 512,614 491,641 472,668 454,697 437,726 421,756 407,787 395,819 384,851 374,884 366,918 360,953 356,988 353,1023 352,1059 1752,1059"/>
<polygon class="pen1 brush3" points="1242,1215 1254,1199 1266,1181 1275,1163 1283,1144 1290,1124 1294,1103 1297,1081 1298,1059 1297,1034 1293,1010 1287,987 1279,964 1268,943 1256,923 1242,904 1226,887 1209,871 1190,857 1170,845 1148,834 1126,826 1102,820 1078,816 1053,815 1028,816 1003,820 980,826 957,834 936,845 915,857 896,871 879,887 863,904 849,923 837,943 826,964 818,987 812,1010 808,1034 807,1059 808,1079 810,1098 814,1117 819,1135 826,1153 834,1170 843,1187 853,1202 1242,1215"/>
<polygon class="pen1 brush4" points="1711,1233 1711,1025 1708,1019 1699,1005 1685,983 1667,958 1645,932 1620,907 1593,886 1565,873 1539,869 1519,874 1502,885 1488,898 1475,912 1463,923 1451,928 1437,924 1424,916 1415,910 1409,905 1403,901 1396,898 1386,896 1373,894 1354,893 1342,894 1329,898 1314,904 1299,912 1284,922 1268,933 1253,945 1238,957 1223,970 1210,982 1198,994 1187,1004 1178,1012 1172,1019 1167,1023 1166,1025 919,1025 916,1019 906,1003 891,980 873,953 850,925 826,898 801,876 775,861 763,858 747,859 728,861 707,866 683,873 657,882 629,892 601,903 572,915 543,928 515,941 487,953 461,966 437,977 415,988 395,998 386,1012 378,1041 371,1079 365,1121 360,1163 357,1200 355,1225 354,1235 1711,1233"/>
<polygon class="pen1 brush5" points="918,1024 922,1025 932,1027 947,1031 964,1037 981,1045 995,1054 1005,1065 1008,1078 1005,1093 998,1108 988,1122 978,1135 967,1147 958,1155 951,1161 949,1163 1192,1164 1194,1162 1199,1157 1206,1148 1214,1138 1220,1126 1223,1113 1222,1099 1216,1085 1203,1072 1187,1060 1167,1050 1147,1041 1127,1034 1109,1028 1095,1025 1085,1024 918,1024"/>
<polygon class="pen1 brush6" points="1751,1238 1751,1140 1746,1140 1734,1139 1714,1138 1688,1136 1656,1135 1622,1133 1584,1131 1545,1129 1506,1127 1467,1126 1430,1124 1397,1123 1367,1122 1343,1122 1325,1122 1314,1123 1301,1127 1287,1132 1274,1139 1262,1146 1252,1152 1243,1158 1238,1162 1236,1163 960,1164 958,1163 954,1159 948,1153 940,1147 930,1139 920,1132 909,1126 899,1121 887,1119 865,1119 835,1119 798,1121 756,1124 710,1128 661,1131 612,1136 563,1140 515,1145 471,1149 432,1153 399,1156 374,1159 358,1160 352,1161 353,1236 1751,1238"/>
<polygon class="pen1 brush7" points="150,896 149,894 147,887 144,879 141,871 137,864 134,857 129,850 125,844 120,838 115,832 109,826 104,821 99,817 94,814 89,811 84,809 80,807 75,806 71,806 67,806 63,808 59,810 56,813 54,816 52,820 51,825 51,837 53,850 57,864 64,879 70,890 77,900 84,911 92,921 101,931 110,940 120,950 131,959 142,968 153,975 164,982 174,987 184,992 194,996 204,999 214,1001 219,1001 224,1001 228,1001 233,1000 237,998 242,996 246,994 250,991 257,984 263,976 267,967 270,957 271,946 270,935 268,924 264,913 259,902 253,892 246,883 236,874 234,872 232,870 231,869 231,867 232,865 234,862 237,858 241,853 245,848 249,845 252,844 254,844 257,845 260,848 265,852 271,858 280,869 288,881 294,893 299,907 303,921 305,935 305,950 304,964 302,974 299,984 295,993 291,1001 286,1009 281,1015 275,1021 268,1026 261,1030 254,1034 247,1036 240,1038 232,1039 225,1040 218,1040 211,1039 198,1037 184,1033 171,1028 158,1023 145,1016 132,1008 119,999 107,989 95,978 83,968 73,957 63,945 54,934 46,922 38,910 32,897 24,877 19,858 17,839 18,821 20,808 25,796 31,787 39,779 43,776 47,773 52,771 56,769 61,768 66,768 71,768 76,768 82,769 88,770 94,772 100,775 105,778 111,781 117,785 123,789 129,793 134,798 139,803 144,808 149,813 153,818 158,824 162,830 169,843 176,856 182,871 187,887 190,897 192,904 193,910 193,913 192,914 192,914 192,914 191,915 190,916 189,916 188,916 187,916 184,915 181,914 177,913 174,911 152,902 152,901 151,900 151,898 150,896"/>
<polygon class="pen1 brush7" points="224,815 228,817 232,820 236,823 240,825 245,828 250,830 254,832 259,834 266,836 272,838 278,840 284,840 290,841 295,840 300,840 304,838 312,834 320,827 326,818 332,806 335,797 337,788 338,779 337,771 336,763 333,753 328,744 323,733 326,730 327,728 328,726 329,723 330,717 330,707 330,695 329,686 302,667 302,670 302,680 302,691 302,698 301,700 301,704 301,707 300,709 295,705 291,702 287,700 284,699 281,698 277,697 273,697 269,697 266,690 261,684 256,680 250,676 246,675 242,674 238,674 234,674 230,674 226,675 222,676 218,678 210,683 203,690 197,698 192,708 187,725 187,743 189,761 196,780 202,790 208,799 216,807 224,815 241,780 238,776 235,772 232,768 229,764 224,753 222,742 221,733 223,725 225,721 227,718 230,716 233,714 236,713 240,713 244,713 248,715 249,715 251,716 253,717 255,718 255,724 256,729 258,734 259,738 262,741 265,744 269,746 273,748 278,750 284,750 291,751 298,750 301,757 303,763 304,768 305,772 305,776 304,779 303,783 302,787 300,791 298,795 294,798 290,800 285,801 280,801 275,800 269,798 263,794 255,789 247,784 241,780 224,815"/>
<polygon class="pen1 brush7" points="278,575 299,547 302,553 313,573 319,585 323,593 328,601 332,609 336,617 340,625 344,633 348,641 352,649 357,658 344,611 341,600 339,587 336,572 334,554 333,537 332,523 332,512 333,503 333,498 335,494 336,490 339,487 341,484 343,482 345,481 348,481 350,481 353,481 355,482 357,483 359,485 362,488 365,492 368,497 370,501 373,507 377,514 382,523 387,534 393,547 400,562 408,578 406,569 403,561 401,553 400,546 398,539 391,504 388,489 387,473 386,458 386,442 387,432 389,424 392,417 395,412 397,410 399,408 401,407 404,406 406,406 409,407 412,408 415,410 417,412 420,415 422,419 425,424 429,431 433,439 437,447 442,455 446,464 451,473 457,482 462,492 465,496 467,499 468,502 469,503 470,503 471,503 471,504 472,504 473,504 473,503 473,503 474,502 477,491 479,470 479,442 476,414 499,461 500,478 501,493 501,505 499,516 497,526 495,535 491,542 487,549 484,552 481,554 478,556 474,557 471,558 468,557 465,557 463,555 458,550 452,540 444,527 436,509 428,492 423,483 420,477 418,473 416,470 415,469 413,469 412,471 412,475 413,482 414,491 420,531 421,541 427,587 429,603 429,616 427,625 425,631 423,633 422,634 420,635 418,635 416,635 415,635 413,635 411,634 407,629 401,620 394,608 386,593 385,590 372,565 367,557 361,545 359,542 358,542 357,543 357,545 357,548 358,552 362,575 366,601 372,639 375,663 376,681 375,694 372,702 371,703 369,704 367,705 365,705 363,705 361,705 359,704 357,703 352,698 346,688 339,673 329,653 324,641 327,662 327,664 328,667 328,670 328,674 329,686 329,694 302,673 302,663 302,654 302,646 301,639 299,631 298,622 296,612 293,601 290,595 286,589 282,582 278,575"/>
<polygon class="pen1 brush7" points="545,421 548,417 551,412 554,408 556,404 562,391 567,379 569,368 570,357 569,347 568,338 565,330 560,323 555,318 550,315 544,312 538,311 531,311 525,313 518,316 511,321 505,326 499,332 494,339 489,346 485,354 481,362 478,371 475,380 471,403 473,425 480,446 492,465 496,470 500,474 505,478 509,481 514,484 519,486 524,487 529,488 534,488 539,488 544,486 549,485 555,482 560,479 566,476 572,471 580,464 587,457 593,449 597,440 601,430 606,417 610,401 614,382 593,356 589,377 586,394 582,408 578,418 574,426 569,434 564,440 558,445 553,449 548,451 544,453 540,453 536,453 533,451 529,449 525,446 530,440 536,433 541,426 545,421 530,397 526,403 521,410 516,418 510,424 507,411 506,399 506,387 508,377 510,368 513,360 517,354 521,350 523,349 526,348 528,348 530,348 532,348 534,349 536,351 538,353 540,357 542,362 542,368 541,374 539,379 537,385 534,391 530,397 545,421"/>
<polygon class="pen1 brush7" points="755,359 715,372 719,344 721,324 724,301 726,276 728,249 729,234 734,177 740,131 746,96 752,73 755,64 759,57 764,50 770,44 776,38 783,34 790,30 798,27 805,25 811,24 817,23 824,23 829,24 835,25 841,27 846,30 851,33 856,37 860,42 864,47 868,53 871,60 874,68 877,76 882,93 884,109 883,124 879,138 876,145 873,152 869,158 865,164 860,169 854,174 848,179 841,184 838,186 836,188 834,190 833,191 832,192 832,193 832,195 832,196 832,197 833,197 834,198 835,199 837,199 839,199 842,199 846,199 853,198 859,198 865,198 870,198 875,199 880,200 884,201 888,203 895,208 901,214 905,222 909,231 912,248 911,263 905,278 895,291 888,298 881,304 871,310 861,316 850,322 837,328 822,334 807,339 798,342 791,343 786,344 782,344 780,343 779,341 779,338 779,335 780,331 780,328 781,327 781,325 781,323 781,321 781,317 781,314 781,311 782,310 783,309 783,309 783,308 784,308 824,295 832,292 839,289 845,286 851,283 856,280 861,276 865,273 868,269 872,263 874,257 874,252 873,246 871,242 869,239 866,237 863,235 859,233 853,232 845,232 836,232 827,232 819,231 813,230 808,227 804,224 801,220 798,216 796,211 794,205 794,199 795,193 797,187 800,181 805,175 812,168 820,160 828,152 835,145 839,138 842,131 844,121 845,110 843,99 840,87 837,79 834,73 830,68 826,64 821,62 816,60 811,60 806,61 800,64 795,68 791,74 787,82 781,103 776,136 771,182 767,241 765,272 762,300 760,326 757,349 755,359"/>
<polygon class="pen1 brush7" points="1039,248 1037,250 1035,252 1033,255 1031,258 1027,263 1023,268 1019,273 1015,277 1012,281 1008,285 1004,288 1001,290 995,293 989,296 982,298 976,299 968,298 960,296 953,292 947,286 942,278 937,269 934,258 933,246 933,235 934,225 937,215 940,206 944,197 949,189 956,181 963,173 972,166 981,160 992,154 1003,149 1015,145 1029,142 1043,140 1058,139 1063,139 1069,139 1075,140 1081,140 1083,141 1088,166 1088,167 1088,167 1088,168 1088,168 1087,169 1087,169 1086,170 1085,170 1084,170 1083,170 1082,170 1081,169 1077,169 1074,168 1070,168 1066,168 1063,168 1059,168 1055,168 1051,168 1042,169 1033,170 1025,172 1017,175 1010,178 1003,182 997,186 991,191 982,202 976,214 972,228 971,242 972,248 973,253 974,257 976,260 978,262 981,264 983,265 985,265 993,264 1000,260 1008,254 1017,246 1025,235 1034,223 1043,208 1052,191 1088,189 1063,244 1062,247 1061,249 1061,251 1061,253 1061,254 1061,255 1061,256 1062,257 1063,257 1064,257 1065,258 1066,258 1068,258 1071,257 1073,255 1075,253 1078,251 1082,248 1086,245 1092,240 1098,234 1106,228 1114,220 1124,211 1125,245 1111,257 1098,267 1086,276 1076,283 1066,288 1057,292 1048,295 1041,296 1039,296 1036,295 1034,294 1032,292 1030,290 1028,288 1027,286 1027,284 1027,280 1029,275 1031,269 1034,261 1035,257 1037,254 1038,251 1039,248"/>
<polygon class="pen1 brush7" points="1266,239 1261,273 1252,278 1244,282 1236,286 1229,289 1222,292 1215,295 1209,297 1203,299 1197,300 1191,301 1186,302 1180,303 1175,303 1169,303 1164,302 1158,301 1151,300 1145,299 1140,297 1135,294 1130,292 1126,289 1123,286 1120,282 1115,273 1112,263 1112,251 1113,238 1115,228 1118,218 1121,209 1126,201 1131,193 1137,186 1144,179 1152,173 1160,168 1169,163 1178,160 1188,157 1197,155 1207,155 1218,155 1229,156 1235,157 1240,158 1245,159 1249,161 1253,163 1257,165 1260,167 1262,169 1265,173 1267,177 1268,181 1268,185 1268,187 1267,189 1266,191 1265,193 1258,206 1255,211 1253,215 1251,218 1249,219 1247,220 1243,220 1238,219 1232,218 1226,217 1223,217 1220,216 1218,216 1217,215 1216,214 1216,213 1216,212 1216,211 1216,209 1218,207 1219,205 1222,202 1225,199 1227,196 1228,193 1228,191 1228,189 1228,187 1227,186 1226,184 1224,182 1222,181 1220,180 1217,179 1212,179 1207,179 1202,180 1197,181 1192,183 1186,186 1181,190 1176,194 1167,204 1159,215 1154,228 1151,242 1150,249 1151,254 1152,260 1154,264 1157,267 1162,270 1167,272 1173,273 1177,274 1181,274 1185,274 1190,274 1194,273 1199,272 1203,271 1208,270 1213,268 1218,266 1225,263 1231,259 1239,255 1247,250 1256,245 1266,239"/>
<polygon class="pen1 brush7" points="1329,213 1376,160 1417,115 1424,107 1431,101 1437,94 1442,89 1446,85 1450,81 1453,78 1456,76 1460,73 1463,70 1467,68 1470,67 1473,67 1475,67 1478,67 1480,68 1483,69 1485,71 1486,73 1488,76 1489,79 1489,82 1489,85 1488,89 1485,95 1480,102 1472,111 1463,122 1452,134 1438,147 1423,162 1405,179 1393,190 1383,200 1373,210 1364,220 1355,228 1348,237 1341,245 1335,252 1346,245 1355,239 1364,234 1373,229 1380,225 1387,222 1393,220 1399,218 1405,217 1410,216 1415,216 1421,216 1426,216 1431,217 1436,218 1441,220 1449,224 1456,228 1461,233 1465,239 1467,245 1468,252 1467,259 1465,266 1461,274 1455,282 1448,288 1439,294 1434,296 1428,299 1421,301 1414,302 1405,303 1396,304 1386,305 1375,305 1372,308 1370,311 1369,313 1368,315 1367,317 1367,319 1367,320 1368,322 1369,323 1370,325 1372,326 1373,327 1376,328 1379,329 1382,329 1386,329 1390,330 1395,330 1399,329 1404,329 1409,328 1415,327 1422,325 1429,323 1436,321 1445,319 1454,316 1463,312 1451,344 1442,347 1433,349 1425,351 1417,353 1410,355 1403,356 1397,356 1391,357 1385,357 1380,357 1375,357 1370,356 1365,355 1360,354 1355,353 1350,351 1344,348 1339,345 1335,341 1332,336 1330,331 1330,326 1330,320 1332,314 1334,310 1336,306 1338,302 1341,298 1345,294 1350,289 1356,283 1364,277 1368,279 1373,280 1377,280 1382,281 1387,280 1392,279 1397,278 1403,276 1413,272 1421,268 1426,263 1429,258 1430,256 1430,253 1430,251 1429,249 1428,248 1427,246 1425,245 1423,244 1420,243 1417,242 1413,242 1410,242 1405,243 1401,244 1396,245 1391,246 1383,249 1374,253 1364,257 1354,262 1344,268 1333,275 1322,283 1310,291 1303,296 1297,300 1291,304 1286,307 1282,310 1278,312 1275,314 1272,315 1268,316 1263,316 1259,316 1255,315 1252,314 1250,313 1249,311 1248,310 1247,308 1247,307 1247,305 1247,304 1249,301 1252,297 1256,292 1262,286 1269,278 1273,274 1277,270 1281,265 1285,260 1261,273 1259,274 1257,275 1254,276 1251,277 1257,243 1262,242 1266,240 1270,237 1275,235 1279,233 1285,231 1291,229 1299,226 1306,223 1314,220 1322,217 1329,213"/>
<polygon class="pen1 brush7" points="1629,458 1627,456 1625,454 1623,451 1619,447 1615,443 1612,439 1610,436 1607,433 1605,431 1598,425 1591,420 1584,417 1577,415 1573,415 1569,415 1566,416 1564,418 1563,420 1563,422 1563,425 1564,429 1565,433 1568,437 1570,442 1574,447 1578,452 1583,457 1588,463 1594,469 1604,478 1613,485 1622,492 1630,497 1639,502 1647,506 1654,508 1662,510 1667,511 1671,511 1675,511 1679,510 1683,509 1687,507 1690,505 1693,502 1696,498 1698,494 1700,489 1700,485 1699,477 1697,468 1693,457 1688,444 1681,426 1677,410 1674,396 1674,384 1676,373 1679,362 1684,353 1691,345 1699,338 1707,332 1716,327 1726,323 1736,320 1747,318 1759,317 1772,317 1785,318 1798,321 1810,324 1822,329 1833,335 1844,342 1855,350 1866,359 1874,368 1880,376 1883,384 1885,392 1885,400 1883,407 1879,414 1874,421 1870,425 1866,428 1862,431 1857,433 1852,435 1847,437 1842,438 1836,439 1830,440 1824,440 1818,439 1812,438 1806,437 1799,435 1792,433 1785,431 1778,428 1772,425 1766,423 1761,420 1756,418 1752,415 1749,413 1746,410 1746,409 1746,409 1745,409 1745,408 1745,407 1746,406 1746,406 1746,405 1749,403 1752,400 1756,397 1761,393 1762,392 1764,391 1765,391 1765,390 1768,388 1770,387 1771,386 1773,386 1774,386 1775,386 1777,387 1779,388 1785,392 1791,395 1797,397 1803,399 1809,401 1815,402 1821,403 1827,403 1833,403 1839,402 1843,400 1846,398 1847,396 1848,395 1848,393 1848,391 1848,389 1847,386 1845,384 1843,382 1838,378 1832,374 1825,370 1818,366 1810,363 1802,360 1793,357 1783,355 1773,354 1764,353 1755,353 1747,354 1740,357 1733,360 1727,364 1721,369 1717,373 1715,377 1713,382 1712,387 1713,395 1715,405 1719,418 1724,433 1728,443 1733,459 1737,473 1738,485 1738,495 1737,503 1734,511 1729,519 1723,526 1719,530 1715,533 1711,537 1706,539 1701,542 1696,544 1691,546 1685,547 1679,548 1674,548 1668,548 1662,547 1655,546 1649,544 1643,542 1636,540 1627,536 1618,531 1609,526 1601,520 1592,514 1583,507 1574,499 1565,491 1557,483 1549,474 1543,466 1537,459 1533,451 1529,444 1527,437 1525,430 1524,420 1526,411 1530,403 1536,395 1541,391 1546,387 1551,384 1557,382 1563,381 1570,381 1577,382 1584,383 1591,385 1599,388 1606,392 1614,396 1621,402 1629,407 1637,414 1645,421 1650,426 1654,430 1657,434 1658,437 1658,438 1658,440 1658,441 1657,442 1652,446 1646,450 1638,454 1629,458"/>
<polygon class="pen1 brush7" points="1864,591 1865,592 1865,594 1865,595 1866,596 1867,602 1868,607 1868,613 1868,619 1866,627 1862,635 1857,641 1850,646 1844,649 1837,650 1830,650 1823,649 1820,653 1818,656 1815,658 1812,660 1809,662 1805,663 1800,665 1794,667 1795,668 1795,670 1795,671 1796,672 1798,674 1800,677 1803,679 1806,681 1810,683 1815,685 1820,687 1826,689 1798,707 1789,704 1782,701 1778,699 1775,697 1772,695 1770,693 1768,690 1766,688 1764,685 1763,681 1762,676 1761,671 1755,670 1750,669 1744,668 1739,667 1735,666 1730,664 1726,662 1722,660 1715,656 1709,650 1703,643 1697,635 1691,624 1688,613 1686,603 1687,594 1689,590 1691,585 1694,581 1698,576 1702,572 1707,568 1712,564 1718,560 1728,554 1738,549 1748,546 1758,543 1768,541 1778,540 1788,541 1798,542 1808,544 1818,548 1827,552 1836,558 1844,565 1851,573 1858,581 1864,591 1830,610 1829,601 1826,594 1823,588 1818,584 1813,581 1807,578 1801,576 1795,575 1788,575 1781,575 1774,576 1767,578 1760,580 1754,583 1747,586 1741,590 1736,593 1732,597 1729,601 1727,605 1726,609 1726,614 1728,618 1730,623 1732,626 1734,628 1737,631 1741,633 1745,635 1749,637 1755,639 1763,641 1766,635 1770,630 1775,625 1779,622 1783,620 1787,618 1791,617 1795,617 1799,618 1803,619 1808,622 1813,625 1816,624 1818,623 1819,622 1821,621 1824,619 1827,616 1829,613 1830,610 1864,591"/>
<polygon class="pen1 brush7" points="1883,690 1892,694 1901,699 1909,704 1915,710 1921,716 1927,723 1931,731 1935,739 1938,750 1940,760 1939,770 1937,779 1933,787 1928,793 1922,798 1914,802 1908,804 1901,804 1894,803 1887,800 1884,803 1881,805 1877,807 1874,809 1871,810 1867,810 1862,811 1856,812 1856,813 1858,815 1859,816 1859,818 1861,822 1864,827 1867,832 1871,836 1873,837 1874,839 1876,840 1877,842 1850,849 1845,846 1839,843 1834,840 1831,838 1829,836 1827,833 1825,830 1824,827 1823,824 1822,820 1822,815 1822,810 1816,808 1811,806 1806,804 1801,802 1797,799 1793,797 1789,795 1786,792 1780,786 1775,779 1770,772 1766,763 1762,751 1761,740 1762,729 1765,720 1767,716 1770,712 1774,708 1778,705 1783,701 1788,698 1794,695 1801,692 1811,689 1821,686 1832,684 1842,683 1853,684 1864,685 1874,687 1883,690 1870,724 1863,722 1856,720 1849,720 1842,720 1836,721 1829,722 1823,724 1817,726 1812,728 1807,731 1804,735 1801,739 1799,743 1799,747 1799,752 1801,756 1803,760 1804,763 1806,766 1809,769 1813,771 1817,774 1823,777 1830,781 1835,776 1839,771 1844,768 1849,765 1853,764 1858,763 1862,763 1866,763 1870,765 1874,767 1878,770 1882,775 1885,774 1887,773 1889,773 1890,772 1894,770 1898,768 1900,765 1902,762 1903,759 1904,755 1903,752 1902,748 1900,744 1897,740 1894,737 1891,734 1886,731 1881,728 1876,726 1870,724 1883,690"/>
<polygon class="pen1 brush7" points="1961,883 1966,917 1863,889 1866,891 1874,897 1884,905 1897,915 1909,924 1920,933 1928,939 1932,942 1944,951 1953,959 1961,967 1967,974 1973,980 1977,986 1980,992 1983,997 1984,1002 1984,1005 1984,1007 1983,1010 1982,1012 1980,1014 1979,1015 1977,1016 1975,1017 1968,1016 1956,1013 1939,1009 1920,1004 1901,999 1885,995 1873,992 1868,991 1867,991 1866,992 1865,992 1864,993 1864,994 1864,994 1864,995 1864,996 1865,999 1868,1003 1871,1008 1877,1013 1883,1020 1892,1027 1901,1035 1912,1044 1878,1048 1870,1041 1864,1035 1857,1029 1852,1023 1847,1018 1842,1013 1838,1009 1835,1005 1830,997 1827,989 1824,982 1822,974 1822,969 1822,965 1823,961 1825,958 1827,955 1829,953 1832,952 1835,951 1838,951 1841,951 1845,952 1849,952 1855,954 1861,955 1867,958 1875,960 1880,962 1887,964 1895,966 1905,969 1914,972 1922,974 1927,975 1930,976 1931,975 1930,974 1929,972 1926,970 1923,967 1919,963 1913,958 1907,953 1900,947 1896,944 1886,936 1872,924 1856,910 1840,896 1825,884 1814,874 1809,869 1808,867 1806,865 1805,863 1805,861 1805,859 1805,857 1806,856 1807,854 1808,853 1809,852 1811,851 1813,850 1816,850 1822,851 1830,853 1839,855 1848,856 1856,858 1863,859 1867,860 1840,843 1871,836 1878,842 1885,848 1892,853 1899,857 1906,862 1913,866 1919,870 1926,874 1931,875 1936,877 1940,878 1945,879 1949,880 1953,881 1957,882 1961,883"/>
<polygon class="pen1 brush8" points="136,875 135,874 133,866 130,858 127,851 124,843 120,836 116,829 111,823 106,817 101,811 95,806 90,801 85,797 80,793 75,790 70,788 66,786 61,785 57,785 53,786 49,787 45,789 42,792 40,796 38,800 37,804 37,816 39,830 43,844 50,859 56,870 63,880 71,890 79,900 87,910 97,920 106,929 117,938 128,947 139,954 150,961 160,966 170,971 180,975 190,978 200,980 205,981 210,981 214,980 219,979 223,978 228,976 232,973 236,970 243,963 249,956 254,947 256,936 257,925 256,914 254,903 251,892 246,881 240,871 232,862 222,853 220,851 218,849 217,848 217,847 218,844 220,841 223,837 227,833 231,828 235,825 238,824 241,823 243,824 247,827 251,831 257,837 267,848 275,860 281,873 286,886 289,900 291,914 291,929 290,943 288,953 286,963 282,972 278,980 273,988 268,994 261,1000 254,1005 247,1009 240,1013 233,1015 226,1018 218,1019 211,1020 204,1020 197,1019 184,1017 170,1013 157,1008 144,1003 131,996 118,988 105,979 93,969 81,958 70,947 59,936 50,925 41,913 33,901 25,889 19,877 10,857 5,837 3,818 4,800 7,787 12,776 18,766 25,758 29,755 33,752 38,750 42,748 47,747 52,747 57,747 62,748 68,749 74,750 80,752 86,755 92,757 98,761 103,764 109,768 115,773 120,777 126,782 131,787 135,792 140,798 144,804 148,810 155,823 162,836 168,851 173,866 176,876 178,883 179,889 179,892 179,893 178,893 178,894 177,894 176,895 176,895 175,895 174,895 170,894 167,893 163,892 160,891 138,881 138,881 137,879 137,878 136,875"/>
<polygon class="pen1 brush8" points="211,794 214,796 218,799 222,802 227,804 232,807 236,809 241,811 245,813 252,816 259,818 265,819 271,820 276,820 281,820 286,819 291,818 299,813 306,806 312,797 318,785 321,776 323,767 324,758 324,750 322,742 319,733 315,723 309,713 312,710 314,707 314,705 315,702 316,696 317,686 316,675 315,666 288,646 288,649 288,659 289,671 288,678 288,680 287,683 287,687 286,689 282,685 278,682 274,680 270,678 267,677 263,676 259,676 255,676 252,669 248,663 243,659 237,656 233,655 229,654 225,653 221,653 216,654 212,655 208,656 204,658 196,663 190,669 184,678 179,688 174,705 173,723 176,741 183,759 188,769 195,778 202,786 211,794 228,760 224,756 221,752 218,747 215,743 210,732 208,722 207,713 209,704 211,700 213,697 216,695 219,693 222,692 226,692 230,693 234,694 235,695 237,696 239,697 241,698 241,704 242,709 244,713 246,717 248,720 251,723 255,726 259,728 264,729 270,730 277,730 284,729 287,736 289,742 290,747 291,752 291,756 291,759 290,763 289,767 287,771 284,774 280,777 276,779 271,780 267,780 262,779 256,777 249,774 241,769 234,764 228,760 211,794"/>
<polygon class="pen1 brush8" points="264,555 285,526 288,532 299,552 306,565 310,573 315,581 319,589 323,597 327,605 331,613 335,620 339,628 343,638 330,590 327,579 325,566 322,551 320,534 319,517 318,502 318,491 319,482 320,478 321,473 323,469 325,466 327,464 330,462 332,461 334,460 336,460 339,460 341,461 343,463 346,465 349,468 351,472 354,476 356,480 359,486 363,494 368,503 374,514 380,527 387,541 395,557 392,548 390,540 388,532 386,525 384,519 377,484 374,468 373,452 372,437 372,421 373,412 375,404 378,397 381,391 383,389 385,387 387,386 390,386 393,386 396,386 398,387 401,389 403,391 406,394 409,399 411,404 415,411 419,419 423,427 428,435 432,444 437,453 443,462 448,472 451,476 453,479 454,481 456,482 457,483 457,483 457,483 458,483 459,483 459,482 460,482 460,482 463,471 466,449 466,422 463,394 485,440 487,457 487,472 487,485 486,496 484,505 481,514 477,521 473,528 470,531 467,534 464,536 461,537 457,537 454,537 451,536 449,535 444,529 438,520 430,506 422,488 414,472 409,463 406,457 404,452 402,449 401,448 399,448 399,450 399,454 399,461 400,470 406,510 407,520 413,567 415,583 415,595 414,605 411,611 410,612 408,613 407,614 405,615 403,615 401,615 399,614 397,613 393,608 387,600 381,588 373,573 371,569 358,545 354,536 347,524 345,521 344,521 343,522 343,524 343,527 344,531 348,555 352,580 358,619 361,642 362,660 361,673 358,681 357,682 356,683 354,684 352,685 350,685 348,685 346,684 344,683 339,678 333,667 325,652 316,632 310,620 313,641 314,643 314,646 314,649 314,653 315,666 315,673 288,653 288,643 288,634 288,626 287,618 286,610 284,601 282,591 280,580 276,575 272,569 268,562 264,555"/>
<polygon class="pen1 brush8" points="532,400 535,396 538,391 540,387 542,384 549,371 553,358 556,347 557,336 556,326 554,317 551,309 546,302 541,297 536,294 530,291 524,290 517,291 511,292 504,296 497,301 491,306 485,312 480,318 475,325 471,333 468,341 465,350 462,359 458,382 460,404 466,425 478,444 482,449 487,453 491,457 496,460 500,463 505,465 510,466 515,467 520,467 525,467 530,465 535,464 541,461 546,458 552,455 558,450 566,443 573,436 579,428 584,420 588,410 592,397 596,381 600,362 579,335 575,356 572,374 568,387 564,398 560,406 555,413 550,419 544,425 539,428 534,431 530,432 526,433 522,432 519,431 515,428 511,425 516,419 522,412 527,405 532,400 517,377 513,383 507,390 502,397 496,403 494,390 492,378 492,366 494,356 496,347 499,340 503,334 507,330 509,329 512,328 514,327 516,327 518,328 520,329 522,330 524,332 526,336 528,341 528,347 527,353 526,358 524,364 521,370 517,377 532,400"/>
<polygon class="pen1 brush8" points="741,339 702,352 705,323 708,303 710,280 713,255 715,228 716,213 721,156 726,110 732,76 738,52 742,44 746,36 751,29 756,23 762,18 769,13 776,9 784,6 791,4 797,3 803,2 810,2 815,3 821,4 827,6 832,9 837,12 842,16 846,21 850,27 854,33 858,40 861,47 864,55 868,72 870,89 869,104 866,118 863,125 860,131 856,137 851,143 846,148 841,154 834,159 827,164 824,166 822,168 820,169 819,171 818,172 818,173 818,174 818,175 819,176 820,177 820,177 821,178 823,179 825,179 828,179 832,178 839,177 845,177 851,177 856,177 861,178 866,179 870,181 874,183 881,188 887,194 891,202 895,210 898,227 897,242 892,257 882,271 875,277 867,284 858,290 847,296 836,301 823,307 808,313 793,318 784,321 777,322 772,324 768,324 766,323 766,321 766,318 766,314 766,310 767,308 767,306 767,304 767,302 767,300 767,296 768,293 768,291 768,289 769,288 770,288 770,287 771,287 811,274 819,271 825,269 832,266 838,262 843,259 847,256 851,252 855,248 858,243 860,237 860,231 859,226 858,222 856,219 853,216 849,214 845,213 839,212 832,211 822,211 813,211 805,210 799,209 794,207 790,204 787,200 784,195 782,190 780,184 780,178 781,172 783,166 786,160 791,154 798,147 806,139 815,132 821,124 826,117 828,110 830,100 831,90 830,79 827,67 824,59 820,52 816,47 812,43 807,41 803,40 798,40 793,41 787,43 782,48 777,54 773,61 767,82 762,115 757,161 753,220 751,252 748,280 746,306 743,329 741,339"/>
<polygon class="pen1 brush8" points="1025,227 1023,229 1021,232 1019,234 1017,237 1009,248 1001,257 994,264 988,269 981,273 975,276 969,277 962,278 954,277 946,275 939,271 933,265 928,257 923,248 920,238 919,225 919,215 920,205 923,195 926,185 930,177 935,168 942,160 949,152 958,145 967,139 978,133 989,129 1001,125 1015,122 1029,120 1044,119 1049,119 1055,119 1061,119 1068,120 1069,120 1075,145 1075,146 1075,146 1075,147 1074,148 1073,148 1073,148 1072,149 1071,149 1070,149 1069,149 1068,149 1067,149 1060,148 1053,147 1045,147 1038,147 1029,148 1020,149 1011,151 1004,154 996,157 990,161 984,165 978,170 968,182 962,194 959,207 958,221 958,227 959,232 961,236 963,239 965,241 967,243 969,244 972,244 979,243 987,239 995,233 1003,225 1011,215 1020,202 1029,187 1038,170 1074,169 1049,224 1048,226 1048,228 1047,231 1047,233 1047,234 1048,234 1048,235 1048,236 1049,237 1050,237 1051,237 1052,237 1054,237 1057,236 1059,234 1062,233 1065,231 1068,228 1072,224 1078,219 1084,213 1092,207 1100,199 1110,190 1112,224 1098,236 1085,246 1073,255 1062,262 1052,267 1043,271 1035,274 1028,275 1025,275 1023,274 1020,273 1018,272 1016,270 1015,267 1014,265 1014,263 1014,259 1015,254 1017,248 1020,240 1021,236 1023,233 1024,230 1025,227"/>
<polygon class="pen1 brush8" points="1253,218 1247,252 1238,257 1230,261 1222,265 1215,269 1208,272 1201,274 1195,276 1189,278 1183,279 1178,280 1172,281 1167,282 1161,282 1155,282 1150,282 1144,281 1137,280 1131,278 1126,276 1121,274 1116,271 1112,268 1109,265 1106,261 1102,253 1099,242 1098,230 1099,217 1101,207 1104,197 1107,188 1112,180 1117,172 1123,165 1130,158 1138,152 1146,147 1155,142 1164,139 1174,136 1184,134 1194,134 1205,134 1216,135 1221,136 1227,137 1231,139 1236,140 1239,142 1243,144 1246,147 1249,149 1252,152 1253,156 1254,160 1254,164 1254,166 1253,168 1252,170 1251,172 1244,185 1241,190 1239,194 1237,197 1235,198 1233,199 1230,199 1225,199 1219,198 1212,197 1209,196 1206,195 1204,195 1203,194 1202,193 1202,192 1202,192 1202,191 1202,189 1204,186 1205,184 1208,181 1211,178 1213,175 1214,173 1214,171 1214,169 1214,167 1213,165 1212,163 1210,162 1208,160 1206,159 1203,159 1198,159 1193,159 1188,160 1183,161 1178,163 1172,166 1167,170 1162,174 1153,184 1146,195 1140,207 1137,222 1137,228 1137,234 1138,239 1140,243 1143,246 1148,249 1153,251 1159,253 1163,253 1167,253 1171,253 1176,253 1180,252 1185,251 1189,250 1194,249 1199,247 1204,245 1211,242 1218,238 1226,234 1234,229 1243,224 1253,218"/>
<polygon class="pen1 brush8" points="1315,193 1364,140 1403,94 1410,86 1417,80 1423,74 1428,68 1432,64 1436,60 1439,57 1442,55 1446,52 1450,49 1453,48 1456,47 1459,46 1462,46 1464,46 1466,47 1469,49 1471,50 1473,52 1474,55 1475,58 1476,61 1475,64 1474,68 1471,74 1466,82 1458,91 1449,101 1438,113 1424,127 1409,142 1391,159 1380,170 1369,180 1359,190 1350,199 1342,208 1334,217 1327,225 1321,232 1332,225 1341,219 1351,213 1359,208 1367,205 1374,201 1380,199 1386,197 1391,196 1397,195 1402,195 1407,195 1412,196 1418,197 1423,198 1428,200 1436,204 1442,208 1447,213 1451,219 1453,225 1454,232 1453,238 1451,245 1447,253 1442,261 1434,267 1426,273 1421,276 1415,278 1408,280 1400,282 1392,283 1382,284 1373,285 1362,285 1359,288 1357,290 1355,293 1354,295 1353,297 1353,298 1353,300 1354,302 1355,303 1356,304 1358,305 1360,306 1363,307 1366,308 1370,308 1373,309 1377,309 1381,309 1385,309 1390,308 1395,307 1401,306 1408,305 1415,303 1423,301 1431,298 1440,295 1450,291 1437,323 1428,326 1420,328 1412,331 1404,333 1397,334 1390,336 1383,336 1377,337 1372,337 1367,337 1361,336 1356,335 1351,334 1346,333 1341,332 1336,330 1330,327 1325,324 1321,320 1318,316 1316,311 1316,305 1316,300 1318,294 1320,290 1322,286 1324,282 1327,278 1331,274 1336,269 1342,263 1350,257 1355,258 1359,259 1364,260 1368,260 1373,260 1378,259 1384,258 1389,256 1399,251 1407,247 1412,242 1415,237 1416,235 1416,233 1416,231 1415,229 1414,227 1413,225 1411,224 1409,223 1406,222 1403,221 1399,221 1396,221 1391,222 1387,223 1382,224 1377,226 1369,229 1360,233 1350,237 1340,242 1330,248 1319,255 1308,262 1297,270 1290,275 1283,279 1277,283 1272,286 1268,289 1264,291 1261,293 1258,294 1254,296 1249,296 1245,296 1241,295 1239,294 1237,292 1235,291 1234,290 1233,288 1233,286 1233,285 1234,283 1235,280 1238,276 1243,271 1248,265 1255,258 1259,253 1263,249 1268,244 1272,239 1247,252 1245,253 1243,254 1240,255 1237,256 1244,222 1249,221 1253,219 1256,216 1261,214 1265,212 1271,210 1278,208 1285,205 1293,203 1300,200 1308,196 1315,193"/>
<polygon class="pen1 brush8" points="1616,438 1614,436 1612,434 1609,430 1605,427 1601,422 1598,418 1596,415 1593,413 1591,411 1584,404 1577,399 1570,396 1563,394 1559,394 1556,394 1553,395 1551,397 1550,399 1549,401 1549,404 1550,408 1551,412 1554,417 1557,421 1560,426 1564,431 1569,437 1574,442 1580,448 1590,457 1599,464 1608,471 1616,476 1625,481 1633,485 1640,488 1648,490 1653,491 1657,491 1662,490 1666,489 1670,488 1673,486 1676,484 1679,481 1682,477 1684,473 1686,469 1686,464 1685,457 1683,448 1680,437 1675,424 1668,406 1664,390 1661,375 1661,363 1663,352 1666,342 1670,333 1677,324 1685,317 1693,311 1702,306 1712,302 1722,299 1733,298 1745,297 1758,297 1771,298 1784,300 1796,304 1808,308 1820,314 1831,321 1842,329 1852,339 1860,347 1866,355 1870,363 1871,371 1871,379 1869,386 1865,393 1860,400 1856,404 1853,407 1848,410 1844,412 1839,414 1834,416 1829,417 1823,418 1817,419 1811,419 1805,418 1798,417 1792,416 1785,414 1778,412 1771,410 1764,407 1758,405 1752,402 1747,399 1742,397 1738,394 1735,392 1732,389 1732,389 1732,388 1731,388 1731,387 1731,386 1732,386 1732,386 1733,385 1735,383 1738,380 1742,377 1747,373 1748,372 1750,371 1751,370 1752,369 1754,368 1756,366 1757,365 1759,365 1761,365 1762,366 1764,366 1765,367 1771,371 1778,374 1784,376 1790,378 1796,380 1802,381 1807,382 1813,383 1819,383 1825,381 1829,380 1832,377 1833,376 1834,374 1834,372 1834,370 1834,368 1833,365 1831,363 1829,361 1824,357 1818,353 1811,349 1804,345 1796,342 1788,339 1779,337 1769,335 1759,333 1750,333 1741,333 1733,334 1726,336 1719,339 1713,343 1707,348 1704,352 1701,357 1700,361 1699,366 1700,374 1702,385 1706,398 1711,413 1714,423 1719,439 1723,452 1725,464 1725,474 1723,483 1720,491 1715,498 1709,506 1705,510 1701,513 1697,516 1692,519 1687,521 1682,523 1677,525 1671,526 1665,527 1660,527 1654,527 1648,527 1641,526 1635,524 1629,522 1622,519 1613,515 1605,510 1596,505 1587,499 1578,493 1569,486 1560,478 1551,470 1543,462 1535,454 1529,446 1524,438 1519,430 1515,423 1513,416 1511,409 1511,399 1512,390 1516,382 1522,375 1527,371 1532,367 1537,364 1543,362 1549,361 1556,361 1563,362 1570,363 1578,365 1585,368 1593,372 1600,376 1608,381 1615,387 1623,394 1631,401 1636,406 1640,410 1643,413 1644,416 1644,417 1644,419 1644,420 1643,421 1639,425 1633,429 1625,434 1616,438"/>
<polygon class="pen1 brush8" points="1850,570 1851,571 1851,573 1852,574 1852,576 1854,581 1855,587 1855,593 1854,598 1852,606 1848,614 1843,620 1836,625 1830,628 1823,629 1816,629 1809,628 1806,632 1804,635 1801,638 1798,640 1795,641 1791,643 1787,644 1781,646 1781,647 1782,649 1782,650 1782,651 1784,654 1786,656 1789,658 1793,660 1797,662 1801,664 1807,666 1813,668 1784,686 1775,683 1768,680 1764,678 1761,676 1758,674 1756,672 1754,670 1752,667 1750,664 1749,660 1748,655 1747,650 1741,649 1736,649 1730,648 1725,646 1721,645 1716,644 1712,642 1708,640 1701,635 1695,629 1689,623 1683,615 1677,604 1674,593 1673,583 1674,573 1675,569 1678,564 1680,560 1684,556 1688,551 1693,547 1698,543 1704,539 1714,533 1724,528 1734,525 1745,522 1755,520 1765,519 1775,520 1785,521 1795,523 1804,527 1813,532 1822,538 1830,544 1838,552 1844,561 1850,570 1816,589 1815,580 1812,573 1809,568 1805,563 1799,560 1794,558 1788,556 1781,555 1774,555 1767,555 1760,556 1753,557 1746,559 1740,562 1733,565 1727,569 1722,572 1718,576 1715,581 1713,585 1713,589 1713,593 1714,598 1716,602 1718,605 1721,608 1724,611 1727,613 1731,615 1736,616 1742,618 1749,620 1753,614 1757,609 1761,604 1765,601 1769,599 1773,597 1777,596 1781,596 1786,597 1790,599 1795,601 1800,604 1802,603 1804,602 1806,601 1807,601 1810,598 1813,595 1815,592 1816,589 1850,570"/>
<polygon class="pen1 brush8" points="1870,669 1879,673 1887,678 1895,683 1902,689 1908,695 1913,702 1917,710 1921,718 1925,729 1926,739 1926,749 1923,758 1919,766 1914,772 1908,777 1901,781 1894,783 1887,783 1880,782 1873,779 1870,782 1867,785 1864,787 1861,788 1857,789 1853,790 1848,791 1842,791 1842,793 1844,794 1845,796 1845,797 1847,802 1850,806 1853,811 1857,815 1859,816 1860,818 1862,819 1863,821 1836,829 1831,825 1825,822 1820,819 1817,817 1815,815 1813,812 1812,809 1810,806 1809,803 1808,799 1808,794 1809,789 1803,787 1798,785 1793,783 1788,781 1783,779 1779,777 1776,775 1772,772 1766,766 1761,759 1756,751 1752,742 1748,730 1747,719 1748,709 1751,700 1753,696 1756,692 1760,688 1764,684 1769,681 1774,678 1780,675 1787,672 1797,669 1807,666 1818,664 1829,663 1840,663 1850,664 1860,666 1870,669 1856,703 1849,701 1842,700 1835,699 1829,699 1822,700 1816,701 1810,703 1804,705 1798,708 1794,711 1790,714 1788,718 1786,722 1786,727 1786,731 1787,736 1789,740 1791,743 1793,746 1796,748 1799,751 1803,754 1809,757 1816,760 1821,755 1826,750 1830,747 1835,744 1839,743 1844,742 1848,742 1852,743 1856,744 1860,747 1865,750 1869,754 1871,753 1873,753 1875,752 1876,752 1880,750 1884,747 1886,745 1888,742 1889,739 1890,735 1889,731 1888,727 1886,723 1884,720 1881,716 1877,713 1873,710 1868,707 1862,705 1856,703 1870,669"/>
<polygon class="pen1 brush8" points="1948,862 1953,896 1849,869 1852,871 1860,877 1871,885 1883,895 1896,904 1907,912 1915,918 1919,921 1930,931 1939,939 1947,946 1953,953 1959,959 1963,966 1966,971 1969,977 1970,982 1970,984 1970,986 1969,989 1968,991 1966,993 1965,995 1963,996 1961,996 1955,995 1942,992 1925,988 1906,983 1887,979 1871,975 1859,972 1854,971 1853,971 1852,971 1851,971 1851,972 1850,973 1850,974 1850,975 1850,976 1851,979 1854,982 1857,987 1863,992 1869,999 1878,1006 1887,1014 1898,1023 1864,1028 1856,1021 1850,1015 1843,1009 1838,1003 1833,998 1829,993 1825,988 1822,984 1817,976 1813,968 1810,961 1809,953 1808,949 1809,945 1809,941 1811,938 1813,935 1816,933 1818,932 1821,931 1824,931 1827,931 1831,932 1835,932 1841,934 1847,935 1853,938 1861,940 1866,941 1873,943 1882,946 1891,949 1900,951 1908,954 1914,955 1916,956 1917,954 1917,953 1915,952 1913,949 1909,946 1905,942 1900,937 1893,932 1886,926 1882,923 1872,915 1858,903 1842,889 1826,876 1811,863 1800,854 1795,849 1794,846 1793,844 1792,842 1791,840 1791,838 1791,836 1792,835 1793,833 1795,832 1796,831 1798,830 1799,830 1802,830 1808,831 1816,832 1825,834 1834,836 1843,837 1850,839 1854,840 1826,822 1857,815 1864,821 1871,827 1878,832 1885,836 1892,841 1899,845 1905,850 1912,854 1917,855 1922,857 1926,858 1931,859 1935,860 1940,860 1944,861 1948,862"/>
<polygon class="pen1 brush9" points="1751,1237 1751,1060 1751,1055 1752,1041 1752,1022 1751,1000 1748,977 1743,951 1739,927 1735,908 1732,893 1728,877 1724,862 1719,848 1714,834 1710,822 1707,813 1706,810 1701,811 1689,815 1671,821 1650,829 1629,838 1609,848 1594,858 1585,869 1578,899 1576,938 1572,974 1561,994 1549,998 1533,1001 1513,1003 1492,1004 1471,1003 1452,1002 1438,999 1429,994 1421,993 1408,999 1392,1012 1376,1027 1361,1044 1350,1061 1344,1074 1346,1083 1350,1089 1350,1095 1346,1101 1339,1108 1331,1116 1323,1126 1316,1136 1310,1149 1301,1178 1294,1206 1288,1228 1286,1237 1751,1237"/>
<polygon class="pen1 brush9" points="352,1237 352,1059 352,1054 352,1040 352,1021 353,1000 356,977 360,951 364,927 368,908 372,893 376,877 380,862 385,848 390,834 394,822 397,813 398,810 403,811 415,815 433,821 454,829 475,838 495,848 510,858 519,869 525,899 527,938 531,974 543,994 554,998 571,1001 591,1003 612,1004 633,1003 652,1002 666,999 675,994 683,993 696,999 712,1012 729,1027 744,1044 755,1061 761,1074 759,1083 755,1089 755,1095 759,1101 766,1108 774,1116 782,1126 789,1136 795,1149 802,1173 809,1198 814,1221 818,1237 352,1237"/>
<polygon class="pen1 brush10" points="1152,1238 1164,1225 1176,1212 1190,1199 1203,1188 1215,1178 1224,1170 1231,1165 1233,1163 968,1163 828,1238 1152,1238"/>
<polygon class="pen1 brush7" points="1142,1069 1137,1072 1125,1071 1122,1067 1123,1052 1085,1048 1083,1063 1079,1066 1067,1065 1063,1061 1065,1045 1063,1045 1062,1043 1061,1042 1061,1039 1067,986 1069,981 1073,977 1078,975 1084,975 1141,981 1144,982 1149,986 1153,991 1154,996 1149,1048 1148,1050 1147,1052 1145,1053 1144,1053 1142,1069"/>
<polygon class="pen1 brush3" points="1075,998 1075,1002 1076,1004 1079,1005 1083,1006 1135,1012 1138,1012 1141,1010 1143,1009 1144,1006 1145,997 1144,994 1143,991 1140,989 1137,988 1083,983 1081,983 1078,984 1077,986 1076,988 1075,998"/>
<polygon class="pen1 brush8" points="1143,1036 1143,1033 1141,1030 1139,1028 1136,1027 1132,1028 1130,1029 1128,1031 1127,1034 1127,1037 1129,1039 1131,1041 1134,1042 1138,1042 1140,1040 1142,1039 1143,1036"/>
<polygon class="pen1 brush8" points="1087,1029 1086,1026 1085,1024 1082,1022 1079,1021 1076,1022 1073,1023 1071,1025 1070,1028 1071,1031 1072,1033 1075,1035 1078,1036 1081,1035 1084,1034 1086,1032 1087,1029"/>
</g>
</svg>